<svg width="33" height="32" viewBox="0 0 33 32" fill="none" xmlns="http://www.w3.org/2000/svg">
<path d="M25.2624 21.0093C24.9464 21.736 24.5724 22.4049 24.139 23.0199C23.5483 23.8583 23.0646 24.4386 22.6919 24.7609C22.1141 25.2899 21.495 25.5608 20.8321 25.5762C20.3562 25.5762 19.7822 25.4414 19.1141 25.1679C18.4438 24.8957 17.8278 24.7609 17.2646 24.7609C16.6739 24.7609 16.0404 24.8957 15.3627 25.1679C14.6841 25.4414 14.1373 25.5839 13.7193 25.598C13.0836 25.625 12.45 25.3464 11.8175 24.7609C11.4138 24.4104 10.9088 23.8095 10.3039 22.9583C9.65492 22.0493 9.12135 20.9952 8.70334 19.7935C8.25567 18.4954 8.03125 17.2385 8.03125 16.0216C8.03125 14.6276 8.33383 13.4254 8.93988 12.4179C9.41619 11.6086 10.0498 10.9703 10.8429 10.5017C11.636 10.033 12.4929 9.79422 13.4157 9.77894C13.9207 9.77894 14.5828 9.93443 15.4057 10.24C16.2262 10.5466 16.7531 10.7021 16.9841 10.7021C17.1568 10.7021 17.7421 10.5203 18.7343 10.1578C19.6726 9.8217 20.4645 9.68252 21.1132 9.73735C22.8712 9.87858 24.1919 10.5684 25.0702 11.8112C23.498 12.7595 22.7203 14.0878 22.7357 15.7916C22.7499 17.1188 23.2336 18.2232 24.1841 19.1001C24.6149 19.5071 25.096 19.8217 25.6312 20.0451C25.5152 20.3802 25.3926 20.7012 25.2624 21.0093ZM21.2306 5.21592C21.2306 6.25616 20.8488 7.22743 20.0879 8.12642C19.1696 9.19515 18.0588 9.81271 16.8543 9.71526C16.839 9.59047 16.8301 9.45912 16.8301 9.3211C16.8301 8.32248 17.2668 7.25375 18.0423 6.37992C18.4295 5.93748 18.9219 5.5696 19.5191 5.27614C20.115 4.98705 20.6786 4.82718 21.2087 4.7998C21.2242 4.93887 21.2306 5.07794 21.2306 5.21591V5.21592Z" fill="white"/>
</svg>
