<svg width="116" height="118" viewBox="0 0 116 118" fill="none" xmlns="http://www.w3.org/2000/svg">
<path d="M15.7204 98.1835H6.57568V101.341H15.7204V98.1835Z" fill="#EBEBEB"/>
<path d="M94.2756 29.5234H85.1309V32.6808H94.2756V29.5234Z" fill="#EBEBEB"/>
<path d="M10.6188 105.322C7.90731 105.364 4.15463 105.452 1.47414 105.449H1.34717V105.322V102.165V102.023H1.48825C4.18566 102.023 7.97785 102.049 10.6329 102.094H10.7063V102.165L10.6358 105.322H10.6188ZM10.6188 105.322L10.5483 102.165L10.6188 102.235C9.09519 102.252 7.57154 102.28 6.04508 102.286L1.47414 102.306L1.61522 102.165L1.60111 105.322L1.47414 105.192C4.09819 105.192 7.96374 105.274 10.6188 105.322Z" fill="#EBEBEB"/>
<path d="M37.861 47.2882C35.1467 47.3333 31.3968 47.4208 28.7163 47.418H28.5894V47.2882V44.1309V43.9898H28.7304C31.425 43.9898 35.22 44.0152 37.8751 44.0603H37.9457V44.128L37.8751 47.2854L37.861 47.2882ZM37.861 47.2882L37.7905 44.1309L37.861 44.2014C36.3374 44.2183 34.8109 44.2465 33.2873 44.255L28.7163 44.2719L28.8574 44.1309L28.8433 47.2882L28.7163 47.1612C31.3404 47.1612 35.189 47.243 37.861 47.2882Z" fill="#EBEBEB"/>
<path d="M32.7597 48.1117H23.615V51.2691H32.7597V48.1117Z" fill="#EBEBEB"/>
<path d="M27.6779 47.2882C24.9663 47.3333 21.2137 47.4208 18.5332 47.418H18.4062V47.2882L18.3921 44.1309V43.9898H18.5332C21.2306 43.9898 25.0228 44.0152 27.6779 44.0603H27.7512V44.128L27.6807 47.2854L27.6779 47.2882ZM27.6779 47.2882L27.6073 44.1309L27.6779 44.2014C26.1542 44.2183 24.6306 44.2465 23.1041 44.255L18.5332 44.2719L18.6742 44.1309V47.2882L18.5473 47.1612C21.1713 47.1612 25.0369 47.243 27.692 47.2882H27.6779Z" fill="#EBEBEB"/>
<path d="M114.523 105.322C111.812 105.364 108.059 105.452 105.378 105.449H105.251V105.322L105.237 102.165V102.023H105.378C108.076 102.023 111.868 102.049 114.523 102.094H114.596V102.165L114.526 105.322H114.523ZM114.523 105.322L114.453 102.165L114.523 102.235C112.999 102.252 111.476 102.28 109.952 102.286L105.378 102.306L105.519 102.165L105.505 105.322L105.378 105.192C108.005 105.192 111.854 105.274 114.523 105.322Z" fill="#EBEBEB"/>
<path d="M109.422 4.4763C106.71 4.52144 102.957 4.60891 100.277 4.60609H100.15V4.4763L100.136 1.32179V1.17789H100.277C102.974 1.17789 106.766 1.20046 109.422 1.2456H109.495V1.31614L109.424 4.47065L109.422 4.4763ZM109.422 4.4763L109.351 1.32179L109.422 1.39233C107.898 1.39233 106.374 1.43465 104.851 1.44311L100.277 1.46004L100.418 1.32179V4.4763L100.291 4.34933C102.918 4.34933 106.781 4.43115 109.436 4.4763H109.422Z" fill="#EBEBEB"/>
<path d="M114.523 5.30325H105.378V8.46058H114.523V5.30325Z" fill="#EBEBEB"/>
<path d="M12.913 1.32178H3.76831V4.47911H12.913V1.32178Z" fill="#EBEBEB"/>
<path d="M0.0012207 115.482L14.5012 115.415L29.0013 115.389L57.9985 115.341L86.9957 115.389L101.496 115.415L115.996 115.482L101.496 115.553L86.9957 115.576L57.9985 115.623L29.0013 115.576L14.5012 115.553L0.0012207 115.482Z" fill="#263238"/>
<path d="M77.2893 80.5542H91.5241L98.8235 39.9434L85.7907 33.9561L77.2893 80.5542Z" fill="#614378"/>
<g opacity="0.4">
<path d="M77.2896 80.5542H91.5244L98.8237 39.9434L85.7909 33.9561L77.2896 80.5542Z" fill="black"/>
</g>
<path d="M38.8708 80.5542H77.2893L85.7907 33.9561H47.3722L38.8708 80.5542Z" fill="#614378"/>
<path opacity="0.2" d="M38.8708 80.5542H77.2893L85.7907 33.9561H47.3722L38.8708 80.5542Z" fill="black"/>
<path d="M28.7755 103.522H72.9866V80.5541H28.7755V103.522Z" fill="#614378"/>
<path opacity="0.2" d="M28.7755 103.522H72.9866V80.5541H28.7755V103.522Z" fill="black"/>
<path d="M28.7755 80.6501H72.9866V70.6279H28.7755V80.6501Z" fill="#614378"/>
<path opacity="0.2" d="M28.7755 80.6501H72.9866V70.6279H28.7755V80.6501Z" fill="black"/>
<path d="M28.7781 103.524H34.7372L43.6167 54.5336H28.7781V103.524Z" fill="#614378"/>
<g opacity="0.4">
<path d="M28.7786 103.525H34.7377L43.6172 54.5338H28.7786V103.525Z" fill="black"/>
</g>
<path d="M16.7894 103.525H28.7754L28.7754 54.5337H16.7894L16.7894 103.525Z" fill="#614378"/>
<path opacity="0.2" d="M16.7894 103.525H28.7754L28.7754 54.5337H16.7894L16.7894 103.525Z" fill="black"/>
<path d="M84.9726 103.525H106.786V54.5337H84.9726V103.525Z" fill="#614378"/>
<g opacity="0.4">
<path d="M84.9731 103.525H106.787V54.5337H84.9731V103.525Z" fill="black"/>
</g>
<path d="M72.9864 103.525H84.9724V54.5337H72.9864V103.525Z" fill="#614378"/>
<path opacity="0.2" d="M72.9864 103.525H84.9724V54.5337H72.9864V103.525Z" fill="black"/>
<path d="M82.0352 54.5337L77.5207 54.4519L73.0062 54.3955H72.8708V54.5337L72.82 59.7706L72.8003 69.2426C72.7862 72.7328 72.7749 76.2259 72.8003 79.7162C72.8257 83.2065 72.8172 86.7024 72.8623 90.1927C72.9075 93.683 72.9385 97.176 73.0119 100.669C73.0871 97.176 73.1379 93.6839 73.1642 90.1927C73.2094 86.7024 73.2122 83.2093 73.2235 79.7162C73.2348 76.2231 73.2235 72.7328 73.2235 69.2426L73.2038 59.7706L73.153 54.5337L73.0147 54.672L77.5292 54.6156L82.0352 54.5337Z" fill="#263238"/>
<path d="M28.7785 54.5336C28.6853 58.038 28.6402 65.7747 28.6035 69.2791L28.5527 79.7951L28.6035 90.3111L28.6656 95.5677L28.7785 100.824L28.8885 95.5677L28.9506 90.3111L29.0042 79.7951L28.9506 69.2791C28.9139 65.7747 28.8716 58.038 28.7785 54.5336Z" fill="#263238"/>
<path d="M28.7781 80.5571C32.6549 80.6502 36.5317 80.6925 40.4086 80.7292L52.0419 80.7828L61.3531 80.7292L67.1683 80.6671L72.9835 80.5571L67.1683 80.4442L61.3531 80.3821L52.0419 80.3313L40.4086 80.3821C36.5317 80.4103 32.6549 80.4639 28.7781 80.5571Z" fill="#263238"/>
<path d="M28.7781 70.6251C32.6549 70.7182 36.5317 70.7633 40.4086 70.8L52.0419 70.8508L61.3531 70.8L67.1683 70.7379L72.9835 70.6251L67.1683 70.515L61.3531 70.4529L52.0419 70.3993L40.4086 70.4529C36.5317 70.4896 32.6549 70.5348 28.7781 70.6251Z" fill="#263238"/>
<path d="M98.4961 103.525L98.7924 107.15L99.4808 115.527H102.638L103.327 107.15L103.623 103.525H98.4961Z" fill="#C7C7C7"/>
<path d="M103.623 103.525H98.4961L98.7924 107.15H103.327L103.623 103.525Z" fill="#A6A6A6"/>
<path d="M76.4175 103.525L76.7109 107.15L77.3994 115.527H80.5595L81.248 107.15L81.5443 103.525H76.4175Z" fill="#C7C7C7"/>
<path d="M81.5443 103.525H76.4175L76.7109 107.15H81.248L81.5443 103.525Z" fill="#A6A6A6"/>
<path d="M42.113 103.525L42.4093 107.15L43.0978 115.527H46.2551L46.9436 107.15L47.2398 103.525H42.113Z" fill="#C7C7C7"/>
<path d="M47.2398 103.525H42.113L42.4093 107.15H46.9436L47.2398 103.525Z" fill="#A6A6A6"/>
<path d="M20.0286 103.525L20.3248 107.15L21.0133 115.527H24.1706L24.8591 107.15L25.1554 103.525H20.0286Z" fill="#C7C7C7"/>
<path d="M20.0286 103.525L20.3248 107.15H24.8591L25.1554 103.525H20.0286Z" fill="#A6A6A6"/>
<g opacity="0.2">
<path d="M80.7093 53.8508C80.7666 53.8572 80.8195 53.8844 80.858 53.9273C80.8965 53.9703 80.9178 54.0259 80.9178 54.0836C80.9178 54.1413 80.8965 54.1969 80.858 54.2399C80.8195 54.2828 80.7666 54.3101 80.7093 54.3164C80.6519 54.3101 80.599 54.2828 80.5605 54.2399C80.522 54.1969 80.5007 54.1413 80.5007 54.0836C80.5007 54.0259 80.522 53.9703 80.5605 53.9273C80.599 53.8844 80.6519 53.8572 80.7093 53.8508Z" fill="black"/>
<path d="M80.3113 82.3487C80.3686 82.355 80.4216 82.3823 80.4601 82.4252C80.4986 82.4682 80.5198 82.5238 80.5198 82.5815C80.5198 82.6391 80.4986 82.6948 80.4601 82.7377C80.4216 82.7807 80.3686 82.8079 80.3113 82.8143C80.254 82.8079 80.201 82.7807 80.1625 82.7377C80.1241 82.6948 80.1028 82.6391 80.1028 82.5815C80.1028 82.5238 80.1241 82.4682 80.1625 82.4252C80.201 82.3823 80.254 82.355 80.3113 82.3487Z" fill="black"/>
<path d="M93.954 39.6329C93.954 39.6104 93.9765 39.585 93.9906 39.5624C93.9998 39.5466 94.013 39.5335 94.0288 39.5243C94.0447 39.5152 94.0626 39.5104 94.0809 39.5104C94.0992 39.5104 94.1172 39.5152 94.133 39.5243C94.1489 39.5335 94.162 39.5466 94.1712 39.5624C94.1853 39.585 94.1966 39.6104 94.2079 39.6329C94.3405 39.9094 93.8326 39.9094 93.954 39.6329Z" fill="black"/>
<path d="M90.2068 82.9496C90.2164 82.9253 90.2277 82.9017 90.2407 82.8791C90.2498 82.8633 90.263 82.8501 90.2788 82.841C90.2947 82.8319 90.3127 82.8271 90.3309 82.8271C90.3492 82.8271 90.3672 82.8319 90.383 82.841C90.3989 82.8501 90.4121 82.8633 90.4212 82.8791C90.4362 82.9011 90.4485 82.9247 90.4579 82.9496C90.5905 83.212 90.0742 83.212 90.2068 82.9496Z" fill="black"/>
<path d="M78.7061 55.2729C78.7532 55.2729 78.7984 55.2917 78.8318 55.325C78.8651 55.3584 78.8838 55.4036 78.8838 55.4507C78.8838 55.4978 78.8651 55.5431 78.8318 55.5764C78.7984 55.6097 78.7532 55.6285 78.7061 55.6285C78.6589 55.6285 78.6137 55.6097 78.5804 55.5764C78.547 55.5431 78.5283 55.4978 78.5283 55.4507C78.5283 55.4036 78.547 55.3584 78.5804 55.325C78.6137 55.2917 78.6589 55.2729 78.7061 55.2729Z" fill="black"/>
<path d="M47.8777 89.5803C47.935 89.5866 47.988 89.6139 48.0265 89.6568C48.065 89.6998 48.0862 89.7554 48.0862 89.8131C48.0862 89.8708 48.065 89.9264 48.0265 89.9694C47.988 90.0123 47.935 90.0396 47.8777 90.0459C47.8204 90.0396 47.7674 90.0123 47.7289 89.9694C47.6905 89.9264 47.6692 89.8708 47.6692 89.8131C47.6692 89.7554 47.6905 89.6998 47.7289 89.6568C47.7674 89.6139 47.8204 89.5866 47.8777 89.5803Z" fill="black"/>
<path d="M68.1338 95.5056C68.181 95.5056 68.2262 95.5243 68.2595 95.5577C68.2928 95.591 68.3116 95.6362 68.3116 95.6834C68.3116 95.7305 68.2928 95.7757 68.2595 95.8091C68.2262 95.8424 68.181 95.8611 68.1338 95.8611C68.0867 95.8611 68.0415 95.8424 68.0081 95.8091C67.9748 95.7757 67.9561 95.7305 67.9561 95.6834C67.9561 95.6362 67.9748 95.591 68.0081 95.5577C68.0415 95.5243 68.0867 95.5056 68.1338 95.5056Z" fill="black"/>
<path d="M93.666 73.3337C93.7132 73.3337 93.7584 73.3524 93.7917 73.3857C93.8251 73.4191 93.8438 73.4643 93.8438 73.5114C93.8438 73.5586 93.8251 73.6038 93.7917 73.6371C93.7584 73.6705 93.7132 73.6892 93.666 73.6892C93.6189 73.6892 93.5737 73.6705 93.5403 73.6371C93.507 73.6038 93.4883 73.5586 93.4883 73.5114C93.4883 73.4643 93.507 73.4191 93.5403 73.3857C93.5737 73.3524 93.6189 73.3337 93.666 73.3337Z" fill="black"/>
<path d="M70.309 45.3438C70.3558 45.2991 70.4179 45.2742 70.4826 45.2742C70.5472 45.2742 70.6094 45.2991 70.6561 45.3438C70.6988 45.3877 70.7292 45.4422 70.7441 45.5016C70.7589 45.5611 70.7578 45.6235 70.7407 45.6824C70.7187 45.7324 70.6825 45.775 70.6367 45.8049C70.5908 45.8348 70.5373 45.8507 70.4826 45.8507C70.4278 45.8507 70.3743 45.8348 70.3285 45.8049C70.2826 45.775 70.2465 45.7324 70.2244 45.6824C70.2073 45.6235 70.2062 45.5611 70.2211 45.5016C70.2359 45.4422 70.2663 45.3877 70.309 45.3438Z" fill="black"/>
<path d="M78.3589 81.031C78.4054 80.9848 78.4683 80.9589 78.5338 80.9589C78.5994 80.9589 78.6623 80.9848 78.7088 81.031C78.7511 81.0747 78.7811 81.1287 78.796 81.1876C78.8108 81.2465 78.81 81.3083 78.7934 81.3668C78.7718 81.4177 78.7356 81.4611 78.6894 81.4916C78.6433 81.5221 78.5892 81.5384 78.5338 81.5384C78.4785 81.5384 78.4244 81.5221 78.3783 81.4916C78.3321 81.4611 78.2959 81.4177 78.2743 81.3668C78.2571 81.3084 78.256 81.2464 78.2709 81.1874C78.2857 81.1283 78.3161 81.0744 78.3589 81.031Z" fill="black"/>
<path d="M100.886 96.022C100.933 95.976 100.995 95.9501 101.06 95.9501C101.125 95.9501 101.188 95.976 101.234 96.022C101.276 96.0653 101.307 96.1193 101.322 96.1783C101.336 96.2374 101.335 96.2993 101.318 96.3577C101.296 96.4078 101.26 96.4504 101.214 96.4803C101.168 96.5101 101.115 96.5261 101.06 96.5261C101.005 96.5261 100.952 96.5101 100.906 96.4803C100.86 96.4504 100.824 96.4078 100.802 96.3577C100.785 96.2993 100.784 96.2374 100.798 96.1783C100.813 96.1193 100.844 96.0653 100.886 96.022Z" fill="black"/>
<path d="M37.6157 41.3344C37.5584 41.3281 37.5055 41.3008 37.467 41.2579C37.4285 41.2149 37.4072 41.1593 37.4072 41.1016C37.4072 41.0439 37.4285 40.9883 37.467 40.9454C37.5055 40.9024 37.5584 40.8752 37.6157 40.8688C37.6731 40.8752 37.726 40.9024 37.7645 40.9454C37.803 40.9883 37.8243 41.0439 37.8243 41.1016C37.8243 41.1593 37.803 41.2149 37.7645 41.2579C37.726 41.3008 37.6731 41.3281 37.6157 41.3344Z" fill="black"/>
<path d="M34.5484 83.4321C34.491 83.4258 34.4381 83.3986 34.3996 83.3556C34.3611 83.3127 34.3398 83.257 34.3398 83.1994C34.3398 83.1417 34.3611 83.0861 34.3996 83.0431C34.4381 83.0002 34.491 82.9729 34.5484 82.9666C34.6057 82.9729 34.6587 83.0002 34.6971 83.0431C34.7356 83.0861 34.7569 83.1417 34.7569 83.1994C34.7569 83.257 34.7356 83.3127 34.6971 83.3556C34.6587 83.3986 34.6057 83.4258 34.5484 83.4321Z" fill="black"/>
<path d="M46.1282 52.3384C46.0709 52.332 46.0179 52.3048 45.9794 52.2618C45.941 52.2189 45.9197 52.1632 45.9197 52.1056C45.9197 52.0479 45.941 51.9923 45.9794 51.9493C46.0179 51.9064 46.0709 51.8791 46.1282 51.8728C46.1855 51.8791 46.2385 51.9064 46.277 51.9493C46.3154 51.9923 46.3367 52.0479 46.3367 52.1056C46.3367 52.1632 46.3154 52.2189 46.277 52.2618C46.2385 52.3048 46.1855 52.332 46.1282 52.3384Z" fill="black"/>
<path d="M24.4391 81.234C24.4291 81.2577 24.4168 81.2804 24.4024 81.3017C24.3933 81.3176 24.3801 81.3307 24.3642 81.3398C24.3484 81.3489 24.3304 81.3537 24.3121 81.3537C24.2939 81.3537 24.2759 81.3489 24.26 81.3398C24.2442 81.3307 24.231 81.3176 24.2219 81.3017C24.2219 81.2792 24.1965 81.2566 24.188 81.234C24.0554 80.9575 24.5717 80.9575 24.4391 81.234Z" fill="black"/>
<path d="M21.6342 61.3731C21.6242 61.3977 21.6119 61.4213 21.5975 61.4436C21.5883 61.4594 21.5752 61.4725 21.5593 61.4817C21.5435 61.4908 21.5255 61.4956 21.5072 61.4956C21.4889 61.4956 21.471 61.4908 21.4551 61.4817C21.4393 61.4725 21.4261 61.4594 21.4169 61.4436C21.4169 61.421 21.3915 61.3956 21.3831 61.3731C21.2504 61.0966 21.7668 61.0966 21.6342 61.3731Z" fill="black"/>
<path d="M22.3678 93.6913C22.3678 93.7139 22.3453 93.7365 22.334 93.759C22.3248 93.7749 22.3116 93.788 22.2958 93.7971C22.2799 93.8062 22.262 93.811 22.2437 93.811C22.2254 93.811 22.2074 93.8062 22.1916 93.7971C22.1757 93.788 22.1626 93.7749 22.1534 93.759C22.1534 93.7365 22.128 93.7139 22.1167 93.6913C21.9841 93.4148 22.5004 93.4148 22.3678 93.6913Z" fill="black"/>
<path d="M53.2328 67.1997C53.1868 67.2457 53.1244 67.2715 53.0593 67.2715C52.9942 67.2715 52.9318 67.2457 52.8858 67.1997C52.843 67.1564 52.8126 67.1024 52.7977 67.0433C52.7828 66.9843 52.784 66.9224 52.8011 66.8639C52.8232 66.8139 52.8594 66.7713 52.9052 66.7414C52.951 66.7115 53.0046 66.6956 53.0593 66.6956C53.114 66.6956 53.1675 66.7115 53.2134 66.7414C53.2592 66.7713 53.2954 66.8139 53.3175 66.8639C53.3346 66.9224 53.3357 66.9843 53.3209 67.0433C53.306 67.1024 53.2756 67.1564 53.2328 67.1997Z" fill="black"/>
<path d="M19.4025 62.4228C19.3558 62.4674 19.2936 62.4924 19.229 62.4924C19.1643 62.4924 19.1022 62.4674 19.0554 62.4228C19.0127 62.3794 18.9823 62.3254 18.9674 62.2664C18.9525 62.2074 18.9537 62.1454 18.9708 62.087C18.9929 62.0369 19.029 61.9944 19.0749 61.9645C19.1207 61.9346 19.1742 61.9187 19.229 61.9187C19.2837 61.9187 19.3372 61.9346 19.3831 61.9645C19.4289 61.9944 19.4651 62.0369 19.4871 62.087C19.504 62.1454 19.505 62.2073 19.4901 62.2663C19.4752 62.3253 19.445 62.3793 19.4025 62.4228Z" fill="black"/>
</g>
<path d="M9.4676 104.571C10.2633 105.034 34.7375 110.152 35.7928 109.757C36.1963 109.608 37.1472 106.089 38.1799 101.8C38.4028 100.875 38.6257 99.9185 38.8486 98.9451C40.2989 92.6248 41.6927 85.8869 41.6927 85.8869L25.3276 82.4163L22.9349 95.5705L22.4017 98.4682C22.4017 98.4682 12.1537 100.7 11.042 101.259C9.93033 101.817 8.66345 104.111 9.4676 104.571Z" fill="#EB9481"/>
<path d="M37.7735 103.437C36.9017 106.953 36.1342 109.628 35.7984 109.757C34.7432 110.152 10.2661 105.034 9.47322 104.569C8.68036 104.103 9.94724 101.806 11.0533 101.245C11.7418 100.903 15.9036 99.9214 18.9932 99.2189C16.2958 99.865 11.2621 101.693 21.6737 102.447C30.2682 103.073 35.948 103.355 37.7735 103.437Z" fill="#263238"/>
<path d="M31.5488 117.091C32.4348 117.336 57.4057 116.047 58.3255 115.398C58.6782 115.152 57.7161 105.127 57.4536 104.162C56.5677 100.892 52.3551 91.0561 52.3551 91.0561L35.6486 91.8715L42.5106 107.878C42.5106 107.878 33.1712 112.647 32.2373 113.471C31.3034 114.295 30.6601 116.84 31.5488 117.091Z" fill="#EB9481"/>
<path d="M58.3256 115.398C57.4058 116.052 32.4378 117.342 31.5462 117.091C30.6545 116.84 31.3007 114.292 32.229 113.471C32.6663 113.087 34.9236 111.851 37.2119 110.649C34.3395 112.266 29.7968 115.869 58.0661 109.444C58.3228 112.294 58.5147 115.262 58.3256 115.398Z" fill="#263238"/>
<path d="M70.2864 67.7132C65.3091 73.2576 48.5885 68.8785 47.5869 71.0991C46.7066 73.0431 58.117 104.292 58.117 104.292L39.8586 106.267C39.8586 106.267 24.0945 71.7565 29.7292 61.7851C32.7737 56.3987 46.1846 58.5459 54.2768 57.5527C56.7175 57.2706 57.8658 52.22 57.8658 52.22H72.3264C72.3264 52.22 75.9746 61.3647 70.2864 67.7132Z" fill="#263238"/>
<path d="M34.8049 58.6645L50.1401 70.3993C55.219 70.2921 66.3783 72.0556 70.2833 67.6991C75.9744 61.3619 72.3261 52.2003 72.3261 52.2003H57.8656C57.8656 52.2003 56.7172 57.2339 54.2766 57.5302C48.5967 58.2215 40.3042 57.3722 34.8049 58.6645Z" fill="#37474F"/>
<path d="M39.1589 102.162C39.664 102.004 44.3986 101.476 45.4425 101.363C47.5333 101.138 54.1132 100.517 55.318 100.517C55.3255 100.517 55.3327 100.52 55.338 100.525C55.3433 100.53 55.3462 100.538 55.3462 100.545C55.3462 100.553 55.3433 100.56 55.338 100.565C55.3327 100.57 55.3255 100.573 55.318 100.573C54.2825 100.791 50.084 101.279 49.04 101.386C46.9464 101.603 39.7571 102.3 39.1645 102.232C39.1589 102.229 39.1542 102.224 39.1507 102.218C39.1473 102.212 39.1452 102.205 39.1447 102.198C39.1441 102.192 39.1451 102.185 39.1476 102.179C39.1501 102.172 39.1539 102.166 39.1589 102.162Z" fill="#37474F"/>
<path d="M45.3721 69.2426C46.5458 68.6585 55.4479 68.9463 61.8331 68.351C63.9154 68.1535 66.0005 67.7105 67.5891 66.3477C68.9752 65.0996 69.9642 63.4719 70.4332 61.6667C71.0455 59.4828 70.9834 57.2086 70.8762 54.9739C70.8508 54.4237 70.8141 53.8735 70.7803 53.3233C70.7803 53.2923 70.8339 53.2866 70.8367 53.3233C71.322 57.3271 71.6832 61.788 69.0901 65.2698C67.933 66.7898 66.2898 67.8673 64.4346 68.3228C60.5831 69.3357 46.0944 69.0846 45.5921 69.4768C44.9827 69.9423 54.339 98.443 54.5309 98.9847C54.5675 99.0863 54.387 99.1568 54.3446 99.0552C53.422 96.8629 44.3507 69.7505 45.3721 69.2426Z" fill="#37474F"/>
<path d="M29.0746 62.7191C29.9211 60.5324 31.8962 59.1724 34.7883 58.6504C34.8363 58.6504 34.8334 58.7153 34.7883 58.7266C32.2686 59.4659 30.4656 60.4788 29.4753 62.6063C29.0125 63.5994 28.7727 64.9961 28.6514 66.8668C28.0532 76.1977 36.1963 97.382 36.3627 97.7517C36.3661 97.7584 36.3666 97.7662 36.3643 97.7734C36.3619 97.7805 36.3568 97.7864 36.35 97.7898C36.3433 97.7931 36.3355 97.7937 36.3283 97.7913C36.3212 97.7889 36.3153 97.7838 36.3119 97.7771C35.1636 95.8471 25.5194 71.7397 29.0746 62.7191Z" fill="#37474F"/>
<path d="M22.4722 94.7326L36.2978 97.6727C36.2978 97.6727 25.3897 65.1174 30.5136 60.9161C31.9244 59.7508 35.0281 59.3445 38.6962 60.9331C44.1898 63.306 50.5468 68.145 56.5426 69.9141C62.1575 71.5703 68.822 70.0467 71.116 67.5214C75.9352 62.2197 72.3095 52.1947 72.3095 52.1947L52.4259 51.4498C52.4259 51.4498 52.7081 51.6896 51.7741 52.5304C51.7741 52.5304 40.0872 49.881 35.0084 52.9847C25.8609 58.5799 22.4722 94.7326 22.4722 94.7326Z" fill="#263238"/>
<path d="M63.7346 53.357C63.7368 53.3493 63.7414 53.3426 63.7477 53.3378C63.7541 53.333 63.7619 53.3304 63.7698 53.3304C63.7778 53.3304 63.7856 53.333 63.7919 53.3378C63.7983 53.3426 63.8029 53.3493 63.8051 53.357C63.7875 54.1039 63.8451 54.8507 63.9772 55.586C64.1308 56.285 64.4768 56.9271 64.9761 57.4398C66.0652 58.543 67.6312 58.9183 69.0589 59.3669C69.1351 59.3923 69.1209 59.5249 69.0363 59.5108C67.4506 59.2682 65.783 58.8675 64.6234 57.6768C64.0925 57.1276 63.7361 56.4334 63.5991 55.682C63.4507 54.9077 63.4973 54.1087 63.7346 53.357Z" fill="#37474F"/>
<path d="M30.8578 60.2952C32.9824 58.9606 36.3062 59.9736 37.8976 60.5774C37.9315 60.5774 37.9145 60.6451 37.8807 60.631C36.4191 60.1062 32.7764 59.3077 30.8267 60.6874C26.3122 63.8758 32.3476 85.6724 36.2978 97.6669C36.357 97.8559 36.2103 97.8051 36.1256 97.6245C35.4767 96.2138 30.3866 81.045 29.0576 71.0144C28.8573 69.4794 27.8077 62.2167 30.8578 60.2952Z" fill="#37474F"/>
<path d="M24.0494 91.0561C24.467 91.0561 28.0504 91.8349 28.8461 92.0126C30.4233 92.3681 34.0829 93.3162 34.9378 93.6435C34.9604 93.6435 34.9378 93.6971 34.9209 93.6971C34.0998 93.6181 32.1924 93.2005 31.408 93.0171C29.828 92.6503 24.4247 91.3524 24.0296 91.1408C23.9873 91.1323 24.0071 91.0561 24.0494 91.0561Z" fill="#37474F"/>
<path d="M31.5348 59.7282C32.9653 58.9466 34.6667 58.8196 36.2553 59.0143C37.9316 59.2666 39.559 59.7757 41.0801 60.5239C44.3136 62.0024 47.3948 63.811 50.634 65.281C53.8731 66.7511 57.29 67.8882 60.8396 67.9982C63.8727 68.0913 67.7129 67.5552 69.6626 64.8268C72.6676 60.6226 70.9182 53.374 70.8815 52.9056C70.8815 52.869 70.9295 52.8718 70.9379 52.9056C73.2686 61.8161 70.2692 65.2754 68.2462 66.7313C66.6379 67.8882 64.327 68.1788 62.8005 68.3086C59.2708 68.6048 55.7466 67.7443 52.4595 66.4379C49.1075 65.1033 45.9699 63.3031 42.7505 61.661C39.6581 60.095 36.2355 58.4585 32.717 59.3614C32.3177 59.4669 31.9263 59.6008 31.5461 59.762C31.5291 59.7705 31.515 59.7395 31.5348 59.7282Z" fill="#37474F"/>
<path d="M60.1373 35.7759C56.2999 42.5476 52.0986 48.4729 48.4221 49.2263C44.5001 50.022 36.4305 42.2373 34.5231 39.5116C33.8177 38.5043 41.3513 34.3905 42.3586 35.237C44.2547 36.8283 47.8719 39.2633 48.4814 39.1618C49.0908 39.0602 53.6251 35.5304 58.4105 31.8116C61.311 29.5571 62.7952 31.0836 60.1373 35.7759Z" fill="#EB9481"/>
<path d="M35.4061 40.694C35.4061 40.694 31.659 35.7308 31.0016 34.4865C30.3442 33.2422 28.0502 27.9292 29.1986 27.1928C30.7279 26.2109 33.352 32.2857 33.6567 32.5848C33.9614 32.8839 39.7964 33.5864 41.1959 34.4019C42.0697 34.9216 42.8507 35.5834 43.5068 36.36C43.5068 36.36 39.4437 40.2566 35.4061 40.694Z" fill="#EB9481"/>
<path d="M28.8574 21.0925L36.4305 15.4861L41.3344 29.3738L33.8008 34.0661L28.8574 21.0925Z" fill="#37474F"/>
<path d="M29.8027 21.0473L36.2415 16.3607L36.504 16.8686L40.2961 27.551C39.735 28.1424 39.2182 28.7742 38.7499 29.4415C38.1517 30.3444 36.4137 33.2421 34.4442 33.4227L29.8027 21.0473Z" fill="white"/>
<path d="M30.0849 21.8938C30.0849 21.8938 31.7919 21.0473 32.661 20.1162C33.53 19.1851 34.368 18.1722 35.0677 17.7235C35.7675 17.2749 36.4785 16.8093 36.4785 16.8093L36.2472 16.3607L29.8083 21.0473L30.0849 21.8938Z" fill="#EBEBEB"/>
<path d="M44.6751 34.5429L33.0644 34.4498L28.8574 21.0925L40.9958 20.2037L44.6751 34.5429Z" fill="#455A64"/>
<path d="M31.9016 25.3699C31.2696 25.9342 32.1838 32.9515 32.2289 33.2703C32.2741 33.5891 33.0754 35.0028 33.0754 35.0028L36.0606 34.0745C36.0606 34.0745 34.7006 31.5351 34.6498 30.7704C34.599 30.0058 33.8259 23.677 31.9016 25.3699Z" fill="#EB9481"/>
<path d="M31.8424 29.718C32.1246 31.4532 32.3446 33.1969 32.624 34.9322C31.9838 33.2726 31.717 31.4923 31.8424 29.718Z" fill="#263238"/>
<path d="M35.8379 26.4168C37.4123 25.8525 36.7633 29.3992 36.4389 30.6915C36.0749 32.1417 36.721 35.2511 36.721 35.2511L33.4226 35.3865C33.4226 35.3865 33.4226 32.0007 33.5439 30.9398C33.6427 30.1695 34.9829 26.7187 35.8379 26.4168Z" fill="#EB9481"/>
<path d="M34.351 28.5752C34.1563 29.3906 33.7867 30.2371 33.6823 31.0441C33.6592 31.9095 33.5829 32.7726 33.4537 33.6286C33.363 32.7644 33.347 31.8941 33.4057 31.0271C33.5384 30.1468 33.9701 29.3624 34.351 28.5752Z" fill="#263238"/>
<path d="M36.1934 35.0987C36.1934 35.0987 36.7577 32.4492 37.0398 32.057C37.322 31.6648 38.7553 29.1 39.2689 29.0972C39.7824 29.0944 40.3975 30.3246 40.0956 31.1908C39.6328 32.4859 39.3281 33.2223 39.2999 33.6145C39.2717 34.0067 40.6458 35.5896 40.6458 35.5896L36.1934 35.0987Z" fill="#EB9481"/>
<path d="M37.195 31.8113C36.7125 32.8694 36.7266 34.0432 36.1934 35.0984C36.2921 33.9698 36.436 32.6804 37.195 31.8113Z" fill="#263238"/>
<path d="M39.2998 33.6147C39.7936 34.3003 40.3438 34.9408 40.6457 35.7534C40.1643 35.3277 39.7721 34.8108 39.4917 34.2326C39.3799 34.0446 39.3142 33.8329 39.2998 33.6147Z" fill="#263238"/>
<path d="M44.3422 34.8618L36.4897 42.6719C36.4897 42.6719 44.2237 51.0745 48.0187 50.2563C51.8137 49.438 58.4839 40.3808 60.9725 33.9786C62.6965 29.5488 60.1824 30.1893 57.4935 32.2998C54.8045 34.4103 48.5717 38.7358 48.2754 38.6512C47.9792 38.5665 44.3422 34.8618 44.3422 34.8618Z" fill="#614378"/>
<path d="M58.069 39.7148L58.0295 39.7797C57.0914 39.9085 56.1385 39.8847 55.208 39.7092C53.4527 39.3087 51.8174 38.4973 50.4367 37.3419L50.5185 37.2883C51.879 38.432 53.4892 39.24 55.2192 39.6471C56.1602 39.8145 57.1212 39.8374 58.069 39.7148ZM43.6085 35.5982L43.4251 35.7844C43.9302 35.6992 44.4296 35.5833 44.9205 35.4373L44.7936 35.3104C44.4039 35.4272 44.0083 35.5233 43.6085 35.5982ZM57.2875 32.4691L57.1323 32.5876C57.8397 32.7816 58.5296 33.0346 59.1948 33.3437C59.7775 33.6057 60.3356 33.9192 60.8624 34.2805C60.8821 34.2325 60.9019 34.1817 60.9188 34.1338C59.8064 33.3806 58.5763 32.818 57.279 32.4691H57.2875ZM50.3577 49.0429C50.3623 49.0441 50.3672 49.0441 50.3718 49.0429H50.3492L50.1997 49.0796C48.2472 49.5452 46.2495 49.6637 44.2377 48.9357C43.8622 48.8143 43.493 48.6739 43.1317 48.5153C43.3376 48.6536 43.5464 48.7975 43.7524 48.916C44.3843 49.1389 45.0324 49.3134 45.6908 49.4379C47.1722 49.6832 48.6892 49.6053 50.1376 49.2094L50.3182 49.1643L50.4621 49.1276L50.3577 49.0429ZM50.3577 49.0429C48.7296 47.824 47.1863 46.4556 45.6429 45.2564C44.2321 44.2039 42.6351 43.0386 40.7898 43.1205C39.7174 43.1812 38.6654 43.4385 37.686 43.8795L37.7763 43.9698C38.5039 43.6602 39.2667 43.4413 40.0477 43.318C42.1356 42.9145 43.9781 44.1644 45.5638 45.3749C47.0875 46.5458 48.614 47.8804 50.2194 49.0796L50.2787 49.1219L50.3379 49.1643L50.4818 49.1276L50.3577 49.0429Z" fill="white"/>
<path opacity="0.1" d="M60.9724 33.9785L60.8539 34.2804C58.275 40.66 51.7572 49.4492 48.0186 50.2561C47.2624 50.4198 46.3482 50.2166 45.3691 49.7849C49.1444 44.6779 54.8157 36.5998 59.0678 31.2303C59.2061 31.1541 59.35 31.0836 59.4713 31.0215L59.6406 30.9425L59.6829 30.9256C59.7422 30.9002 59.8015 30.8748 59.8607 30.855C59.92 30.8353 59.9651 30.8155 60.0187 30.7986C60.0964 30.7716 60.1755 30.749 60.2557 30.7309C60.2984 30.7191 60.3418 30.7097 60.3855 30.7027C60.4375 30.6912 60.4904 30.6837 60.5435 30.6801C60.6808 30.6526 60.8228 30.6596 60.9568 30.7005C61.0907 30.7414 61.2124 30.8148 61.311 30.9143C61.3304 30.9346 61.3483 30.9563 61.3646 30.9792C61.6665 31.4222 61.6016 32.3618 60.9724 33.9785Z" fill="black"/>
<path d="M38.9105 44.0911C40.0392 43.0132 44.5339 38.4479 45.4368 37.3927C45.4989 37.3193 45.4679 37.2601 45.3917 37.3278C41.9155 40.4682 39.9404 42.9314 38.871 44.0431C38.8428 44.0713 38.8823 44.1165 38.9105 44.0911Z" fill="#263238"/>
<path d="M52.2737 52.6207L73.6837 54.4519C73.6837 54.4519 71.4801 44.4128 68.3538 36.4842C65.0018 27.9941 60.4675 30.2542 58.8592 31.6057C56.9518 33.2055 53.1766 39.2239 52.8944 40.4034C52.4289 42.339 54.0428 44.5454 54.0428 44.5454L52.2737 52.6207Z" fill="#614378"/>
<path d="M60.6026 44.5763C59.7175 44.5391 58.831 44.5683 57.9503 44.6638C57.513 44.7146 57.0813 44.7879 56.6467 44.8697C56.4323 44.9121 56.2179 44.9459 56.0006 44.977C55.7745 45.0183 55.5443 45.0316 55.315 45.0165C55.3124 45.0153 55.3096 45.0149 55.3068 45.0151C55.304 45.0154 55.3013 45.0163 55.2989 45.0178C55.2966 45.0194 55.2946 45.0215 55.2933 45.0239C55.292 45.0264 55.2913 45.0292 55.2913 45.032C55.2913 45.0348 55.292 45.0376 55.2933 45.04C55.2946 45.0425 55.2966 45.0446 55.2989 45.0461C55.3013 45.0477 55.304 45.0486 55.3068 45.0489C55.3096 45.0491 55.3124 45.0486 55.315 45.0475C55.5276 45.086 55.7425 45.1105 55.9583 45.1209C56.1695 45.1228 56.3807 45.1105 56.5903 45.0842C57.0333 45.0362 57.4735 44.9657 57.9164 44.9121C58.8137 44.802 59.7053 44.6948 60.6082 44.6497C60.6449 44.644 60.6449 44.5763 60.6026 44.5763Z" fill="#263238"/>
<path d="M62.6626 45.6317C61.9517 45.4622 61.2321 45.3322 60.5069 45.2423C60.1429 45.2 59.7817 45.1774 59.4149 45.1661C59.24 45.1661 59.0679 45.1661 58.8929 45.1661C58.718 45.1661 58.5064 45.1887 58.3286 45.1859C58.3089 45.1859 58.3061 45.2169 58.3286 45.2169C58.5092 45.2169 58.6898 45.2649 58.8704 45.2846L59.4121 45.341C59.7761 45.3805 60.1373 45.4229 60.5012 45.4567C61.2264 45.5273 61.9487 45.6063 62.6738 45.7022C62.6964 45.705 62.6992 45.6401 62.6626 45.6317Z" fill="#263238"/>
<path d="M68.5875 37.0824C67.6915 37.1805 66.8046 37.3494 65.9352 37.5874L65.718 37.6467C64.2197 38.0558 62.7328 38.5975 61.2655 39.0575C59.3215 39.6387 57.2505 40.124 55.2189 39.7177C54.6157 39.5881 54.0254 39.4039 53.4555 39.1675L53.4921 39.0998C54.0534 39.3397 54.6351 39.5286 55.2302 39.6641C58.6754 40.3102 62.1148 38.6173 65.5967 37.6043L65.8083 37.5423C66.7029 37.2806 67.6172 37.0918 68.5424 36.978C68.5565 37.0034 68.5706 37.0429 68.5875 37.0824ZM69.1518 38.5975C68.4196 38.5012 67.7028 38.3116 67.0187 38.0332C66.6501 37.8991 66.2885 37.7466 65.9352 37.5761L65.8083 37.5141C62.8005 36.0271 61.4631 33.7981 57.8486 32.6271L57.7386 32.7597C58.2307 32.9223 58.7138 33.1106 59.1861 33.324C61.068 34.1564 62.5437 35.6151 64.2282 36.7692C64.665 37.0672 65.1223 37.334 65.5967 37.5677C65.6357 37.5902 65.6762 37.61 65.718 37.6269C66.5893 38.049 67.5069 38.3681 68.4521 38.5778C68.7004 38.6342 68.9515 38.6765 69.1998 38.7104C69.1829 38.6878 69.1659 38.6511 69.1518 38.5975ZM67.4589 48.8483L67.394 48.7975C65.8661 47.5005 64.0309 46.6174 62.0641 46.2327C60.0184 45.8998 57.9671 46.4612 56.0457 47.113C55.123 47.4319 54.1947 47.7874 53.2608 48.1231L53.241 48.2078C56.1783 47.1187 59.0817 45.849 62.0528 46.2948C63.9909 46.6823 65.7988 47.5562 67.3065 48.8342L67.3686 48.885C69.2732 50.4425 70.8899 52.443 72.4869 54.3334L72.6844 54.3503C71.0479 52.4599 69.3973 50.4255 67.4561 48.8483H67.4589ZM71.7392 46.7801C70.2116 47.2669 68.7517 47.9447 67.394 48.7975L67.3065 48.8483C64.5386 50.4792 61.8496 52.3414 58.7685 52.4401C56.5366 52.4401 54.5502 51.7037 52.7106 50.6287L52.688 50.7303C54.5389 51.794 56.5338 52.5135 58.7685 52.505C60.8395 52.4627 62.7582 51.5429 64.5329 50.5553C65.4753 50.0249 66.4149 49.4465 67.3686 48.8991L67.4589 48.8483C68.8128 48.0278 70.2615 47.375 71.7731 46.9042L71.7392 46.7801Z" fill="white"/>
<path d="M66.0452 32.3336C72.5659 38.589 80.8049 50.7471 79.3913 53.5292C77.8168 56.6329 68.8414 48.1682 68.8612 47.6349C68.8753 47.2371 65.5515 39.9518 63.0318 34.0406C60.5122 28.1294 64.4341 30.7845 66.0452 32.3336Z" fill="#EB9481"/>
<path d="M68.8023 47.6463C68.5201 46.7772 63.9915 36.9017 62.6879 33.5102C61.3844 30.1187 62.4763 29.0239 66.0174 32.0684C69.5584 35.1129 77.2134 44.029 79.0925 49.5621C80.904 54.8751 78.3307 55.4648 74.6203 53.0947C71.5843 51.1394 68.8023 47.6463 68.8023 47.6463Z" fill="#614378"/>
<path d="M70.8734 37.0851C69.2171 36.8932 67.5693 37.1556 65.9356 37.5873L65.7184 37.6466C65.3346 37.751 64.9509 37.8639 64.57 37.9852C64.5585 37.9622 64.5481 37.9387 64.539 37.9146C64.8917 37.799 65.2444 37.6889 65.5971 37.5873L65.8087 37.5253C67.4452 37.0654 69.093 36.7663 70.7549 36.961L70.8734 37.0851ZM72.1092 38.5523C70.4013 38.8401 68.6475 38.6647 67.0304 38.0444C66.6618 37.9104 66.3002 37.7578 65.9469 37.5873L65.82 37.5253C65.1373 37.1831 64.4842 36.7848 63.8674 36.3346C63.9041 36.4249 63.9436 36.5151 63.9831 36.6167L64.2399 36.7973C64.6767 37.0953 65.134 37.3622 65.6083 37.5958C65.6474 37.6184 65.6879 37.6382 65.7297 37.6551C66.601 38.0771 67.5186 38.3962 68.4638 38.6059C69.6965 38.8647 70.9673 38.8857 72.208 38.668L72.1092 38.5523ZM77.9386 46.9578C76.7608 46.597 75.5362 46.4125 74.3044 46.4104C72.4111 46.4104 70.6787 47.0396 69.0083 47.8973L69.0732 47.9763C71.1696 46.9324 73.3677 46.2354 75.8224 46.6417C76.5773 46.743 77.3209 46.9159 78.043 47.1581L77.9386 46.9578Z" fill="white"/>
<path d="M69.3806 49.0345C68.9969 48.0159 68.5962 47.0029 68.1956 45.9928C67.7949 44.9827 67.3773 43.9782 66.971 42.9709L65.7098 39.9603L65.0693 38.4592C64.8492 37.9626 64.6348 37.4632 64.4119 36.9666C64.6009 37.4773 64.8012 37.9824 64.9959 38.4903L65.5969 40.0054L66.8215 43.0302C67.2419 44.0346 67.6679 45.0391 68.0827 46.0408C68.4975 47.0424 68.9348 48.0413 69.3806 49.0345Z" fill="#263238"/>
<path d="M65.3345 39.3169C65.2035 39.0621 65.0545 38.817 64.8887 38.5833C64.8069 38.4676 64.7222 38.3519 64.6347 38.2391C64.5473 38.1262 64.457 38.0162 64.3667 37.9033C64.478 38.1682 64.6201 38.4192 64.7899 38.651C64.9525 38.8878 65.1347 39.1105 65.3345 39.3169Z" fill="#263238"/>
<path d="M79.3294 53.7691C77.5941 55.6878 73.9684 55.7273 63.7261 56.4299C62.3153 56.5286 58.6473 46.5233 60.1568 46.3399C62.0529 46.1114 69.468 45.6345 70.0125 45.6684C74.623 45.9506 80.5031 52.4768 79.3294 53.7691Z" fill="#EB9481"/>
<path d="M63.5908 46.5825C63.5908 46.5825 59.7789 45.8828 57.2621 45.5442C55.8513 45.3551 53.4247 45.2451 52.33 45.5781C50.6934 46.0746 44.1643 49.2009 44.8895 50.8008C45.5441 52.2482 50.8148 48.8511 50.8148 48.8511C50.8148 48.8511 45.197 51.8081 46.3003 53.4079C47.4035 55.0077 52.8519 50.3747 52.8519 50.3747C52.8519 50.3747 47.1496 53.5433 48.5519 55.0162C49.6156 56.1251 54.7791 52.2087 54.7791 52.2087C54.7791 52.2087 49.8949 54.9682 50.9361 56.1589C52.0901 57.471 57.0843 54.1556 57.0843 54.1556C60.2557 56.7091 62.7951 56.6499 64.6094 56.3846C65.0524 56.3198 63.5908 46.5825 63.5908 46.5825Z" fill="#EB9481"/>
<path d="M52.6911 47.7026C52.0167 48.0271 51.3339 48.3488 50.6934 48.7325C50.0529 49.1162 49.4209 49.5197 48.8199 49.9599C48.019 50.5178 47.286 51.1674 46.636 51.8955C47.8859 50.6907 50.1629 49.2855 50.8034 48.9046C51.4439 48.5237 52.0647 48.1089 52.7052 47.7252C52.7221 47.7168 52.7052 47.6942 52.6911 47.7026Z" fill="#263238"/>
<path d="M54.1132 49.9937C53.2667 50.4452 52.4202 50.86 51.5992 51.3481C50.7781 51.8362 50.0473 52.3667 49.2657 52.9056C49.2065 52.9479 49.2488 52.9677 49.3109 52.9282C50.1122 52.4175 50.8938 52.0112 51.7036 51.5174C52.5134 51.0236 53.3006 50.4875 54.1245 50.0191C54.1386 50.005 54.1245 49.9881 54.1132 49.9937Z" fill="#263238"/>
<path d="M55.6878 51.7403C54.3815 52.4009 53.1467 53.1942 52.0028 54.1076C51.9436 54.1499 52.0028 54.1669 52.0621 54.1274C53.2725 53.3176 54.2177 52.6743 55.7104 51.7883C55.7414 51.7742 55.716 51.729 55.6878 51.7403Z" fill="#263238"/>
<path d="M61.3276 46.0267L68.8556 56.8643C68.8556 56.8643 77.8507 55.8965 79.4393 53.7916C80.4832 52.4062 74.6878 45.5668 69.5638 45.6401L61.3276 46.0267Z" fill="#614378"/>
<path d="M74.1264 55.9924L73.9628 56.0291L73.6806 55.73C71.6717 53.4727 69.7304 50.843 67.3631 48.899L67.3011 48.8482C65.7933 47.5702 63.9855 46.6963 62.0473 46.3088C61.8526 46.2806 61.6608 46.258 61.4661 46.2439L61.4153 46.1705C61.6297 46.1875 61.8442 46.2129 62.0586 46.2467C64.0262 46.6302 65.8624 47.5123 67.3914 48.8087L67.4563 48.8595C69.8348 50.7923 71.7817 53.4135 73.7935 55.6312L74.1264 55.9924ZM73.0401 46.5007C71.034 46.7828 69.1943 47.7393 67.397 48.7974L67.3095 48.8482C66.3558 49.4125 65.4163 49.9966 64.4626 50.5411L64.4936 50.5891L64.5359 50.5665C65.4783 50.0361 66.4179 49.4577 67.3716 48.9103L67.4619 48.8595C69.3016 47.807 71.1977 46.8844 73.2518 46.6022C73.1784 46.5656 73.1107 46.5317 73.0401 46.5007Z" fill="white"/>
<path d="M75.371 47.9764C74.6345 47.2879 72.5212 45.6317 69.5642 45.6317C69.5388 45.6317 69.5331 45.674 69.5642 45.6768C71.7678 45.8884 74.5866 47.4093 75.354 48.0103C75.3681 48.0272 75.3907 47.9962 75.371 47.9764Z" fill="#263238"/>
<path d="M71.4519 55.5325C70.6873 54.2966 69.8606 53.1031 69.0282 51.9096C68.1958 50.716 67.3635 49.5225 66.4888 48.3516C66.0007 47.6885 65.5182 47.0254 65.0075 46.3765C64.9934 46.3596 64.9623 46.3765 64.9736 46.3962C65.7354 47.6321 66.5622 48.8312 67.386 50.0248C68.2099 51.2183 69.048 52.4146 69.8973 53.5969C70.3769 54.2628 70.8679 54.923 71.3786 55.572C71.4153 55.603 71.4745 55.5804 71.4519 55.5325Z" fill="#263238"/>
<path d="M61.3278 45.8968C61.8876 45.8029 62.4533 45.7473 63.0207 45.7304C63.585 45.6937 64.1493 45.6711 64.7136 45.6514C65.8423 45.6119 68.218 45.4003 70.2552 45.6514C70.2778 45.6514 70.148 45.7501 70.1254 45.7445C69.1633 45.5695 62.0388 46.0831 61.4632 46.052C61.4838 46.0915 61.4999 46.1331 61.5112 46.1762C61.5112 46.2044 61.4858 46.2383 61.4576 46.2129C61.4294 46.1875 61.3503 46.0915 61.2883 46.0295C61.2792 46.0191 61.2729 46.0065 61.2699 45.993C61.267 45.9795 61.2675 45.9655 61.2715 45.9523C61.2754 45.939 61.2826 45.927 61.2925 45.9173C61.3023 45.9076 61.3145 45.9006 61.3278 45.8968Z" fill="#263238"/>
<path d="M78.0316 54.9372C77.6661 55.0888 77.2886 55.2096 76.903 55.2984C76.5249 55.3971 76.144 55.4761 75.7602 55.5579C74.9956 55.7131 74.2281 55.857 73.4606 55.9953C71.9229 56.2774 70.3795 56.5342 68.8389 56.8418H68.8728L68.2605 56.1251L68.8248 56.8869V56.901H68.8474C69.629 56.853 70.4105 56.7684 71.1893 56.6696C71.968 56.5709 72.7411 56.4467 73.5143 56.3028C74.2874 56.1589 75.0548 55.9953 75.8138 55.7893C76.1947 55.6877 76.5728 55.572 76.9425 55.4394C77.3238 55.315 77.6893 55.1465 78.0316 54.9372Z" fill="#263238"/>
<path d="M63.4499 31.5577C63.3624 31.9386 61.5792 34.4046 59.8524 34.3369C59.2881 34.3143 59.2881 31.2332 59.2881 31.2332L59.2345 31.0046L58.498 27.8276L62.2169 25.401L62.7558 25.0793C62.7558 25.0793 62.8997 25.9625 63.069 27.0544C63.069 27.1052 63.0831 27.156 63.0916 27.2096C63.1 27.2632 63.1141 27.331 63.1226 27.3874C63.1508 27.5539 63.1762 27.7203 63.2016 27.8868C63.227 28.0533 63.2383 28.1379 63.2524 28.2734C63.2665 28.4088 63.2834 28.5386 63.3032 28.674C63.4181 29.6307 63.4672 30.5942 63.4499 31.5577Z" fill="#EB9481"/>
<path d="M63.0575 27.0826C62.7441 27.9802 62.2386 28.7987 61.5763 29.481C60.9141 30.1632 60.111 30.6928 59.223 31.0328L58.4866 27.8557L62.2054 25.4291L62.7443 25.1075C62.7443 25.1075 62.8882 25.9681 63.0575 27.0826Z" fill="#263238"/>
<path d="M58.2975 31.71C58.2975 31.71 56.7231 36.1709 58.4555 36.9271C60.188 37.6832 65.3345 31.5068 65.3345 31.5068C65.3345 31.5068 62.4706 28.2874 58.2975 31.71Z" fill="#EB9481"/>
<path d="M63.856 26.2898C63.9476 26.4514 64.0052 26.63 64.0253 26.8146C64.1128 27.6611 63.5936 28.3919 63.0208 28.9393C62.4481 29.4867 61.6101 30.0115 61.2179 30.7846C61.0461 31.0823 60.9889 31.4324 61.057 31.7693C61.1162 31.9452 61.2123 32.1064 61.3388 32.2421C61.4653 32.3779 61.6194 32.4851 61.7906 32.5565C62.1377 32.7371 62.5891 32.8754 62.7754 33.2534C62.838 33.4139 62.8622 33.5868 62.8461 33.7583C62.8299 33.9298 62.7738 34.0951 62.6823 34.241C62.2647 35.0056 61.2997 35.2511 60.6507 35.7646C59.9533 36.3162 59.439 37.0656 59.175 37.9147C58.9965 38.5075 58.9466 39.1316 59.0289 39.7452C59.1111 40.3588 59.3235 40.9478 59.6519 41.4727C59.8945 41.8508 60.2162 42.1724 60.4786 42.5392C60.6135 42.704 60.7133 42.8946 60.772 43.0994C60.8308 43.3041 60.8471 43.5187 60.82 43.7299C60.7438 44.06 59.8663 44.9488 58.3511 45.1633C58.2411 45.1802 58.2778 45.3749 58.3907 45.3975C58.6118 45.4485 58.8362 45.4843 59.0622 45.5047C59.9925 45.5955 60.931 45.4637 61.8004 45.1203C62.6697 44.7769 63.4449 44.2317 64.062 43.5296C64.7185 42.7699 65.1796 41.8614 65.4051 40.883C65.4992 40.3319 65.6408 39.79 65.8283 39.2634C66.0257 38.8126 66.3298 38.4165 66.7143 38.1094C67.4338 37.5027 68.2915 37.0767 68.9095 36.3459C69.4519 35.6851 69.8213 34.8996 69.9845 34.0604C70.1512 33.198 70.1301 32.3098 69.9227 31.4563C69.7152 30.6028 69.3264 29.8039 68.7825 29.1142C67.7159 27.7486 63.8109 26.1967 63.856 26.2898Z" fill="#263238"/>
<path d="M63.8841 26.3406C64.0343 26.6745 64.1057 27.0384 64.0929 27.4043C64.0617 27.7359 63.9472 28.0543 63.76 28.3298C63.3537 28.9505 62.7329 29.3512 62.1319 29.7659C61.5309 30.1807 61.0033 30.5955 60.7437 31.2614C60.6305 31.5452 60.6001 31.8554 60.6562 32.1558C60.7355 32.4776 60.9382 32.7554 61.2206 32.9289C61.7341 33.2703 62.4874 33.5355 62.5664 34.2438C62.6454 34.952 61.9824 35.4373 61.5083 35.8069C60.3515 36.7126 58.715 37.7143 58.7573 39.3931C58.8293 40.2621 59.1089 41.1011 59.5728 41.8394C59.8747 42.3642 60.2584 43.0245 60.0242 43.6424C60.0242 43.665 59.9819 43.6424 59.9903 43.6255C60.2302 42.968 59.7279 42.3727 59.3978 41.8479C58.9952 41.2306 58.7146 40.542 58.5711 39.8192C58.4495 39.0941 58.6177 38.3503 59.0395 37.7481C59.4809 37.1388 60.024 36.61 60.6449 36.185C60.9525 35.9564 61.2685 35.7307 61.5704 35.4937C61.8581 35.2902 62.0979 35.0264 62.273 34.7206C62.3525 34.5644 62.3794 34.3867 62.35 34.2138C62.3205 34.041 62.2361 33.8823 62.1093 33.7613C61.8398 33.524 61.5411 33.3221 61.2206 33.1603C60.942 33.0022 60.7141 32.7684 60.5631 32.4859C60.4563 32.2481 60.4135 31.9864 60.439 31.7269C60.5024 31.1375 60.7855 30.5935 61.2318 30.2033C61.8413 29.639 62.62 29.2863 63.2069 28.7107C63.5467 28.4371 63.7864 28.0586 63.8885 27.6344C63.9906 27.2103 63.9494 26.7642 63.7712 26.366C63.7696 26.3585 63.7694 26.3509 63.7707 26.3434C63.772 26.3359 63.7747 26.3287 63.7788 26.3223C63.787 26.3094 63.8 26.3002 63.815 26.2968C63.8299 26.2935 63.8456 26.2962 63.8586 26.3044C63.8716 26.3126 63.8807 26.3256 63.8841 26.3406Z" fill="#263238"/>
<path d="M69.5499 29.2779C70.6786 30.6661 70.8168 32.6158 70.1622 34.2382C69.7907 35.1392 69.2105 35.939 68.4693 36.5717C67.7808 37.1698 66.9964 37.7003 66.4462 38.4254C65.8368 39.2437 65.786 40.2482 65.5997 41.2132C65.4418 41.9913 65.1185 42.7265 64.6517 43.3688C63.734 44.624 62.3561 45.4641 60.82 45.7051C60.6274 45.7338 60.4334 45.7526 60.2388 45.7615C60.2134 45.7615 60.2134 45.7248 60.2388 45.7248C61.0051 45.6633 61.7508 45.4459 62.43 45.0859C63.1093 44.7259 63.7079 44.2309 64.189 43.6312C64.6702 43.052 65.0266 42.3796 65.2358 41.6561C65.4897 40.7645 65.4784 39.808 65.8537 38.9446C66.2036 38.1405 66.892 37.5564 67.5636 37.0203C68.3 36.4362 69.0195 35.855 69.5387 35.0452C70.021 34.3081 70.3011 33.457 70.3506 32.5774C70.4001 31.6979 70.2174 30.8207 69.8208 30.0341C68.8728 28.2735 66.9767 27.4185 65.1596 26.8486L64.4288 26.6228C64.4006 26.6228 64.409 26.572 64.4288 26.5805C66.2769 27.0602 68.2859 27.7063 69.5499 29.2779Z" fill="#263238"/>
<path d="M64.0339 25.26C64.1823 25.2664 64.3264 25.3118 64.4517 25.3916C64.577 25.4713 64.6791 25.5826 64.7478 25.7143C64.7873 25.9146 64.0678 27.3141 63.6897 27.4072C63.3116 27.5003 63.0266 26.8429 63.0266 26.8429L64.0339 25.26Z" fill="#614378"/>
<path d="M53.9185 22.7827C53.2159 28.4625 56.5397 29.5234 57.7643 29.6729C58.876 29.8084 62.6795 30.1328 63.9717 24.5546C65.264 18.9764 62.8431 16.8574 60.3037 16.4116C57.7643 15.9658 54.6126 17.1029 53.9185 22.7827Z" fill="#EB9481"/>
<path d="M54.6127 22.176C54.7463 22.1624 54.8791 22.1417 55.0105 22.1139C55.152 22.1121 55.2889 22.0635 55.3999 21.9757C55.4301 21.9415 55.4479 21.8981 55.4505 21.8526C55.453 21.807 55.4402 21.7619 55.414 21.7245C55.3518 21.658 55.273 21.6094 55.1857 21.5836C55.0983 21.5578 55.0057 21.5558 54.9174 21.5778C54.7316 21.5951 54.5587 21.6806 54.4321 21.8177C54.4054 21.8506 54.3888 21.8905 54.3843 21.9327C54.3798 21.9748 54.3875 22.0173 54.4066 22.0552C54.4257 22.093 54.4553 22.1245 54.4918 22.146C54.5284 22.1674 54.5703 22.1778 54.6127 22.176Z" fill="#263238"/>
<path d="M58.563 22.2859C58.4321 22.2616 58.3029 22.2286 58.1764 22.1871C58.0342 22.1712 57.9013 22.1087 57.7983 22.0094C57.7711 21.9732 57.7563 21.9291 57.7563 21.8838C57.7563 21.8385 57.7711 21.7945 57.7983 21.7583C57.8672 21.6983 57.9509 21.6578 58.0406 21.6409C58.1304 21.6241 58.2231 21.6315 58.309 21.6623C58.4922 21.6956 58.6563 21.7963 58.7689 21.9445C58.7922 21.9793 58.8052 22.0199 58.8062 22.0618C58.8072 22.1036 58.7962 22.1449 58.7746 22.1807C58.753 22.2166 58.7216 22.2455 58.6841 22.2641C58.6466 22.2828 58.6046 22.2903 58.563 22.2859Z" fill="#263238"/>
<path d="M57.5666 23.6658C57.5666 23.6658 57.5976 23.6856 57.5948 23.7025C57.5553 24.0947 57.5779 24.549 57.9249 24.707C57.9249 24.707 57.9249 24.7324 57.9249 24.7296C57.4904 24.6365 57.4678 24.0326 57.5666 23.6658Z" fill="#263238"/>
<path d="M57.9477 23.2764C58.5854 23.2764 58.5487 24.5461 57.9477 24.5518C57.3467 24.5574 57.4144 23.2821 57.9477 23.2764Z" fill="#263238"/>
<path d="M58.196 23.3525C58.306 23.4287 58.4104 23.5585 58.543 23.5754C58.6757 23.5923 58.8252 23.4654 58.924 23.3384C58.924 23.3384 58.9465 23.3384 58.9465 23.3553C58.9465 23.598 58.8421 23.8463 58.5797 23.8745C58.3173 23.9027 58.1734 23.6798 58.1198 23.4343C58.1113 23.3892 58.1508 23.3215 58.196 23.3525Z" fill="#263238"/>
<path d="M55.3941 23.5811C55.3941 23.5811 55.3631 23.598 55.3631 23.6149C55.3631 24.0099 55.2982 24.4614 54.937 24.5827C54.937 24.5827 54.937 24.6081 54.937 24.6053C55.3772 24.5573 55.459 23.9563 55.3941 23.5811Z" fill="#263238"/>
<path d="M55.0525 23.1579C54.4205 23.093 54.333 24.3627 54.9199 24.4248C55.5068 24.4869 55.583 23.2143 55.0525 23.1579Z" fill="#263238"/>
<path d="M54.782 23.2256C54.6776 23.2849 54.5704 23.4005 54.4491 23.4005C54.3278 23.4005 54.2149 23.2538 54.1359 23.1184H54.1162C54.0936 23.361 54.1557 23.6206 54.3842 23.6827C54.6127 23.7448 54.7651 23.5416 54.8413 23.3046C54.8554 23.2707 54.8244 23.2002 54.782 23.2256Z" fill="#263238"/>
<path d="M56.023 25.4433C55.9763 25.7302 55.9443 26.0193 55.9271 26.3095C55.9271 26.3349 55.992 26.349 56.0879 26.3547C56.3257 26.4016 56.5717 26.3822 56.7992 26.2986C57.0266 26.2149 57.2266 26.0704 57.3774 25.8807C57.3815 25.8752 57.3834 25.8685 57.383 25.8617C57.3825 25.8549 57.3796 25.8486 57.3748 25.8438C57.37 25.839 57.3636 25.8361 57.3568 25.8356C57.35 25.8351 57.3433 25.8371 57.3379 25.8411C56.9794 26.0783 56.5538 26.1931 56.1246 26.1684C56.1077 26.0894 56.3137 25.1668 56.2713 25.1612C56.0549 25.1782 55.8416 25.2228 55.6365 25.2938C55.7917 24.0636 56.1415 22.8672 56.277 21.6398C56.2768 21.6312 56.2739 21.6229 56.2687 21.6162C56.2634 21.6094 56.256 21.6045 56.2478 21.6023C56.2395 21.6 56.2307 21.6006 56.2227 21.6038C56.2147 21.607 56.208 21.6127 56.2036 21.6201C55.7493 22.8475 55.5405 24.2611 55.3571 25.528C55.3205 25.6888 55.8961 25.4885 56.023 25.4433Z" fill="#263238"/>
<path d="M56.1165 26.2361C56.2636 26.4729 56.4697 26.6673 56.7146 26.8004C56.8489 26.8676 57.0011 26.8903 57.1491 26.8653C57.4736 26.8117 57.5075 26.5211 57.4708 26.2671C57.4507 26.1317 57.4147 25.9991 57.3636 25.8721C56.9972 26.123 56.5603 26.2505 56.1165 26.2361Z" fill="#263238"/>
<path d="M56.7146 26.7779C56.8489 26.845 57.0011 26.8678 57.1491 26.8428C57.4736 26.7892 57.5075 26.4985 57.4708 26.2446C57.3032 26.2357 57.1375 26.2835 57.0003 26.3802C56.8631 26.477 56.7625 26.617 56.7146 26.7779Z" fill="#FF9BBC"/>
<path d="M63.5541 24.4982C62.496 24.6562 62.1687 22.2409 62.1687 22.2409C62.1687 22.2409 57.6373 21.5779 57.1718 17.9127C56.6374 19.4219 55.5406 20.6663 54.1104 21.386C54.1104 21.386 54.1752 17.354 57.3523 16.499C57.3523 16.499 61.2828 14.9641 63.5852 18.0594C65.8876 21.1546 64.2623 24.391 63.5541 24.4982Z" fill="#263238"/>
<path d="M57.152 17.6361C57.1119 18.2045 57.1937 18.775 57.3918 19.3093C57.5823 19.8536 57.884 20.3523 58.2778 20.7737C58.3754 20.874 58.479 20.9682 58.5882 21.0558L58.749 21.2025L58.9239 21.3267C59.0424 21.4057 59.1581 21.4932 59.2794 21.5665C59.4008 21.6399 59.5334 21.6991 59.6632 21.7612C59.7253 21.7922 59.7901 21.8261 59.855 21.8543L60.0554 21.9277L60.456 22.0716C60.7382 22.1393 61.0062 22.1957 61.2828 22.2465C61.0204 22.1393 60.7523 22.0603 60.4984 21.9644L60.1203 21.7894L59.9312 21.7048C59.8692 21.6709 59.8127 21.6342 59.7535 21.5976C59.635 21.527 59.5193 21.4565 59.398 21.3888C59.2766 21.321 59.1807 21.2251 59.0707 21.1433L58.907 21.022L58.7575 20.8837C58.6588 20.7944 58.5646 20.7002 58.4753 20.6015C58.1026 20.2014 57.801 19.7405 57.5837 19.2387C57.4694 18.9869 57.3751 18.7265 57.3015 18.46C57.2288 18.19 57.1787 17.9144 57.152 17.6361Z" fill="#263238"/>
<path d="M58.1562 26.1432C57.6488 26.0324 57.2063 25.7246 56.9258 25.2876C56.6454 24.8505 56.55 24.3199 56.6608 23.8126C56.7391 23.4543 56.9165 23.1253 57.1728 22.863C57.429 22.6006 57.7537 22.4155 58.11 22.3287C58.4662 22.2418 58.8397 22.2568 59.1879 22.3718C59.5361 22.4868 59.845 22.6973 60.0794 22.9793C60.3139 23.2613 60.4644 23.6034 60.5139 23.9668C60.5634 24.3301 60.5099 24.7001 60.3595 25.0345C60.209 25.3689 59.9677 25.6544 59.663 25.8584C59.3583 26.0623 59.0024 26.1767 58.6359 26.1883C58.4747 26.194 58.3135 26.1788 58.1562 26.1432ZM56.9175 23.869C56.8468 24.1959 56.8745 24.5365 56.9972 24.8477C57.1198 25.1589 57.3319 25.4268 57.6067 25.6175C57.8815 25.8083 58.2066 25.9134 58.541 25.9196C58.8755 25.9257 59.2043 25.8327 59.4859 25.6521C59.7675 25.4716 59.9893 25.2117 60.1233 24.9052C60.2573 24.5988 60.2976 24.2594 60.2389 23.9301C60.1803 23.6008 60.0254 23.2962 59.7938 23.0549C59.5623 22.8135 59.2644 22.6461 58.9378 22.5739C58.7998 22.5436 58.6585 22.5313 58.5173 22.5372C58.1405 22.5493 57.7784 22.6869 57.4886 22.9282C57.1987 23.1694 56.9978 23.5005 56.9175 23.869Z" fill="#455A64"/>
<path d="M54.048 25.7875C53.2467 25.7198 52.6683 24.7915 52.7586 23.7165C52.7902 23.2287 52.9737 22.763 53.2834 22.3847C53.4069 22.2148 53.5721 22.0797 53.7632 21.9923C53.9542 21.9049 54.1645 21.8682 54.3738 21.8858C54.5831 21.9033 54.7844 21.9746 54.9581 22.0926C55.1319 22.2107 55.2722 22.3715 55.3657 22.5597C55.611 22.9868 55.7148 23.4807 55.6619 23.9704C55.5773 24.9862 54.9255 25.7763 54.175 25.8016C54.1324 25.7998 54.09 25.7951 54.048 25.7875ZM53.4837 22.5681C53.2112 22.9039 53.0495 23.316 53.021 23.7475C52.9448 24.6815 53.416 25.4828 54.0706 25.5392C54.7252 25.5957 55.3262 24.879 55.4052 23.9479C55.4496 23.5168 55.3578 23.0826 55.1428 22.7064C55.0648 22.5584 54.9522 22.4314 54.8147 22.3361C54.6772 22.2408 54.5187 22.1801 54.3527 22.159C54.3199 22.1561 54.2868 22.1561 54.254 22.159C54.1042 22.1698 53.9583 22.2117 53.8256 22.2822C53.693 22.3526 53.5765 22.45 53.4837 22.5681Z" fill="#455A64"/>
<path d="M56.709 24.0439L56.8924 23.8577C56.6103 23.5755 55.9613 23.1946 55.4421 23.663L55.6171 23.8577C56.0826 23.4344 56.6836 24.0185 56.709 24.0439Z" fill="#455A64"/>
<path d="M64.9224 25.2543L65.1651 25.1527C65.1171 25.0398 64.691 24.0466 64.1155 23.9055C63.5399 23.7645 60.4926 23.8265 60.343 23.8294V24.0889C61.3531 24.0889 63.6358 24.0551 64.0506 24.1595C64.4653 24.2639 64.8096 24.9806 64.9224 25.2543Z" fill="#455A64"/>
<path d="M62.6145 24.5883C62.6145 24.5883 63.9266 22.8503 64.7194 23.3243C65.5123 23.7983 64.4824 26.3518 63.5174 26.6707C63.3967 26.7204 63.2672 26.7451 63.1367 26.7435C63.0062 26.7419 62.8774 26.7139 62.758 26.6611C62.6386 26.6084 62.5311 26.5321 62.4419 26.4368C62.3528 26.3414 62.2838 26.229 62.2393 26.1063L62.6145 24.5883Z" fill="#EB9481"/>
<path d="M64.4063 24.0495C64.4204 24.0495 64.4233 24.0692 64.4063 24.0749C63.732 24.3204 63.3567 24.9214 63.0887 25.5562C63.1302 25.4912 63.1852 25.4359 63.25 25.3941C63.3148 25.3523 63.3879 25.325 63.4642 25.314C63.5406 25.303 63.6184 25.3087 63.6923 25.3305C63.7663 25.3523 63.8347 25.3899 63.8928 25.4405C63.9097 25.4405 63.8928 25.48 63.8731 25.4772C63.7573 25.4345 63.631 25.4293 63.512 25.4622C63.3931 25.4951 63.2874 25.5645 63.21 25.6606C63.0816 25.8208 62.97 25.9939 62.8771 26.177C62.8432 26.2362 62.7388 26.1995 62.7642 26.1318C62.7952 25.2656 63.4893 24.1003 64.4063 24.0495Z" fill="#263238"/>
<path d="M10.8022 31.0525H9.30396V114.128H10.8022V31.0525Z" fill="#263238"/>
<path d="M35.5795 4.6163L0 40.1958L1.05942 41.2552L36.6389 5.67572L35.5795 4.6163Z" fill="#263238"/>
<path d="M1.93701 114.125V115.623H18.1695V114.125H1.93701Z" fill="#263238"/>
<path d="M36.7915 10.1334L41.8083 5.4214L37.085 1.58408L33.3267 5.11668L36.7915 10.1334Z" fill="#614378"/>
<path opacity="0.1" d="M41.8082 5.41855L36.7915 10.1334L35.4146 8.13854L39.7146 3.71997L41.8082 5.41855Z" fill="black"/>
<path d="M36.2723 18.0057L49.8158 5.2804L43.346 1.79858L33.1968 11.3327L36.2723 18.0057Z" fill="#614378"/>
<path d="M104.87 90.5143C104.541 91.7144 104.324 92.9423 104.221 94.1824C104.252 94.2416 104.247 94.4645 104.221 94.4081C104.221 94.6112 103.905 94.5746 103.905 94.3742C103.905 94.2444 103.905 94.1146 103.905 93.9877C103.186 93.0961 102.142 92.5317 101.298 91.7558C100.621 91.1455 100.127 90.3592 99.8704 89.4844C99.1707 87.072 99.8281 84.5185 98.9873 82.1117C98.2621 80.0378 96.9586 78.2377 95.8582 76.3585C94.6957 74.3834 93.8379 72.2842 93.7533 69.9564C93.6856 68.1732 93.8972 65.8002 95.2544 64.4656C96.6934 63.0548 98.4766 64.1101 99.577 65.3742C102.771 69.0422 104.25 73.6696 104.848 78.407C105.175 81.0282 105.519 83.6636 105.44 86.3074C105.39 87.7251 105.199 89.1344 104.87 90.5143Z" fill="#614378"/>
<path d="M104.233 95.1557C104.408 92.6821 104.379 90.1982 104.145 87.7294C104.145 87.7294 104.159 87.7153 104.159 87.7012C104.199 85.695 104.36 83.6974 104.281 81.6856C104.182 79.5122 103.885 77.3523 103.395 75.2327C103.393 75.229 103.391 75.2259 103.387 75.2236C103.384 75.2214 103.38 75.2202 103.376 75.2202C103.372 75.2202 103.369 75.2214 103.365 75.2236C103.362 75.2259 103.359 75.229 103.358 75.2327C103.748 77.3143 103.981 79.4223 104.055 81.5389C104.096 82.6675 104.087 83.8018 104.027 84.9417C104.01 85.3085 103.973 85.6809 103.951 86.0534C103.116 80.4189 101.079 75.0301 97.9773 70.2526C97.935 70.1877 97.8193 70.2526 97.8616 70.3231C100.075 73.9561 101.714 77.9085 102.723 82.0411C101.185 79.197 98.8661 76.8551 97.1449 74.121C97.1449 74.1069 97.1111 74.121 97.1195 74.1379C98.6657 77.1824 101.219 79.5807 102.847 82.58C103.129 83.8018 103.361 85.0376 103.533 86.2791C103.763 87.9814 103.887 89.6966 103.903 91.4143C102.969 89.665 101.998 87.9918 101.233 86.1437C101.211 86.0957 101.14 86.1437 101.157 86.1775C101.809 88.099 102.684 90.1672 103.908 91.8206C103.908 93.0339 103.88 94.2528 103.807 95.4661C103.618 98.7081 103.062 101.908 102.808 105.138C102.806 105.158 102.811 105.177 102.823 105.193C102.835 105.208 102.853 105.218 102.873 105.22C102.892 105.223 102.912 105.217 102.927 105.205C102.942 105.193 102.952 105.175 102.955 105.155C103.608 101.855 104.035 98.5142 104.233 95.1557Z" fill="#263238"/>
<path d="M100.79 70.1538C100.79 70.1313 100.748 70.1538 100.756 70.1708C101.349 71.8073 101.682 73.4664 102.111 75.1452C102.115 75.1595 102.125 75.1717 102.137 75.1795C102.15 75.1874 102.165 75.1904 102.18 75.188C102.195 75.1856 102.208 75.1779 102.218 75.1665C102.227 75.155 102.232 75.1404 102.232 75.1254C102.057 73.4212 101.451 71.7226 100.79 70.1538Z" fill="#263238"/>
<path d="M115.841 77.0247C115.447 77.9854 114.993 78.9203 114.481 79.8237C113.414 81.7592 112.303 83.534 112.099 85.7884C112.012 86.7957 111.978 87.8059 111.67 88.7765C111.392 89.6108 110.99 90.3991 110.48 91.1156C109.326 92.8085 107.881 94.2503 106.812 95.9969C105.698 97.818 104.875 99.802 104.374 101.877C104.346 101.99 104.168 101.962 104.196 101.849C104.196 101.849 104.196 101.832 104.196 101.821C104.196 101.809 104.196 101.821 104.196 101.798C104.027 96.9647 104.413 92.0918 105.889 87.4588C106.538 85.4206 107.317 83.4263 108.223 81.4884C109.013 79.7954 109.997 78.1928 111.383 76.94C112.283 76.1274 114.235 74.5925 115.516 75.4051C116.123 75.7973 116.069 76.4124 115.841 77.0247Z" fill="#614378"/>
<path d="M110.968 87.9749C110.113 89.3792 109.17 90.7287 108.146 92.0153C107.678 92.6248 107.204 93.2314 106.735 93.8437C106.515 94.1259 106.267 94.408 106.064 94.7297C106.194 94.2218 106.318 93.7139 106.448 93.206C107.071 90.7626 107.669 88.2993 108.598 85.9518C109.549 83.6761 110.672 81.4756 111.955 79.3691C111.989 79.3126 111.899 79.2731 111.865 79.3268C110.844 81.0197 109.805 82.6844 108.948 84.4564C108.473 85.4452 108.06 86.4619 107.709 87.5008C108.103 85.2966 108.654 83.1232 109.357 80.9971C109.357 80.9774 109.337 80.9633 109.328 80.983C108.405 83.136 107.828 85.4215 107.619 87.7548C107.41 88.384 107.218 89.016 107.037 89.6565C106.276 92.3596 105.607 95.0937 104.986 97.839C104.976 96.0414 105.133 94.2468 105.454 92.4781C105.452 92.4711 105.448 92.465 105.442 92.4606C105.436 92.4562 105.429 92.4539 105.422 92.4539C105.415 92.4539 105.408 92.4562 105.402 92.4606C105.396 92.465 105.392 92.4711 105.39 92.4781C104.918 94.3272 104.761 96.2425 104.924 98.1438C104.689 99.1878 104.46 100.232 104.238 101.276C103.762 103.505 103.177 105.773 102.901 108.047C102.899 108.059 102.902 108.072 102.909 108.081C102.916 108.091 102.927 108.098 102.939 108.1C102.951 108.102 102.963 108.099 102.973 108.091C102.983 108.084 102.989 108.074 102.991 108.062C103.321 106.843 103.522 105.579 103.793 104.343C104.063 103.107 104.357 101.868 104.639 100.632C105.059 98.8351 105.5 97.0405 105.948 95.2488C106.247 94.5914 106.826 94.0074 107.26 93.4572C107.734 92.8533 108.211 92.2467 108.671 91.6316C109.54 90.4953 110.318 89.2924 110.999 88.0341C111.027 87.9692 110.985 87.9495 110.968 87.9749Z" fill="#263238"/>
<path d="M111.177 85.9098C110.112 87.2707 109.191 88.7371 108.426 90.286C108.426 90.3058 108.448 90.3255 108.459 90.3058C109.385 88.8583 110.293 87.3967 111.219 85.9436C111.233 85.9126 111.193 85.8872 111.177 85.9098Z" fill="#263238"/>
<path d="M90.5961 81.6013C91.2224 82.6791 91.9363 83.9742 91.6682 85.2693C91.499 86.0876 90.898 86.7535 90.7879 87.5915C90.5453 89.4368 92.3878 90.6585 93.7195 91.5417C97.0377 93.7199 101.592 95.6611 102.184 100.108C102.207 100.266 102.466 100.226 102.466 100.074C102.468 100.064 102.468 100.053 102.466 100.043C102.466 100.043 102.483 100.029 102.483 100.018C102.917 97.7715 102.896 95.4612 102.421 93.2233C101.925 90.9322 100.923 88.8725 99.7436 86.8579C97.7459 83.4494 95.6297 79.9591 92.6078 77.3492C91.7614 76.6269 90.0684 75.3261 89.3941 76.957C88.7536 78.5342 89.8286 80.2836 90.5961 81.6013Z" fill="#614378"/>
<path d="M93.6349 88.827C95.8357 91.2084 99.3345 92.543 101.228 95.2122C100.099 91.1238 98.2482 87.4444 95.3928 84.2504C95.3767 84.2343 95.3676 84.2125 95.3676 84.1898C95.3676 84.167 95.3767 84.1452 95.3928 84.1291C95.4089 84.113 95.4307 84.104 95.4534 84.104C95.4762 84.104 95.498 84.113 95.5141 84.1291C97.5401 86.0974 99.1602 88.4441 100.283 91.0363C99.76 89.2222 99.0725 87.4599 98.2284 85.7713C98.2209 85.7582 98.219 85.7426 98.2229 85.7281C98.2269 85.7135 98.2365 85.7011 98.2496 85.6937C98.2627 85.6862 98.2782 85.6842 98.2928 85.6882C98.3073 85.6921 98.3197 85.7017 98.3272 85.7148C99.3717 87.5542 100.118 89.5474 100.539 91.6204C103.036 97.6613 103.268 104.749 102.746 111.12C102.746 111.21 102.599 111.213 102.602 111.12C102.743 106.101 102.664 100.994 101.459 96.0897C101.434 95.9881 101.408 95.8866 101.38 95.785C99.3204 92.9126 95.8357 91.5809 93.5954 88.8524C93.5729 88.8383 93.6095 88.7988 93.6349 88.827Z" fill="#263238"/>
<path d="M93.1242 86.7788C94.2782 87.8397 95.4153 88.9232 96.575 89.9841C96.575 89.9841 96.575 90.0151 96.558 90.0067C95.2486 89.1226 94.069 88.0599 93.0537 86.8493C93.017 86.8014 93.0762 86.7365 93.1242 86.7788Z" fill="#263238"/>
<path d="M92.9407 82.1878C93.9627 83.8633 95.1186 85.4532 96.3972 86.9422C96.4141 86.9619 96.3972 86.9901 96.3689 86.9704C94.9348 85.6066 93.7532 83.9999 92.8787 82.2245C92.8757 82.2165 92.8757 82.2077 92.8786 82.1996C92.8815 82.1916 92.8871 82.1848 92.8945 82.1804C92.9018 82.1761 92.9105 82.1744 92.919 82.1758C92.9274 82.1771 92.9351 82.1814 92.9407 82.1878Z" fill="#263238"/>
<path d="M98.1438 115.623H108.262L106.899 102.007H99.7013L98.1438 115.623Z" fill="#455A64"/>
<path d="M99.4473 104.222H107.122L106.899 102.007H99.7012L99.4473 104.222Z" fill="#263238"/>
<path d="M98.4599 102.673H107.946V100.497H98.4599V102.673Z" fill="#455A64"/>
</svg>
