<svg width="32" height="39" viewBox="0 0 32 39" fill="none" xmlns="http://www.w3.org/2000/svg">
<path d="M10.6364 4.30438V0.728943H21.3626V4.30438H10.6364ZM12.29 24.6844L9.96599 20.3939H-0.000488281C0.446439 16.3715 2.18946 12.982 5.22856 10.2253C8.26767 7.46864 11.858 6.09091 15.9995 6.0921C17.8468 6.0921 19.6196 6.39005 21.3179 6.98596C23.0163 7.58187 24.6103 8.44593 26.1001 9.57815L28.6029 7.07535L31.1057 9.57815L28.6029 12.081C29.5563 13.3324 30.3161 14.6511 30.8822 16.0372C31.4483 17.4233 31.8207 18.8755 31.9995 20.3939H24.223L19.5749 11.9022L12.29 24.6844ZM15.9995 38.271C11.858 38.271 8.26767 36.8927 5.22856 34.1361C2.18946 31.3794 0.446439 27.9905 -0.000488281 23.9693H7.77605L12.4241 32.461L19.709 19.6788L22.033 23.9693H31.9995C31.5526 27.9917 29.8167 31.3812 26.7919 34.1378C23.7671 36.8945 20.1696 38.2722 15.9995 38.271Z" fill="#614378"/>
</svg>
