<svg width="48" height="49" viewBox="0 0 48 49" fill="none" xmlns="http://www.w3.org/2000/svg">
<path d="M38.869 19.4625C40.7831 17.5484 39.9103 15.3128 38.869 14.2256L34.2753 9.63181C32.3459 7.71775 30.1255 8.59056 29.0383 9.63181L26.4352 12.2503H22.4692C19.5598 12.2503 17.8754 13.7815 17.0179 15.5424L10.2191 22.3412V28.4662L9.13194 29.5381C7.21787 31.4675 8.09069 33.6878 9.13194 34.775L13.7257 39.3687C14.5526 40.1956 15.4407 40.5019 16.2829 40.5019C17.3701 40.5019 18.3654 39.9659 18.9626 39.3687L23.097 35.219H28.5943C31.1974 35.219 32.5143 33.5959 32.989 32.0034C34.7193 31.544 35.6687 30.2272 36.0515 28.9409C38.425 28.3284 39.3131 26.0775 39.3131 24.5003V19.9065H38.4097L38.869 19.4625ZM36.2506 24.5003C36.2506 25.1893 35.9596 26.0315 34.7193 26.0315H33.1881V27.5628C33.1881 28.2518 32.8971 29.094 31.6568 29.094H30.1255V30.6253C30.1255 31.3143 29.8346 32.1565 28.5943 32.1565H21.8414L16.8189 37.179C16.3442 37.6231 16.0686 37.3628 15.9001 37.1944L11.3216 32.6312C10.8776 32.1565 11.1379 31.8809 11.3063 31.7125L13.2817 29.7218V23.5968L16.3442 20.5343V22.969C16.3442 24.8218 17.5692 27.5628 20.938 27.5628C24.3067 27.5628 25.5318 24.8218 25.5318 22.969H36.2506V24.5003ZM36.6946 17.2881L34.0915 19.9065H22.4692V22.969C22.4692 23.6581 22.1783 24.5003 20.938 24.5003C19.6976 24.5003 19.4067 23.6581 19.4067 22.969V18.3753C19.4067 17.6709 19.667 15.3128 22.4692 15.3128H27.6908L31.1821 11.8215C31.6568 11.3774 31.9324 11.6378 32.1009 11.8062L36.6793 16.3693C37.1234 16.844 36.8631 17.1196 36.6946 17.2881Z" fill="#614378"/>
</svg>
