<svg width="48" height="49" viewBox="0 0 48 49" fill="none" xmlns="http://www.w3.org/2000/svg">
<path d="M28 26.5C26.9 26.5 25.958 26.108 25.174 25.324C24.39 24.54 23.9987 23.5987 24 22.5V12.5C24 11.4 24.392 10.458 25.176 9.674C25.96 8.89 26.9013 8.49867 28 8.5H32C33.1 8.5 34.042 8.892 34.826 9.676C35.61 10.46 36.0013 11.4013 36 12.5V22.5C36 23.6 35.608 24.542 34.824 25.326C34.04 26.11 33.0987 26.5013 32 26.5H28ZM19 36.5C18.1 36.5 17.3 36.2413 16.6 35.724C15.9 35.2067 15.4167 34.5153 15.15 33.65L10 16.5V8.5H14V16.5L19 32.5H36V36.5H19ZM16 42.5V38.5H36V42.5H16Z" fill="#614378"/>
</svg>
