<svg width="48" height="49" viewBox="0 0 48 49" fill="none" xmlns="http://www.w3.org/2000/svg">
<path d="M32.0677 8.17604C31.9912 8.17537 31.9144 8.17651 31.8362 8.17806C30.9422 8.19625 29.9376 8.36578 28.7673 8.72539C27.2586 9.18899 26.2024 10.603 26.353 12.1142C26.4622 13.2147 27.3759 14.4139 28.4326 15.1872C30.0939 16.4027 31.2811 17.6558 32.0951 18.8541L32.6087 22.1439L33.8527 21.9481L33.5117 19.7633C33.4214 18.2141 32.9742 16.6842 32.0068 15.1094C32.9861 15.7014 33.8496 16.3528 34.5683 17.0058L36.4691 20.7589L37.591 20.1905L35.804 16.6607C35.3226 15.4923 34.6021 14.3944 33.5286 13.3583C34.6042 13.6798 35.5816 14.0884 36.4228 14.5327L39.1107 17.5785L40.0537 16.7449L37.3258 13.655L37.3195 13.6614C36.515 12.6626 35.4864 11.7965 34.1368 11.0891V11.0828C34.1181 11.0665 34.0993 11.0954 34.0822 11.0954C32.3781 10.9722 30.8673 11.0842 29.8872 11.344C30.788 10.6278 32.2316 10.0947 34.2379 9.91266L37.4288 11.1459L37.8835 9.97153L35.0967 8.89384L35.0904 8.89169C34.1833 8.45442 33.2163 8.18688 32.0677 8.17604ZM16.0582 8.17806C14.924 8.19369 13.9676 8.45853 13.0693 8.89169L10.2762 9.97139L10.7288 11.1459L13.9218 9.91266C15.927 10.0949 17.3721 10.628 18.2725 11.344C17.2925 11.0842 15.7817 10.9722 14.0776 11.0954C14.0605 11.0954 14.0417 11.0665 14.0229 11.0829V11.0892C12.6731 11.7966 11.6447 12.6625 10.8403 13.6613L10.8319 13.655L8.104 16.745L9.049 17.5785L11.7369 14.5327C12.5782 14.0884 13.5555 13.6798 14.6312 13.3582C13.5575 14.3944 12.8349 15.4923 12.3536 16.6606L10.5667 20.1905L11.6906 20.7589L13.5892 17.0058C14.308 16.3528 15.1713 15.7014 16.1507 15.1094C15.1835 16.6841 14.7362 18.2141 14.6458 19.7632L14.307 21.9479L15.5509 22.1437L16.0624 18.8581C16.8763 17.6588 18.0618 16.4039 19.7248 15.1872C20.7816 14.4138 21.6952 13.2147 21.8044 12.1141C21.9549 10.603 20.9009 9.18886 19.3921 8.72532C18.1047 8.32974 17.0177 8.16493 16.058 8.17806H16.0582ZM27.5129 22.8174C26.7444 22.8174 25.878 23.1482 24.8039 24.3476V33.1586C26.0998 32.2225 27.396 31.8366 28.6137 31.822C30.162 31.8035 31.5533 32.3361 32.7602 32.8618C33.9672 33.3876 35.0195 33.8944 35.7344 33.971C36.0919 34.0094 36.3407 33.9651 36.5806 33.8153C36.7953 33.6813 37.0265 33.4236 37.2542 32.9714L35.8628 24.2316C35.1456 24.7317 34.4564 25.0098 33.7937 25.0862C32.8638 25.1935 32.0382 24.9158 31.3183 24.5494C29.879 23.8169 28.7478 22.8142 27.5128 22.8172L27.5129 22.8174ZM20.8194 23.1542C19.599 23.1487 18.4227 24.1948 16.9528 24.9791C16.2178 25.3712 15.3802 25.6792 14.4332 25.5958C13.7584 25.5365 13.0576 25.2737 12.3327 24.777L11.0233 33.4364C11.9404 34.3185 12.7304 34.4848 13.6228 34.3687C14.5838 34.2438 15.6659 33.705 16.8159 33.1501C17.9659 32.595 19.1942 32.0201 20.55 31.9902C21.5317 31.9686 22.5524 32.2738 23.5453 33.0237V24.4108C22.4504 23.1681 21.8766 23.1566 20.8194 23.1541V23.1542ZM9.84676 25.7178L8.17756 36.3748L21.3055 37.2504V38.5301H26.934V37.2524L40.104 36.3748L38.4349 25.7178L37.3889 25.8L38.5296 32.9733L38.5593 33.1606L38.4813 33.331C38.1607 34.0419 37.7575 34.564 37.2479 34.8824C37.0013 35.0363 36.7366 35.1334 36.4669 35.1875L36.469 35.2001L36.3344 35.2128C36.3287 35.2136 36.3231 35.2142 36.3175 35.2148C36.253 35.224 36.1886 35.2294 36.1239 35.2338H36.1155L24.2019 36.3872L24.1492 36.3915L24.0987 36.3873L13.4251 35.6486H13.4188C13.1085 35.6623 12.7938 35.6419 12.4778 35.5833C12.4758 35.5829 12.4736 35.5837 12.4715 35.5833C11.5945 35.4193 10.7092 34.9575 9.89512 34.0931L9.68464 33.8699L9.73111 33.5668L10.9034 25.7999L9.84676 25.7177V25.7178ZM28.6283 33.0806C27.3821 33.0954 26.0805 33.5304 24.625 34.9413L24.4671 35.0949L32.8571 34.2846C32.6588 34.1943 32.4602 34.1035 32.2572 34.0152C31.0948 33.5088 29.8747 33.0657 28.6284 33.0806H28.6283ZM20.5773 33.249C19.5733 33.2711 18.4933 33.7393 17.3631 34.2846C17.1396 34.3924 16.9125 34.5032 16.6855 34.6129L23.8946 35.1118L23.7114 34.9013C22.5602 33.5755 21.5813 33.2268 20.5773 33.2489V33.249Z" fill="#614378"/>
</svg>
