<svg width="33" height="32" viewBox="0 0 33 32" fill="none" xmlns="http://www.w3.org/2000/svg">
<path fill-rule="evenodd" clip-rule="evenodd" d="M26.6451 16.2366C26.6451 15.4992 26.5789 14.7901 26.456 14.1094H16.6611V18.1323H22.2582C22.0171 19.4323 21.2844 20.5337 20.183 21.2712V23.8806H23.544C25.5106 22.0701 26.6451 19.4039 26.6451 16.2366Z" fill="#4285F4"/>
<path fill-rule="evenodd" clip-rule="evenodd" d="M16.6615 26.4001C19.4695 26.4001 21.8237 25.4688 23.5444 23.8804L20.1833 21.271C19.252 21.895 18.0608 22.2637 16.6615 22.2637C13.9528 22.2637 11.66 20.4343 10.8422 17.9761H7.36768V20.6706C9.07895 24.0695 12.596 26.4001 16.6615 26.4001Z" fill="#34A853"/>
<path fill-rule="evenodd" clip-rule="evenodd" d="M10.842 17.9761C10.634 17.3521 10.5158 16.6856 10.5158 16.0001C10.5158 15.3147 10.634 14.6481 10.842 14.0241V11.3296H7.36741C6.66305 12.7336 6.26123 14.322 6.26123 16.0001C6.26123 17.6783 6.66305 19.2667 7.36741 20.6707L10.842 17.9761Z" fill="#FBBC05"/>
<path fill-rule="evenodd" clip-rule="evenodd" d="M16.6615 9.73646C18.1884 9.73646 19.5593 10.2612 20.6371 11.2917L23.62 8.30882C21.8189 6.63064 19.4648 5.6001 16.6615 5.6001C12.596 5.6001 9.07895 7.93064 7.36768 11.3296L10.8422 14.0241C11.66 11.5659 13.9528 9.73646 16.6615 9.73646Z" fill="#EA4335"/>
</svg>
