<svg width="148" height="111" viewBox="0 0 148 111" fill="none" xmlns="http://www.w3.org/2000/svg">
<path d="M147.963 96.9103H0.037C0.0165655 96.9103 0 96.9269 0 96.9473C0 96.9678 0.0165716 96.9843 0.0370061 96.9843H147.963C147.983 96.9843 148 96.9678 148 96.9473C148 96.9269 147.983 96.9103 147.963 96.9103Z" fill="#EBEBEB"/>
<path d="M25.2946 99.7283H15.5651C15.5446 99.7283 15.5281 99.7449 15.5281 99.7653C15.5281 99.7858 15.5446 99.8023 15.5651 99.8023H25.2946C25.315 99.8023 25.3316 99.7858 25.3316 99.7653C25.3316 99.7449 25.315 99.7283 25.2946 99.7283Z" fill="#EBEBEB"/>
<path d="M53.1929 98.9262H45.4555C45.435 98.9262 45.4185 98.9428 45.4185 98.9632C45.4185 98.9836 45.435 99.0002 45.4555 99.0002H53.1929C53.2133 99.0002 53.2299 98.9836 53.2299 98.9632C53.2299 98.9428 53.2133 98.9262 53.1929 98.9262Z" fill="#EBEBEB"/>
<path d="M40.1864 101.475H26.6681C26.6477 101.475 26.6311 101.491 26.6311 101.512C26.6311 101.532 26.6477 101.549 26.6681 101.549H40.1864C40.2069 101.549 40.2234 101.532 40.2234 101.512C40.2234 101.491 40.2069 101.475 40.1864 101.475Z" fill="#EBEBEB"/>
<path d="M133.133 101.981H126.814C126.793 101.981 126.777 101.997 126.777 102.018C126.777 102.038 126.793 102.055 126.814 102.055H133.133C133.154 102.055 133.17 102.038 133.17 102.018C133.17 101.997 133.154 101.981 133.133 101.981Z" fill="#EBEBEB"/>
<path d="M125.301 101.981H115.912C115.892 101.981 115.875 101.997 115.875 102.018C115.875 102.038 115.892 102.055 115.912 102.055H125.301C125.322 102.055 125.338 102.038 125.338 102.018C125.338 101.997 125.322 101.981 125.301 101.981Z" fill="#EBEBEB"/>
<path d="M98.3327 100.732H82.0912C82.0708 100.732 82.0542 100.748 82.0542 100.769C82.0542 100.789 82.0708 100.806 82.0912 100.806H98.3327C98.3532 100.806 98.3697 100.789 98.3697 100.769C98.3697 100.748 98.3532 100.732 98.3327 100.732Z" fill="#EBEBEB"/>
<path d="M70.1519 83.7088H12.9973C12.5495 83.708 12.1204 83.5296 11.804 83.2127C11.4877 82.8958 11.3101 82.4664 11.3101 82.0186V1.67533C11.314 1.23015 11.4933 0.804491 11.8092 0.490802C12.1252 0.177113 12.5521 0.000732093 12.9973 -3.05176e-05H70.1519C70.6002 -3.05176e-05 71.0301 0.178039 71.347 0.495006C71.664 0.811973 71.8421 1.24187 71.8421 1.69013V82.0186C71.8421 82.4669 71.664 82.8968 71.347 83.2137C71.0301 83.5307 70.6002 83.7088 70.1519 83.7088ZM12.9973 0.0591697C12.5691 0.0599538 12.1588 0.230573 11.8564 0.533577C11.5539 0.836581 11.3841 1.24721 11.3841 1.67533V82.0186C11.3841 82.4467 11.5539 82.8574 11.8564 83.1604C12.1588 83.4634 12.5691 83.634 12.9973 83.6348H70.1519C70.5803 83.634 70.9909 83.4635 71.2938 83.1606C71.5967 82.8576 71.7673 82.447 71.7681 82.0186V1.67533C71.7673 1.24694 71.5967 0.836315 71.2938 0.533396C70.9909 0.230477 70.5803 0.0599522 70.1519 0.0591697H12.9973Z" fill="#EBEBEB"/>
<path d="M134.18 83.7088H77.0224C76.5744 83.708 76.145 83.5297 75.8282 83.2129C75.5114 82.8961 75.3331 82.4666 75.3323 82.0186V1.67533C75.3369 1.22988 75.517 0.804224 75.8334 0.490617C76.1497 0.17701 76.577 0.000723776 77.0224 -3.05176e-05H134.18C134.625 0.00151001 135.051 0.178235 135.366 0.491841C135.681 0.805447 135.86 1.23066 135.864 1.67533V82.0186C135.864 82.4659 135.687 82.8949 135.371 83.2117C135.056 83.5285 134.627 83.7072 134.18 83.7088ZM77.0224 0.0591697C76.594 0.0599522 76.1834 0.230477 75.8805 0.533396C75.5776 0.836315 75.4071 1.24694 75.4063 1.67533V82.0186C75.4071 82.447 75.5776 82.8576 75.8805 83.1606C76.1834 83.4635 76.594 83.634 77.0224 83.6348H134.18C134.608 83.634 135.019 83.4635 135.322 83.1606C135.625 82.8576 135.795 82.447 135.796 82.0186V1.67533C135.795 1.24694 135.625 0.836315 135.322 0.533396C135.019 0.230477 134.608 0.0599522 134.18 0.0591697H77.0224Z" fill="#EBEBEB"/>
<path d="M47.1677 26.6163V38.2876C47.1677 43.442 51.3462 47.6205 56.5006 47.6205C61.655 47.6205 65.8335 43.442 65.8335 38.2876V26.6163C65.8335 21.4619 61.655 17.2835 56.5006 17.2835C51.3462 17.2835 47.1677 21.4619 47.1677 26.6163Z" fill="#EBEBEB"/>
<path d="M44.6754 27.3978V37.5062C44.6754 43.0922 49.2037 47.6205 54.7897 47.6205C60.3757 47.6205 64.9041 43.0922 64.9041 37.5062V27.3978C64.9041 21.8118 60.3757 17.2835 54.7897 17.2835C49.2037 17.2835 44.6754 21.8118 44.6754 27.3978Z" fill="#F5F5F5"/>
<path d="M63.2109 37.5047V27.3963C63.2109 22.7462 59.4413 18.9766 54.7912 18.9766C50.1411 18.9766 46.3715 22.7462 46.3715 27.3963V37.5047C46.3715 42.1548 50.1411 45.9244 54.7912 45.9244C59.4413 45.9244 63.2109 42.1548 63.2109 37.5047Z" fill="white"/>
<path d="M59.1289 37.1968V27.707C59.1289 25.3113 57.1868 23.3691 54.791 23.3691C52.3953 23.3691 50.4531 25.3113 50.4531 27.707V37.1968C50.4531 39.5925 52.3953 41.5347 54.791 41.5347C57.1868 41.5347 59.1289 39.5925 59.1289 37.1968Z" fill="#F5F5F5"/>
<path d="M18.9973 12.9795L18.9973 24.6508C18.9973 29.8052 23.1758 33.9837 28.3302 33.9837C33.4846 33.9837 37.6631 29.8052 37.6631 24.6508V12.9795C37.6631 7.82513 33.4846 3.64666 28.3302 3.64666C23.1758 3.64666 18.9973 7.82514 18.9973 12.9795Z" fill="#EBEBEB"/>
<path d="M16.5052 13.761L16.5052 23.8694C16.5052 29.4554 21.0336 33.9837 26.6196 33.9837C32.2056 33.9837 36.7339 29.4554 36.7339 23.8694V13.761C36.7339 8.17499 32.2056 3.64666 26.6196 3.64666C21.0336 3.64666 16.5052 8.175 16.5052 13.761Z" fill="#F5F5F5"/>
<path d="M35.0378 23.8709V13.7625C35.0378 9.1124 31.2682 5.34276 26.6181 5.34276C21.968 5.34276 18.1984 9.1124 18.1984 13.7625V23.8709C18.1984 28.521 21.968 32.2906 26.6181 32.2906C31.2682 32.2906 35.0378 28.521 35.0378 23.8709Z" fill="white"/>
<path d="M30.9558 23.5616V14.0688C30.9558 11.6739 29.0143 9.73244 26.6194 9.73244H26.6164C24.2215 9.73244 22.2801 11.6739 22.2801 14.0688V23.5616C22.2801 25.9565 24.2215 27.898 26.6164 27.898H26.6194C29.0143 27.898 30.9558 25.9565 30.9558 23.5616Z" fill="#F5F5F5"/>
<path d="M17.3605 69.8707L17.3605 93.2103C17.3605 95.2538 19.017 96.9103 21.0605 96.9103C23.104 96.9103 24.7605 95.2538 24.7605 93.2103L24.7605 69.8707C24.7605 67.8273 23.104 66.1707 21.0605 66.1707C19.017 66.1707 17.3605 67.8273 17.3605 69.8707Z" fill="#E6E6E6"/>
<path d="M18.9674 96.3737C18.8448 96.6968 18.5352 96.9104 18.1896 96.9104C17.7301 96.9104 17.3577 96.5379 17.3577 96.0785V94.2028C17.3577 93.5534 17.8841 93.0269 18.5336 93.0269C19.3566 93.0269 19.9251 93.8506 19.633 94.6201L18.9674 96.3737Z" fill="#F0F0F0"/>
<path d="M57.5041 69.8707V93.2103C57.5041 95.2538 59.1606 96.9103 61.2041 96.9103C63.2475 96.9103 64.9041 95.2538 64.9041 93.2103V69.8707C64.9041 67.8273 63.2475 66.1707 61.2041 66.1707C59.1606 66.1707 57.5041 67.8273 57.5041 69.8707Z" fill="#E6E6E6"/>
<path d="M31.8672 95.1906H44.2193C52.2329 95.1906 58.7292 88.6943 58.7292 80.6807C58.7292 72.6671 52.2329 66.1708 44.2193 66.1708H31.8672C23.8536 66.1708 17.3573 72.6671 17.3573 80.6807C17.3573 88.6943 23.8536 95.1906 31.8672 95.1906Z" fill="#F0F0F0"/>
<path d="M57.12 96.3733C57.2424 96.6966 57.5521 96.9104 57.8977 96.9104C58.3571 96.9104 58.7294 96.538 58.7294 96.0787V94.2021C58.7294 93.553 58.2033 93.0269 57.5542 93.0269C56.732 93.0269 56.1639 93.8495 56.4552 94.6184L57.12 96.3733Z" fill="#F0F0F0"/>
<path d="M52.4732 69.5955C55.2809 69.5955 57.557 71.8716 57.557 74.6793C57.557 77.487 55.2809 79.7631 52.4732 79.7631H23.6161C20.8084 79.7631 18.5323 77.487 18.5323 74.6793C18.5323 71.8716 20.8084 69.5955 23.6161 69.5955H52.4732ZM57.6399 74.6793C57.6399 71.8258 55.3267 69.5126 52.4732 69.5126H23.6161C20.7627 69.5126 18.4495 71.8258 18.4495 74.6793C18.4495 77.5328 20.7627 79.846 23.6161 79.846H52.4732C55.3267 79.846 57.6399 77.5328 57.6399 74.6793Z" fill="#FDFEFF"/>
<path d="M52.4776 81.6012C55.2829 81.6012 57.557 83.8754 57.557 86.6806C57.557 89.4859 55.2829 91.76 52.4776 91.76H23.6117C20.8064 91.76 18.5323 89.4859 18.5323 86.6806C18.5323 83.8754 20.8064 81.6012 23.6117 81.6012H52.4776ZM57.6399 86.6836C57.6399 83.8293 55.326 81.5154 52.4717 81.5154H23.6176C20.7633 81.5154 18.4495 83.8293 18.4495 86.6836C18.4495 89.5379 20.7633 91.8517 23.6176 91.8517H52.4717C55.326 91.8517 57.6399 89.5379 57.6399 86.6836Z" fill="#FDFEFF"/>
<path d="M40.8451 71.0814H35.2389C35.0643 71.0814 34.8915 71.0471 34.7303 70.9803C34.569 70.9135 34.4225 70.8156 34.2991 70.6922C34.1757 70.5688 34.0778 70.4222 34.011 70.261C33.9442 70.0997 33.9098 69.9269 33.9098 69.7524C33.9098 69.6183 34.0185 69.5097 34.1525 69.5097H41.9255C42.0595 69.5097 42.1682 69.6183 42.1682 69.7524C42.1682 70.1039 42.029 70.441 41.781 70.6901C41.5331 70.9392 41.1965 71.0799 40.8451 71.0814Z" fill="#FDFEFF"/>
<path d="M40.8451 83.0902H35.2389C35.0643 83.0902 34.8915 83.0558 34.7303 82.989C34.569 82.9222 34.4225 82.8243 34.2991 82.7009C34.1757 82.5775 34.0778 82.431 34.011 82.2697C33.9442 82.1085 33.9098 81.9357 33.9098 81.7611C33.9098 81.6271 34.0185 81.5184 34.1525 81.5184H41.9255C42.0595 81.5184 42.1682 81.6271 42.1682 81.7611C42.1682 82.1126 42.029 82.4498 41.781 82.6988C41.5331 82.9479 41.1965 83.0886 40.8451 83.0902Z" fill="#FDFEFF"/>
<path d="M30.2455 59.0936C30.2455 59.4909 29.833 59.7537 29.4729 59.586C29.2815 59.4968 29.1592 59.3048 29.1592 59.0936V43.4201C29.1592 43.0228 29.5717 42.76 29.9317 42.9277C30.1231 43.0169 30.2455 43.2089 30.2455 43.4201V59.0936Z" fill="#E6E6E6"/>
<path d="M28.7922 40.4868C30.0605 42.1667 27.8488 43.8403 26.5782 42.1622C25.3073 40.4838 27.5223 38.8077 28.7922 40.4868Z" fill="#E6E6E6"/>
<path d="M28.8188 45.9155C30.3064 48.2848 27.1795 50.2469 25.696 47.875C24.2139 45.5055 27.3326 43.5486 28.8188 45.9155Z" fill="#E6E6E6"/>
<path d="M30.8432 43.6274C29.5742 45.3053 31.7908 46.9774 33.0603 45.2998C34.3305 43.6212 32.1135 41.9488 30.8432 43.6274Z" fill="#E6E6E6"/>
<path d="M30.8166 49.0531C29.3317 51.4229 32.4573 53.387 33.9394 51.0156C35.4205 48.6459 32.2983 46.6837 30.8166 49.0531Z" fill="#E6E6E6"/>
<path d="M26.3438 50.2608C29.2065 52.5084 26.2429 56.284 23.3838 54.0318C20.5276 51.7818 23.4886 48.0094 26.3438 50.2608Z" fill="#E6E6E6"/>
<path d="M29.2658 66.1708C31.9002 66.1708 34.0787 66.0287 34.2297 63.3973C34.4622 61.5658 33.0349 59.9459 31.1887 59.9459H27.3428C25.4967 59.9459 24.0694 61.5658 24.3018 63.3973C24.4528 66.0287 26.6402 66.1708 29.2658 66.1708Z" fill="#F0F0F0"/>
<path d="M23.0015 59.3459C23.0923 60.4886 24.0461 61.3696 25.1924 61.3696H33.3376C34.4834 61.3696 35.4369 60.4894 35.5284 59.3474C35.6309 58.0684 34.6206 56.974 33.3376 56.974H25.1924C23.9099 56.974 22.8999 58.0675 23.0015 59.3459Z" fill="#F0F0F0"/>
<path d="M71.3791 88.0778C73.0065 88.0778 74.3257 86.7585 74.3257 85.1311V82.1918C74.3257 80.5644 75.645 79.2451 77.2724 79.2451C78.8998 79.2451 80.2191 77.9258 80.2191 76.2984V73.3562C80.2191 71.7288 81.5384 70.4095 83.1658 70.4095C84.7932 70.4095 86.1125 69.0902 86.1125 67.4628V64.5236C86.1125 62.8961 87.4317 61.5769 89.0591 61.5769C90.6865 61.5769 92.0058 60.2576 92.0058 58.6302V55.6924C92.0058 54.0642 93.3257 52.7442 94.954 52.7442C96.5822 52.7442 97.9021 51.4243 97.9021 49.7961V46.8583C97.9021 45.2309 99.2214 43.9116 100.849 43.9116C102.476 43.9116 103.795 42.5923 103.795 40.9649V38.0256C103.795 36.3982 105.115 35.0789 106.742 35.0789C108.37 35.0789 109.689 33.7597 109.689 32.1323V30.6626C109.689 28.2236 111.666 26.2463 114.105 26.2463H115.582C133.486 26.2463 148 40.7603 148 58.6642V61.5783C148 81.0917 132.181 96.9104 112.668 96.9104H74.3257H72.8487C70.4096 96.9104 68.4324 94.9331 68.4324 92.4941V91.0244C68.4324 89.397 69.7516 88.0778 71.3791 88.0778Z" fill="#FAFAFA"/>
<path d="M103.794 88.0778C105.421 88.0778 106.741 86.7585 106.741 85.1311V82.1933C106.741 80.5651 108.06 79.2451 109.689 79.2451C111.317 79.2451 112.637 77.9252 112.637 76.297V73.3562C112.637 71.7288 113.956 70.4095 115.584 70.4095C117.211 70.4095 118.53 69.0902 118.53 67.4628V64.5236C118.53 62.8961 119.849 61.5769 121.477 61.5769C123.104 61.5769 124.424 60.2576 124.424 58.6302V55.6909C124.424 54.0635 125.743 52.7442 127.37 52.7442C128.998 52.7442 130.317 51.425 130.317 49.7976V46.8598C130.317 45.2315 131.637 43.9116 133.265 43.9116C134.893 43.9116 136.213 42.5917 136.213 40.9634V38.0256C136.213 36.3982 137.533 35.0789 139.16 35.0789C140.787 35.0789 142.107 33.7597 142.107 32.1323V29.193C142.107 27.5656 143.426 26.2463 145.053 26.2463C146.681 26.2463 148 27.5656 148 29.193V35.0789V55.651C148 78.4379 129.527 96.9104 106.741 96.9104H105.263C102.824 96.9104 100.847 94.9331 100.847 92.4941V91.0244C100.847 89.397 102.166 88.0778 103.794 88.0778Z" fill="#E0E0E0"/>
<path d="M99.5227 88.0778H69.4076C68.6761 88.0778 68.083 88.6708 68.083 89.4024C68.083 90.1339 68.6761 90.727 69.4076 90.727H99.5227C100.254 90.727 100.847 90.1339 100.847 89.4024C100.847 88.6708 100.254 88.0778 99.5227 88.0778Z" fill="#EBEBEB"/>
<path d="M105.416 79.2451H75.3009C74.5694 79.2451 73.9763 79.8382 73.9763 80.5697C73.9763 81.3013 74.5694 81.8943 75.3009 81.8943H105.416C106.148 81.8943 106.741 81.3013 106.741 80.5697C106.741 79.8382 106.148 79.2451 105.416 79.2451Z" fill="#EBEBEB"/>
<path d="M111.312 70.4095H81.1974C80.4658 70.4095 79.8728 71.0025 79.8728 71.7341C79.8728 72.4656 80.4658 73.0587 81.1974 73.0587H111.312C112.044 73.0587 112.637 72.4656 112.637 71.7341C112.637 71.0025 112.044 70.4095 111.312 70.4095Z" fill="#EBEBEB"/>
<path d="M117.206 61.5769H87.0907C86.3592 61.5769 85.7661 62.1699 85.7661 62.9015C85.7661 63.633 86.3592 64.2261 87.0907 64.2261H117.206C117.937 64.2261 118.53 63.633 118.53 62.9015C118.53 62.1699 117.937 61.5769 117.206 61.5769Z" fill="#EBEBEB"/>
<path d="M123.099 52.7442H92.984C92.2525 52.7442 91.6594 53.3373 91.6594 54.0688C91.6594 54.8004 92.2525 55.3934 92.984 55.3934H123.099C123.831 55.3934 124.424 54.8004 124.424 54.0688C124.424 53.3373 123.831 52.7442 123.099 52.7442Z" fill="#EBEBEB"/>
<path d="M128.993 43.9116H98.8776C98.146 43.9116 97.553 44.5046 97.553 45.2362C97.553 45.9677 98.146 46.5608 98.8776 46.5608H128.993C129.724 46.5608 130.317 45.9677 130.317 45.2362C130.317 44.5046 129.724 43.9116 128.993 43.9116Z" fill="#EBEBEB"/>
<path d="M134.886 35.079H104.771C104.039 35.079 103.446 35.672 103.446 36.4036C103.446 37.1351 104.039 37.7282 104.771 37.7282H134.886C135.617 37.7282 136.211 37.1351 136.211 36.4036C136.211 35.672 135.617 35.079 134.886 35.079Z" fill="#EBEBEB"/>
<path d="M140.782 26.2463H110.667C109.935 26.2463 109.342 26.8394 109.342 27.5709C109.342 28.3025 109.935 28.8955 110.667 28.8955H140.782C141.513 28.8955 142.107 28.3025 142.107 27.5709C142.107 26.8394 141.513 26.2463 140.782 26.2463Z" fill="#EBEBEB"/>
<path d="M126.999 28.8594C126.999 29.315 126.526 29.6165 126.113 29.4242C125.893 29.322 125.753 29.1017 125.753 28.8594V10.8844C125.753 10.4288 126.226 10.1273 126.639 10.3196C126.858 10.4218 126.999 10.6421 126.999 10.8844V28.8594Z" fill="#F5F5F5"/>
<path d="M125.332 7.5213C126.785 9.44647 124.245 11.3631 122.79 9.43938C121.335 7.51536 123.877 5.59728 125.332 7.5213Z" fill="#F5F5F5"/>
<path d="M125.362 13.7462C127.061 16.4623 123.479 18.7001 121.78 15.984C120.083 13.2704 123.66 11.0352 125.362 13.7462Z" fill="#F5F5F5"/>
<path d="M127.686 11.1207C126.23 13.0457 128.769 14.9667 130.225 13.0417C131.681 11.1168 129.139 9.19433 127.686 11.1207Z" fill="#F5F5F5"/>
<path d="M127.653 17.3456C125.956 20.0583 129.532 22.2926 131.234 19.5833C132.937 16.8734 129.354 14.6348 127.653 17.3456Z" fill="#F5F5F5"/>
<path d="M126.392 35.0789C129.411 35.0789 131.91 34.9161 132.084 31.8999C132.351 29.7984 130.714 27.9394 128.595 27.9394H124.196C122.077 27.9394 120.441 29.7989 120.709 31.8999C120.881 34.928 123.379 35.0789 126.392 35.0789Z" fill="#E0E0E0"/>
<path d="M119.217 27.2506C119.32 28.5604 120.414 29.5704 121.728 29.5704H131.071C132.385 29.5704 133.479 28.5604 133.582 27.2506C133.699 25.7855 132.541 24.5324 131.071 24.5324H121.728C120.258 24.5324 119.1 25.7855 119.217 27.2506Z" fill="#E0E0E0"/>
<path d="M74.0001 110.278C105.697 110.278 131.392 108.778 131.392 106.927C131.392 105.077 105.697 103.576 74.0001 103.576C42.3037 103.576 16.6086 105.077 16.6086 106.927C16.6086 108.778 42.3037 110.278 74.0001 110.278Z" fill="#F5F5F5"/>
<path d="M40.5074 25.4101C40.5036 25.4149 40.5009 25.4205 40.4995 25.4265C40.1655 26.9033 39.7695 28.3419 39.3176 29.7745C39.0896 30.4908 38.841 31.1983 38.5835 31.9087C38.4532 32.2639 38.3171 32.6161 38.178 32.9684L37.9619 33.5071C37.8224 33.8804 37.6089 34.2217 37.3344 34.5105C36.9718 34.8838 36.4964 35.1272 35.9816 35.2032C35.5846 35.2587 35.1802 35.2254 34.7976 35.1055C34.2977 34.9447 33.8277 34.7027 33.4064 34.3892C32.7447 33.8913 32.1365 33.3258 31.592 32.702C30.5717 31.5527 29.662 30.3099 28.8747 28.9901C28.7622 28.8097 28.7199 28.5942 28.7559 28.3846C28.7919 28.1751 28.9036 27.986 29.0698 27.8534C29.236 27.7208 29.4452 27.6539 29.6575 27.6653C29.8698 27.6768 30.0705 27.7659 30.2215 27.9156L30.2511 27.9423C30.7572 28.4336 31.2723 28.9576 31.8021 29.4223C32.332 29.887 32.8529 30.3902 33.3857 30.8312C33.8799 31.255 34.412 31.6325 34.9752 31.959C35.1156 32.0469 35.267 32.1153 35.4253 32.1625C35.5187 32.1904 35.5756 32.1708 35.4784 32.178C35.3303 32.1964 35.1917 32.2606 35.0818 32.3616C35.0165 32.4247 35.0176 32.374 35.0431 32.2868L35.1528 31.9116L35.4488 30.8756C35.6472 30.183 35.8307 29.4815 36.0201 28.7859L37.1179 24.616C37.1201 24.6076 37.1212 24.599 37.1212 24.5904C37.1212 24.5813 37.1224 24.5723 37.1249 24.5636C37.2475 24.1315 37.5321 23.763 37.9196 23.535C38.3111 23.3048 38.7768 23.2361 39.2181 23.3435C39.6593 23.451 40.0414 23.7261 40.2832 24.1105C40.5233 24.4921 40.6064 24.9518 40.5154 25.3932C40.5141 25.3994 40.5113 25.4052 40.5074 25.4101Z" fill="#FFC3BD"/>
<path d="M37.9117 21.2379C36.9438 22.1021 36.42 23.917 36.1516 25.2776C35.9464 26.3183 36.4671 27.3375 37.3692 27.8955C39.0487 28.9341 41.2265 27.9649 41.4773 26.0063C41.5268 25.6199 41.5751 25.2175 41.6206 24.8047C41.9788 21.6878 39.9186 19.4382 37.9117 21.2379Z" fill="#614378"/>
<path d="M50.6539 28.7338C49.3675 23.2425 44.5884 18.3869 39.3004 20.3479C39.1995 20.3853 39.0987 20.4234 38.9979 20.4625C38.2649 20.7563 37.6508 21.286 37.2525 21.9678C36.8542 22.6497 36.6945 23.4448 36.7986 24.2276C37.1052 26.6187 37.8206 30.5696 39.4896 35.8561C40.5217 39.1257 44.0058 40.8654 47.3125 39.9594C50.7162 39.0269 52.5318 35.6798 51.5734 32.2833C51.2664 31.1951 50.9511 30.0025 50.6539 28.7338Z" fill="#614378"/>
<path d="M29.9524 28.6868C30.2464 28.3882 30.3326 27.9425 30.1713 27.5558C29.909 26.9274 29.1241 26.716 28.5817 27.1276L28.2643 27.3684C27.8399 27.6905 27.6229 28.2621 27.9646 28.6708C28.1952 28.9466 28.5456 29.1923 29.0641 29.2008C29.3416 29.2053 29.5915 29.0533 29.7862 28.8555L29.9524 28.6868Z" fill="#FFC3BD"/>
<path d="M27.88 25.5596L27.1518 26.5216C27.0938 26.5866 27.0559 26.6671 27.0427 26.7533C27.0296 26.8395 27.0418 26.9277 27.0778 27.007C27.3352 27.475 27.9481 27.6052 28.3735 27.2824L28.6271 27.09C29.1598 26.6857 29.1933 25.8966 28.6968 25.4487C28.6477 25.4043 28.5956 25.3618 28.5337 25.3382C28.4326 25.2997 28.3215 25.292 28.2148 25.3175C28.0756 25.3508 27.9552 25.4378 27.88 25.5596Z" fill="#FFC3BD"/>
<path opacity="0.2" d="M49.4575 24.1864C48.812 23.7408 48.1379 24.2044 48.4362 24.9297C48.5407 25.1838 48.6562 25.4463 48.7795 25.7076C49.2827 26.7736 50.1222 26.3441 49.9175 25.1832C49.8956 25.059 49.874 24.9344 49.8528 24.8093C49.81 24.5569 49.6682 24.3318 49.4575 24.1864Z" fill="black"/>
<path d="M41.056 16.2407C41.7384 15.3273 43.278 15.7707 43.6046 16.8631C43.7115 17.2206 43.8379 17.5628 43.9869 17.873C44.3791 18.6894 44.6542 19.7966 44.0367 20.4592C43.4408 21.0985 42.6457 21.6672 41.4842 21.9571C40.5952 22.1791 40.1138 22.0057 39.8857 21.6746C39.3357 20.8764 40.573 20.119 40.987 19.2424C41.2317 18.7242 41.1438 18.1404 40.92 17.5603C40.7501 17.1201 40.7736 16.6187 41.056 16.2407Z" fill="#FFC3BD"/>
<path opacity="0.2" d="M42.3158 15.7649C42.2731 15.3482 41.767 15.2871 41.5152 15.6219L40.8055 16.5658C40.671 16.7448 40.657 16.9851 40.7522 17.1878C40.8871 17.4755 41.2182 17.6307 41.4649 17.4305C41.9709 17.02 42.3966 16.3279 42.3158 15.7649Z" fill="black"/>
<path d="M38.3894 9.19884C38.8271 9.44641 39.0902 10.0158 39.4284 10.388C39.5392 10.5099 39.6119 10.6416 39.6533 10.7767C39.8356 11.3721 40.1613 12.6158 40.5071 13.1337C40.7276 13.4638 40.4673 13.6147 40.1576 13.8631L39.7097 14.2224C39.426 14.45 39.0689 14.5737 38.7104 14.5117C38.0972 14.4057 37.1702 14.1255 36.9435 13.391C36.5971 12.2692 34.6702 10.9342 36.757 9.62886C37.6386 9.07741 38.1234 9.04841 38.3894 9.19884Z" fill="#263238"/>
<path d="M42.9197 10.9668C43.2749 13.2223 43.5975 14.5188 42.7243 15.907C41.4071 17.979 38.4264 17.5498 37.3963 15.4423C36.4728 13.542 36.0466 10.1735 38.0357 8.82374C38.4766 8.52446 38.9863 8.34195 39.5169 8.2933C40.0476 8.24465 40.5819 8.33145 41.0699 8.54558C41.5579 8.7597 41.9836 9.09414 42.3071 9.51759C42.6306 9.94105 42.8414 10.4397 42.9197 10.9668Z" fill="#FFC3BD"/>
<path d="M42.7755 7.24329C44.1502 8.85242 39.4569 8.99336 37.5593 9.9307C37.199 10.1085 36.7392 10.6062 36.1031 10.8791C35.3098 11.2194 35.2986 10.0446 35.4252 9.1907C35.6028 8.0067 35.9698 6.47934 38.0536 6.85526C40.1375 7.23118 40.4838 6.34318 41.8336 6.64806C42.2077 6.732 42.5302 6.95627 42.7755 7.24329Z" fill="#263238"/>
<path d="M40.6172 8.27686C40.4306 8.76569 40.6574 9.39977 40.6895 9.92199C40.6997 10.0882 40.7453 10.2335 40.8164 10.3584C41.1251 10.9015 41.7399 11.9868 41.8516 12.6014C41.9248 13.004 42.2291 12.9345 42.6362 12.8926L43.1898 12.8356C43.5486 12.7986 43.8872 12.6378 44.098 12.3451C44.4616 11.8405 44.9289 10.9885 44.5715 10.3008C44.0269 9.25299 44.4738 6.95603 42.0703 7.48587C41.1023 7.69926 40.7239 7.99715 40.6172 8.27686Z" fill="#263238"/>
<path d="M43.1195 7.61171C42.7712 7.88936 42.6579 7.18788 42.8919 6.8089C43.1154 6.447 43.6434 6.57921 43.5326 6.98989C43.4684 7.22807 43.3338 7.44085 43.1195 7.61171Z" fill="#263238"/>
<path d="M44.1958 12.9884C44.0263 13.5052 43.6665 13.938 43.1894 14.199C42.5796 14.495 42.1948 13.903 42.3014 13.2074C42.3931 12.5651 42.8223 11.6327 43.4647 11.6209C44.107 11.609 44.4207 12.3283 44.1958 12.9884Z" fill="#FFC3BD"/>
<path d="M39.6277 88.0793C39.6233 88.9675 40.4017 89.6565 41.2828 89.5443C41.9886 89.4545 42.5287 88.8718 42.5648 88.1612L42.6821 85.8533C42.7293 84.9237 41.9387 84.1698 41.0124 84.261C40.236 84.3374 39.6431 84.9884 39.6392 85.7685L39.6277 88.0793Z" fill="#FFC3BD"/>
<path d="M44.8711 65.8031C44.8638 63.5537 45.128 61.2842 45.8187 59.1434C47.1961 54.8744 48.4513 49.7349 49.3516 45.7179C50.043 42.6329 47.1993 39.9904 44.1501 40.8255C42.5338 41.2682 41.3262 42.6096 41.0777 44.267C40.408 48.7328 39.1525 57.6426 38.98 62.749C38.7901 68.3205 38.8644 78.839 38.9101 83.4952C38.9228 84.7844 39.972 85.8133 41.2612 85.8133C42.4515 85.8133 43.4528 84.9323 43.5847 83.7493C44.0182 79.8603 44.889 71.3412 44.8711 65.8031Z" fill="#263238"/>
<path opacity="0.2" d="M48.722 46.4572C48.6089 46.4515 48.4984 46.4942 48.4222 46.578C47.9441 47.1043 47.5533 47.7361 47.2379 48.4453C46.4102 50.3066 48.2201 50.6069 48.6908 48.6251C48.8275 48.0494 48.9591 47.4851 49.0851 46.9364C49.1397 46.6984 48.9659 46.4695 48.722 46.4572Z" fill="black"/>
<path d="M38.7272 85.7014C38.7813 86.0753 39.094 86.3576 39.4715 86.3733L42.8021 86.5117C43.1752 86.5272 43.5043 86.2692 43.5783 85.9031C43.6699 85.4497 43.3385 85.0204 42.8767 84.9942L39.5486 84.8052C39.053 84.7771 38.6561 85.2102 38.7272 85.7014Z" fill="#614378"/>
<path d="M40.0308 12.0708C40.0722 12.2543 40.0071 12.4201 39.8887 12.4467C39.7703 12.4734 39.6401 12.3431 39.5927 12.1507C39.5454 11.9583 39.6164 11.8015 39.7348 11.7778C39.8532 11.7541 39.9923 11.8903 40.0308 12.0708Z" fill="#263238"/>
<path d="M37.7754 12.5C37.8169 12.6835 37.7517 12.8493 37.6333 12.8759C37.5149 12.9026 37.3847 12.7723 37.3373 12.5799C37.29 12.3875 37.361 12.2306 37.4794 12.2069C37.5978 12.1833 37.7369 12.3194 37.7754 12.5Z" fill="#263238"/>
<path d="M38.4755 14.0699C38.4105 13.7644 37.8671 13.7534 37.749 14.0425C37.689 14.1894 37.7548 14.3641 37.9122 14.3847C37.9676 14.392 38.0237 14.395 38.0799 14.3935C38.1596 14.3913 38.2386 14.3803 38.3154 14.3607C38.4406 14.3288 38.5024 14.1962 38.4755 14.0699Z" fill="#ED847E"/>
<path d="M39.1105 14.8828C39.3181 14.8693 39.5208 14.8134 39.7061 14.7188C39.8839 14.6279 40.0422 14.503 40.1719 14.3514C40.1827 14.3387 40.1959 14.3274 40.2023 14.312C40.2055 14.3043 40.2069 14.296 40.2065 14.2876C40.2061 14.2793 40.2038 14.2711 40.1998 14.2638C40.1959 14.2564 40.1903 14.25 40.1836 14.2451C40.1768 14.2402 40.1691 14.2368 40.1609 14.2352C40.1527 14.2336 40.1442 14.2339 40.1361 14.236C40.128 14.2381 40.1205 14.242 40.1141 14.2474C40.1014 14.2581 40.0938 14.2736 40.0828 14.286C39.9361 14.4529 39.7531 14.5841 39.5478 14.6694C39.3347 14.7579 39.1037 14.7945 38.8737 14.7763C38.8593 14.7762 38.8454 14.7817 38.8349 14.7917C38.8245 14.8016 38.8182 14.8151 38.8175 14.8295C38.8171 14.8368 38.8181 14.844 38.8206 14.8508C38.8231 14.8576 38.827 14.8639 38.832 14.8691C38.837 14.8744 38.843 14.8786 38.8497 14.8815C38.8563 14.8843 38.8635 14.8858 38.8707 14.8858C38.9506 14.8908 39.0308 14.8898 39.1105 14.8828Z" fill="#263238"/>
<path d="M40.0606 11.0557C40.0777 11.0498 40.0929 11.0396 40.105 11.0261C40.1246 11.0053 40.1354 10.9778 40.1354 10.9492C40.1354 10.9206 40.1246 10.8931 40.105 10.8722C39.9755 10.7559 39.8201 10.6722 39.6518 10.6279C39.4835 10.5836 39.307 10.5801 39.1371 10.6176C39.1099 10.6259 39.0869 10.6444 39.0731 10.6693C39.0593 10.6941 39.0557 10.7234 39.0631 10.7508C39.0713 10.7788 39.0902 10.8025 39.1156 10.8169C39.141 10.8312 39.171 10.8351 39.1992 10.8278C39.334 10.7992 39.4738 10.8033 39.6067 10.8399C39.7395 10.8765 39.8617 10.9444 39.9629 11.038C39.9764 11.0489 39.9924 11.0562 40.0095 11.0593C40.0266 11.0624 40.0441 11.0612 40.0606 11.0557Z" fill="#263238"/>
<path d="M36.5054 11.9838C36.5054 11.9874 36.5088 11.9901 36.5123 11.9891C36.5272 11.9844 36.5409 11.9764 36.5522 11.9655C36.5652 11.953 36.5746 11.9373 36.5794 11.9199C36.6136 11.7854 36.6799 11.6612 36.7727 11.5581C36.8656 11.4549 36.9821 11.3759 37.1122 11.3279C37.1263 11.3242 37.1394 11.3176 37.1508 11.3087C37.1622 11.2997 37.1717 11.2885 37.1786 11.2757C37.1855 11.263 37.1898 11.249 37.1911 11.2345C37.1924 11.2201 37.1908 11.2055 37.1862 11.1917C37.178 11.1645 37.1595 11.1416 37.1346 11.1278C37.1098 11.1139 37.0805 11.1103 37.053 11.1177C36.8896 11.174 36.7423 11.2692 36.6237 11.395C36.5051 11.5208 36.4188 11.6735 36.3722 11.84C36.3658 11.8586 36.3647 11.8787 36.3691 11.898C36.3734 11.9173 36.383 11.935 36.3968 11.9491C36.4107 11.9633 36.4281 11.9733 36.4473 11.978C36.464 11.9822 36.4814 11.9822 36.498 11.9782C36.5017 11.9773 36.5054 11.98 36.5054 11.9838Z" fill="#263238"/>
<path d="M61.7651 79.9635C62.2451 80.7115 63.2742 80.8655 63.9522 80.2907C64.4944 79.831 64.6298 79.0491 64.2738 78.4339L63.1172 76.4349C62.6507 75.6286 61.5758 75.4265 60.8483 76.0083C60.2393 76.4953 60.0967 77.3636 60.5178 78.0198L61.7651 79.9635Z" fill="#FFC3BD"/>
<path d="M57.3041 63.5339C56.4318 62.0393 55.6838 60.4551 55.411 58.7462C54.2704 51.6031 56.1207 45.7174 54.8857 41.272C54.338 39.3004 52.093 38.6497 50.1193 39.1898C47.5132 39.903 45.8897 42.4901 46.43 45.1374C47.4815 50.289 49.2632 58.406 50.8585 62.7223C52.6916 67.6678 56.4864 73.5988 58.489 76.5617C59.2121 77.6316 60.6423 77.9222 61.7454 77.2509C62.7919 76.6139 63.2146 75.3123 62.7126 74.1949C61.6255 71.7752 59.6089 67.4828 57.3041 63.5339Z" fill="#263238"/>
<path d="M64.3858 79.0616C64.5478 79.0066 64.7226 79.0017 64.8874 79.0477C65.0521 79.0936 65.1992 79.1882 65.3093 79.3191L67.0261 81.2639C67.0615 81.307 67.0877 81.3569 67.1032 81.4105C67.1187 81.4642 67.1231 81.5204 67.1162 81.5757C67.1093 81.6311 67.0912 81.6845 67.063 81.7327C67.0347 81.7808 66.997 81.8227 66.9521 81.8559C65.9132 82.6077 66.0996 82.365 65.0844 83.0754C63.9004 83.9071 63.8264 84.3215 62.2339 85.0142C61.2896 85.4256 60.7746 84.9402 60.9492 84.5258C61.258 83.796 61.4603 83.1902 61.615 82.6925C61.8666 81.8836 60.9439 80.6895 61.1328 79.8638C61.3074 79.1001 62.7134 78.1943 63.2699 78.5022C63.4631 78.5854 63.6277 78.7234 63.7434 78.8991C63.8271 79.026 64.2257 79.1277 64.3661 79.0695C64.3726 79.0668 64.3792 79.0642 64.3858 79.0616Z" fill="#263238"/>
<path d="M41.9997 88.6709C42.0446 88.6621 42.0903 88.6568 42.1359 88.6601C42.283 88.6709 42.4252 88.7198 42.5482 88.8026C42.6903 88.8982 42.8002 89.0345 42.8634 89.1936L43.8758 91.5853C43.8957 91.6381 43.9046 91.6944 43.902 91.7507C43.8994 91.807 43.8854 91.8622 43.8607 91.9129C43.8361 91.9636 43.8013 92.0088 43.7586 92.0456C43.7159 92.0824 43.6661 92.1101 43.6123 92.127C42.3898 92.5089 43.1002 92.2425 41.9103 92.5947C40.5191 93.0061 38.3583 94.054 36.7303 94.5365C35.7446 94.8325 35.3066 93.9267 35.6677 93.6633C36.853 92.799 37.6667 91.9097 38.2513 91.2037C38.7946 90.5475 38.2858 89.1165 38.7283 88.3885C39.1368 87.7166 39.7584 87.4768 40.1876 87.9445C40.3424 88.0857 40.4529 88.269 40.5054 88.4718C40.5689 88.7169 40.8345 88.9659 41.0776 88.8951C41.3814 88.8067 41.689 88.7319 41.9997 88.6709Z" fill="#263238"/>
<path d="M59.5743 78.6627C59.8257 78.9453 60.2429 79.0085 60.5667 78.813L63.4205 77.0901C63.7396 76.8974 63.8716 76.5014 63.7317 76.1558C63.5584 75.7274 63.0456 75.552 62.6462 75.7847L59.7658 77.4625C59.3371 77.7122 59.2446 78.292 59.5743 78.6627Z" fill="#614378"/>
<path d="M49.9545 19.7031C49.9536 19.7058 49.9546 19.7087 49.9569 19.7103C50.6924 20.2155 51.3543 20.7238 52.025 21.2527C52.6969 21.7826 53.357 22.3361 54.0082 22.9014C55.3376 24.0541 56.5647 25.3198 57.6757 26.6843C57.8177 26.856 57.9717 27.0395 58.0901 27.2319C58.2085 27.4243 58.3653 27.6078 58.4897 27.8032L58.8508 28.3952L59.1793 28.9872C59.5868 29.7633 59.9523 30.5607 60.2745 31.3759C60.914 32.9699 61.4267 34.6119 61.8078 36.2866C61.8521 36.4919 61.8207 36.7064 61.7193 36.8903C61.6179 37.0743 61.4533 37.2154 61.256 37.2875C61.0587 37.3596 60.842 37.358 60.6458 37.2828C60.4533 37.2091 60.2934 37.0695 60.1944 36.889C60.1906 36.8822 60.1887 36.8745 60.1887 36.8666C60.1887 36.8589 60.1868 36.8513 60.1832 36.8445C59.4272 35.4033 58.6535 33.9418 57.8503 32.551C57.4418 31.8554 57.0304 31.1717 56.5982 30.5294C56.1799 29.9039 55.7159 29.3103 55.21 28.7534C54.1346 27.6011 52.9804 26.525 51.7557 25.5329C51.137 25.0149 50.5036 24.5146 49.8672 24.0144C49.2308 23.5142 48.5707 23.0198 47.9521 22.5581L47.9284 22.5433C47.7416 22.4101 47.5829 22.2415 47.4613 22.047C47.3397 21.8526 47.2575 21.636 47.2196 21.4098C47.1817 21.1836 47.1887 20.9522 47.2402 20.7286C47.2917 20.5051 47.3868 20.294 47.5199 20.1072C47.7888 19.73 48.1965 19.475 48.6533 19.3984C48.8795 19.3605 49.111 19.3675 49.3345 19.419C49.5565 19.4702 49.7664 19.5643 49.9522 19.696C49.9544 19.6976 49.9554 19.7005 49.9545 19.7031Z" fill="#FFC3BD"/>
<path d="M49.1949 18.7782C50.4225 18.7994 51.7085 19.8685 52.6152 20.8232C53.4267 21.6777 53.4873 22.9542 52.9287 23.9919C52.2063 25.3338 50.58 26.0047 49.3306 25.1319C48.5813 24.6084 47.91 23.9735 47.342 23.2448C45.4683 20.72 46.4984 18.7338 49.1949 18.7782Z" fill="#614378"/>
<path d="M60.4809 35.6225C60.1408 35.922 60.0014 36.3892 60.1217 36.8261C60.3321 37.5904 61.2194 37.9363 61.8917 37.5161L61.9972 37.4502C62.5253 37.1201 62.7487 36.4449 62.3795 35.9433C62.1226 35.5942 61.7849 35.2606 61.3942 35.1725C61.1337 35.1137 60.8858 35.266 60.6853 35.4425L60.4809 35.6225Z" fill="#FFC3BD"/>
<path d="M62.6395 39.5632L63.3855 38.9091C63.5294 38.7824 63.6239 38.6089 63.6521 38.4192C63.6802 38.2296 63.6403 38.0361 63.5394 37.8731C63.1977 37.327 62.478 37.1611 61.9318 37.5025L61.7981 37.5861C61.1403 37.9972 60.9982 38.8951 61.497 39.4892C61.567 39.5693 61.6522 39.6347 61.7476 39.6818C61.843 39.7289 61.9467 39.7566 62.0529 39.7635C62.159 39.7704 62.2655 39.7562 62.3662 39.7218C62.4668 39.6875 62.5597 39.6336 62.6395 39.5632Z" fill="#FFC3BD"/>
<path d="M105.234 35.5111C109.248 33.8875 113.045 30.4062 116.249 33.318C116.985 33.9866 117.52 34.6463 117.633 35.0997C118.054 36.775 112.921 38.0597 116.263 40.478C119.605 42.8963 113.326 42.0409 114.582 43.6778C115.837 45.3146 116.476 48.618 110.438 46.324C104.399 44.03 99.9295 41.588 103.778 40.3537C107.626 39.1194 101.312 37.0977 105.234 35.5111Z" fill="#614378"/>
<path d="M114.95 49.5352C114.955 49.5433 114.959 49.552 114.961 49.5612C115.298 50.7203 115.69 51.9348 116.103 53.0994C116.316 53.6914 116.538 54.2479 116.775 54.7985C116.902 55.0678 117.024 55.3431 117.157 55.5977C117.219 55.7309 117.287 55.8552 117.355 55.9736L117.459 56.1571L117.484 56.2022C117.485 56.2037 117.485 56.2053 117.485 56.207C117.485 56.2154 117.475 56.22 117.469 56.2148C117.401 56.1616 117.322 56.1238 117.238 56.1042C117.237 56.1039 117.236 56.1036 117.235 56.1032C117.212 56.0941 117.208 56.0537 117.231 56.0438C117.307 56.0101 117.379 55.9656 117.444 55.9114C117.899 55.5805 118.318 55.2036 118.696 54.7866C119.525 53.8986 120.336 52.8981 121.102 51.9036L121.12 51.8829C121.23 51.7411 121.388 51.6444 121.565 51.6109C121.741 51.5775 121.924 51.6095 122.078 51.7011C122.233 51.7926 122.348 51.9374 122.403 52.1082C122.459 52.279 122.45 52.4641 122.378 52.6288C121.843 53.8746 121.185 55.0644 120.416 56.1808C120.002 56.7931 119.516 57.3535 118.968 57.8502C118.598 58.1849 118.161 58.4371 117.687 58.5902C117.309 58.7064 116.906 58.7156 116.523 58.6169C116.119 58.5038 115.757 58.2767 115.478 57.9627C115.413 57.8946 115.369 57.8325 115.316 57.7673L115.262 57.6904L115.221 57.6341L115.064 57.4062C114.957 57.2523 114.86 57.1102 114.768 56.9474C114.57 56.6514 114.407 56.3347 114.238 56.0239C113.918 55.4053 113.628 54.7837 113.371 54.1532C112.853 52.9025 112.425 51.6166 112.089 50.3052C112 49.9314 112.059 49.5374 112.254 49.2065C112.45 48.8756 112.767 48.6339 113.137 48.5323C113.508 48.4308 113.904 48.4775 114.241 48.6625C114.574 48.8454 114.823 49.1492 114.939 49.5108C114.941 49.5194 114.945 49.5276 114.95 49.5352Z" fill="#FF8B7B"/>
<path d="M121.435 53.0414C121.72 53.1687 122.049 53.1499 122.318 52.9909C122.796 52.708 122.937 52.0802 122.624 51.6205L122.59 51.5703C122.224 51.0313 121.453 50.9795 121.152 51.5575C121.062 51.731 120.98 51.9181 120.919 52.1125C120.799 52.4955 121.046 52.8677 121.413 53.0314L121.435 53.0414Z" fill="#FF8B7B"/>
<path d="M123.707 50.2786L123.648 50.2194C123.498 50.0408 123.284 49.9273 123.052 49.9025C122.819 49.8777 122.587 49.9435 122.402 50.0862C122.105 50.333 122.044 50.7651 122.261 51.0847L122.767 51.8298C122.995 52.1652 123.468 52.2171 123.763 51.9392C123.969 51.7081 124.078 51.4067 124.067 51.0976C124.057 50.7885 123.928 50.4952 123.707 50.2786Z" fill="#FF8B7B"/>
<path d="M110.704 47.7121C110.739 48.4877 111.189 50.0061 111.565 51.1428C111.696 51.5375 111.816 51.8852 111.906 52.1402C111.994 52.3908 112.263 52.5261 112.518 52.4511C114.735 51.792 116.63 49.5684 115.55 47.5233C115.22 46.8988 114.737 46.3422 114.028 45.9036C112.755 45.1221 110.633 46.3269 110.704 47.7121Z" fill="#263238"/>
<path opacity="0.3" d="M111.617 50.9168C111.572 51.0629 111.581 51.2196 111.63 51.3644C111.767 51.7735 111.888 52.1162 111.966 52.3332C112.016 52.4749 112.169 52.5513 112.313 52.5089C112.43 52.4743 112.513 52.3691 112.516 52.2467C112.527 51.8763 112.524 51.4361 112.485 51.0163C112.429 50.4276 111.79 50.3512 111.617 50.9168Z" fill="black"/>
<path d="M94.0947 103.253C93.935 103.941 94.4182 104.613 95.1217 104.68C95.7049 104.736 96.2393 104.352 96.3717 103.781L97.1089 100.602C97.2685 99.9137 96.7853 99.2422 96.0819 99.1747C95.4987 99.1188 94.9642 99.5034 94.8319 100.074L94.0947 103.253Z" fill="#FF8B7B"/>
<path d="M78.0066 97.0787C77.5354 97.6092 77.6305 98.4316 78.2105 98.8405C78.7053 99.1893 79.3832 99.1107 79.7851 98.658L81.8662 96.3134C82.3372 95.7827 82.2414 94.9603 81.6611 94.5521C81.1667 94.2043 80.49 94.2829 80.0885 94.7349L78.0066 97.0787Z" fill="#FF8B7B"/>
<path d="M79.4493 99.2399L78.0018 96.9726C77.9783 96.9333 77.941 96.9043 77.8972 96.8912C77.8534 96.8781 77.8063 96.8817 77.765 96.9015L75.8529 97.8191C75.8056 97.8454 75.7643 97.881 75.7313 97.9239C75.6983 97.9667 75.6744 98.0158 75.6611 98.0682C75.6478 98.1206 75.6454 98.1751 75.6539 98.2285C75.6625 98.2819 75.6818 98.3329 75.7108 98.3786C76.2288 99.163 76.5189 99.5122 77.1523 100.51C77.546 101.125 78.3363 102.54 78.8632 103.39C79.3901 104.239 80.2485 103.733 80.0975 103.331C79.4197 101.522 79.4493 100.486 79.544 99.6603C79.5615 99.5134 79.5281 99.365 79.4493 99.2399Z" fill="#263238"/>
<path d="M96.4632 104.068H93.6364C93.5862 104.069 93.5377 104.086 93.4981 104.117C93.4586 104.148 93.4302 104.191 93.4174 104.239L92.8668 106.474C92.8536 106.528 92.853 106.584 92.865 106.638C92.8769 106.692 92.9011 106.743 92.9358 106.786C92.9704 106.829 93.0145 106.864 93.0646 106.887C93.1148 106.911 93.1696 106.922 93.225 106.921C94.2195 106.921 94.705 106.853 95.9363 106.853C96.7 106.853 98.6773 106.927 99.734 106.927C100.791 106.927 100.954 105.882 100.524 105.787C98.5944 105.364 97.4755 104.778 96.8687 104.222C96.7579 104.121 96.613 104.066 96.4632 104.068Z" fill="#263238"/>
<path opacity="0.2" d="M96.0801 99.1748C96.7833 99.2422 97.2665 99.9132 97.1074 100.601L96.9321 101.36C96.7996 101.933 96.2614 102.318 95.6759 102.259C94.9755 102.188 94.4962 101.519 94.6546 100.833L94.8298 100.075C94.9618 99.5039 95.4965 99.1189 96.0801 99.1748Z" fill="black"/>
<path opacity="0.2" d="M80.0854 94.7344C80.487 94.2826 81.1635 94.2038 81.6582 94.5513C82.2397 94.9597 82.3356 95.7837 81.8635 96.3148L81.5612 96.655C81.1591 97.1073 80.4815 97.1856 79.9868 96.8369C79.4067 96.4279 79.3116 95.6052 79.7831 95.0746L80.0854 94.7344Z" fill="black"/>
<path d="M100.993 49.8783C100.039 52.5851 101.046 55.7189 103.633 56.9604C105.921 58.0583 108.681 57.296 110.03 55.1468C113.012 50.3977 114.058 48.1861 114.411 47.1652C114.602 46.6089 114.323 46.1278 113.848 45.7796C113.322 45.3934 112.562 44.8518 111.778 44.3495C111.562 44.2134 111.343 44.0772 111.127 43.947C109.854 43.2157 108.53 42.5757 107.166 42.0319C106.965 41.946 106.764 41.8661 106.574 41.7862C104.8 41.1123 102.95 42.3075 102.541 44.1605C102.461 44.5242 102.381 44.8729 102.303 45.2079C101.918 46.8596 101.554 48.1679 101.19 49.3046C101.126 49.4964 101.061 49.6877 100.993 49.8783Z" fill="#263238"/>
<path opacity="0.3" d="M102.199 45.6236C101.996 46.4755 102.684 46.7768 102.96 45.9457C103.016 45.7765 103.067 45.6112 103.11 45.4521C103.236 44.9886 102.759 44.7693 102.414 45.1037C102.336 45.1796 102.281 45.2763 102.256 45.3824C102.237 45.4636 102.218 45.544 102.199 45.6236Z" fill="black"/>
<path d="M109.005 39.587C108.902 39.8545 108.788 40.1195 108.664 40.3717C108.017 41.682 106.986 41.5925 107.025 43.053C107.079 45.1004 111.596 46.6372 111.402 44.5983C111.385 44.4204 111.33 44.2735 111.274 44.1644C111.194 44.0084 111.056 43.8941 110.928 43.7736C110.16 43.0501 110.202 42.3421 110.707 41.4722C111.033 40.9102 111.018 40.1956 110.568 39.7271C110.462 39.6168 110.385 39.4812 110.284 39.3662C110.237 39.3124 110.182 39.2652 110.121 39.2263C109.995 39.1456 109.847 39.1041 109.698 39.107C109.548 39.1098 109.402 39.1569 109.279 39.2423C109.155 39.3277 109.06 39.4476 109.005 39.587Z" fill="#FF8B7B"/>
<path opacity="0.2" d="M110.563 39.7234C110.46 39.6156 110.386 39.4833 110.29 39.3693C110.248 39.3187 110.198 39.2736 110.144 39.2353C110.027 39.1538 109.89 39.1067 109.748 39.0993C109.605 39.0919 109.464 39.1245 109.34 39.1934C109.099 39.3266 109.062 39.6382 109.129 39.9048C109.244 40.3635 109.423 40.8023 109.66 41.2086C109.941 41.6914 110.623 41.5576 110.93 41.0903C111.143 40.7649 111.138 40.328 110.87 40.0461L110.563 39.7234Z" fill="black"/>
<path d="M108.336 35.437C108.232 37.8228 108.137 38.8292 109.182 40.1938C110.754 42.245 113.649 41.9135 114.451 39.6225C115.173 37.5505 115.227 33.9985 113.051 32.776C112.578 32.5007 112.041 32.3539 111.494 32.3503C110.946 32.3467 110.408 32.4863 109.931 32.7554C109.454 33.0244 109.056 33.4134 108.776 33.8839C108.496 34.3543 108.345 34.8897 108.336 35.437Z" fill="#FF8B7B"/>
<path d="M115.239 36.0213C115.242 36.0171 115.248 36.0152 115.253 36.015C115.257 36.0148 115.26 36.0124 115.262 36.0091C115.276 35.9845 115.281 35.9556 115.275 35.9278C115.269 35.898 115.252 35.8718 115.227 35.8544C115.084 35.7479 114.917 35.678 114.741 35.6507C114.566 35.6233 114.386 35.6394 114.217 35.6975C114.189 35.7093 114.167 35.7318 114.155 35.7601C114.143 35.7884 114.143 35.8202 114.155 35.8485C114.167 35.8767 114.189 35.8991 114.218 35.9108C114.246 35.9225 114.278 35.9224 114.306 35.9106C114.44 35.8658 114.583 35.8545 114.722 35.8778C114.862 35.901 114.993 35.958 115.105 36.0438C115.128 36.0569 115.155 36.0611 115.18 36.0556C115.203 36.0508 115.224 36.0387 115.239 36.0213Z" fill="#263238"/>
<path d="M106.753 35.0896C107.383 32.7688 108.745 34.1764 109.449 36.4761C109.745 37.4736 107.475 39.5811 106.859 37.8051C106.59 37.0294 106.509 35.9872 106.753 35.0896Z" fill="#614378"/>
<path d="M112.552 31.7587C109.828 31.3041 110.855 31.997 112.24 34.3863C113.004 35.7035 116.781 34.9369 115.686 33.4095C115.158 32.6739 113.887 31.9816 112.552 31.7587Z" fill="#614378"/>
<path d="M107.472 37.441C107.538 37.9392 107.794 38.3924 108.188 38.7049C108.709 39.1134 109.206 38.7049 109.257 38.0774C109.301 37.5121 109.085 36.6211 108.466 36.4583C107.848 36.2955 107.395 36.8283 107.472 37.441Z" fill="#FF8B7B"/>
<path d="M103.781 56.9952C106.045 58.1028 107.272 60.6021 106.764 63.071C105.885 67.3515 104.491 74.1617 103.345 79.8934C102.184 85.6997 99.1949 95.7217 98.0423 99.5099C97.7736 100.393 96.9199 100.953 96.0014 100.862C94.9571 100.758 94.1858 99.8515 94.2786 98.8062C94.5586 95.6541 95.249 89.1501 96.5186 84.2837C97.3709 81.0167 98.3763 77.6735 98.2711 74.2988C98.0713 67.8918 97.7621 62.0325 98.8675 58.4047C99.4888 56.3656 101.866 56.0585 103.781 56.9952Z" fill="#614378"/>
<path d="M93.5818 100.481C93.6114 100.015 94.0273 99.67 94.4908 99.7271L97.2836 100.071C97.756 100.13 98.07 100.589 97.9525 101.051C97.8554 101.432 97.493 101.683 97.1021 101.641L94.3045 101.339C93.8728 101.292 93.5544 100.914 93.5818 100.481Z" fill="#263238"/>
<path opacity="0.3" d="M101.542 65.3677C101.539 64.9152 101.33 64.4943 101.004 64.181C99.884 63.1061 98.0762 63.7944 98.0566 65.3463C98.0517 65.7278 98.0501 66.116 98.0511 66.5104C98.0572 68.9715 101.025 69.5732 101.403 67.1413C101.497 66.5346 101.546 65.9415 101.542 65.3677Z" fill="black"/>
<path d="M101.134 55.7748C103.609 56.9726 104.561 60.0158 103.258 62.4374C101.012 66.6133 97.73 72.9878 95.6461 78.2506C95.2331 79.3105 94.7269 80.3318 94.1336 81.3024C90.9733 86.4085 85.6285 92.6938 83.269 95.3902C82.6127 96.1401 81.4851 96.216 80.7205 95.5768C80.0468 95.0137 79.8582 94.0595 80.2768 93.2876C81.6473 90.7598 84.75 85.1227 87.3954 80.9371C89.2981 77.9265 90.9253 74.6647 91.6755 71.1831C93.0622 64.7478 94.497 59.2577 97.0034 56.2971C98.0117 55.106 99.7291 55.0949 101.134 55.7748Z" fill="#614378"/>
<path d="M82.4809 97.0747C82.2092 97.3296 81.7926 97.3493 81.498 97.1213L79.2712 95.3979C78.9621 95.1587 78.8712 94.731 79.0564 94.3868C79.2949 93.9431 79.8794 93.8278 80.2685 94.1477L82.4437 95.9359C82.7971 96.2265 82.8147 96.7616 82.4809 97.0747Z" fill="#263238"/>
<path d="M99.0804 54.0883C99.0253 54.0873 98.9783 54.1231 98.9352 54.1574L98.2542 54.6979C98.198 54.7423 98.2394 54.8399 98.343 54.8903L107.495 59.2859C107.575 59.3214 107.655 59.3155 107.685 59.2681L108.114 58.5133C108.147 58.463 108.096 58.3831 108.01 58.3416L99.16 54.1088C99.1354 54.0959 99.1082 54.0888 99.0804 54.0883Z" fill="#614378"/>
<path opacity="0.2" d="M99.0804 54.0883C99.0253 54.0873 98.9783 54.1231 98.9352 54.1574L98.2542 54.6979C98.198 54.7423 98.2394 54.8399 98.343 54.8903L107.495 59.2859C107.575 59.3214 107.655 59.3155 107.685 59.2681L108.114 58.5133C108.147 58.463 108.096 58.3831 108.01 58.3416L99.16 54.1088C99.1354 54.0959 99.1082 54.0888 99.0804 54.0883Z" fill="black"/>
<path d="M99.8094 55.6988C99.7677 55.6988 99.7327 55.6682 99.6952 55.6499L99.5149 55.562C99.4675 55.5413 99.4409 55.4999 99.4587 55.4703L100.027 54.4964C100.071 54.4232 100.181 54.5153 100.258 54.5527L100.379 54.6119C100.427 54.6326 100.453 54.677 100.435 54.7036L99.8988 55.6232C99.8778 55.6591 99.851 55.6988 99.8094 55.6988Z" fill="#614378"/>
<path d="M106.791 59.0638L106.554 58.9484C106.506 58.9277 106.483 58.8833 106.501 58.8566L107.069 57.8828C107.113 57.8096 107.223 57.9016 107.3 57.939L107.421 57.9982C107.468 58.019 107.492 58.0604 107.477 58.09L106.967 58.9595C106.927 59.029 106.864 59.0961 106.791 59.0638Z" fill="#614378"/>
<path d="M103.265 57.3707L103.028 57.2552C102.984 57.2345 102.957 57.1931 102.975 57.1635L103.543 56.1896C103.587 56.1164 103.697 56.2084 103.774 56.2458L103.896 56.3051C103.943 56.3258 103.97 56.3672 103.952 56.3968L103.446 57.2638C103.404 57.3348 103.337 57.4096 103.265 57.3707Z" fill="#614378"/>
<path d="M111.687 36.5501C111.666 36.7425 111.749 36.9112 111.873 36.929C111.997 36.9468 112.113 36.8017 112.133 36.6093C112.154 36.4169 112.068 36.2452 111.947 36.2304C111.826 36.2156 111.707 36.3577 111.687 36.5501Z" fill="#263238"/>
<path d="M113.824 36.8254C113.803 37.0178 113.886 37.1865 114.01 37.2042C114.135 37.222 114.25 37.077 114.271 36.8816C114.291 36.6862 114.209 36.5205 114.084 36.5057C113.96 36.4909 113.844 36.633 113.824 36.8254Z" fill="#263238"/>
<path d="M114.181 36.6053C114.098 36.5955 114.129 36.4927 114.211 36.4796C114.311 36.4638 114.361 36.5718 114.264 36.5982C114.237 36.6055 114.209 36.6086 114.181 36.6053Z" fill="#263238"/>
<path d="M111.814 38.0507C111.721 38.0506 111.628 38.0387 111.538 38.0152C111.36 37.9677 111.194 37.8802 111.054 37.7591C110.914 37.6381 110.803 37.4868 110.73 37.3167C110.566 36.9379 110.532 36.5155 110.632 36.1151C110.733 35.7147 110.963 35.3588 111.287 35.1026C111.43 34.9843 111.599 34.9014 111.78 34.8605C111.961 34.8196 112.149 34.8218 112.329 34.8671C112.509 34.9123 112.676 34.9993 112.817 35.1209C112.957 35.2425 113.067 35.3955 113.137 35.5673C113.309 35.9442 113.343 36.3693 113.235 36.7691C113.141 37.1724 112.91 37.5305 112.58 37.7814C112.361 37.9516 112.092 38.0461 111.814 38.0507ZM112.053 34.9723C111.806 34.977 111.566 35.0611 111.37 35.2121C111.071 35.449 110.859 35.7778 110.766 36.1475C110.672 36.5172 110.704 36.9073 110.855 37.2575C110.916 37.4107 111.013 37.5473 111.138 37.6559C111.262 37.7646 111.41 37.8423 111.571 37.8827C111.731 37.9231 111.898 37.9251 112.059 37.8884C112.22 37.8518 112.371 37.7776 112.497 37.6719C112.796 37.4349 113.008 37.1062 113.102 36.7365C113.195 36.3667 113.163 35.9766 113.013 35.6265C112.948 35.4753 112.85 35.3406 112.726 35.2325C112.602 35.1244 112.455 35.0456 112.296 35.0019C112.217 34.9819 112.135 34.972 112.053 34.9723Z" fill="white"/>
<path d="M114.404 38.4356C114.339 38.4352 114.275 38.4273 114.212 38.4119C113.62 38.261 113.324 37.4351 113.528 36.5678C113.732 35.7006 114.416 35.1145 115.008 35.2625C115.6 35.4105 115.896 36.2393 115.689 37.1095C115.596 37.5016 115.39 37.8578 115.097 38.1337C114.911 38.3167 114.664 38.4243 114.404 38.4356ZM114.809 35.3779C114.333 35.3779 113.842 35.887 113.664 36.6004C113.463 37.3937 113.723 38.1455 114.256 38.2758C114.393 38.302 114.535 38.2933 114.668 38.2503C114.801 38.2074 114.921 38.1316 115.017 38.0301C115.289 37.7722 115.478 37.4395 115.561 37.074C115.76 36.2807 115.499 35.5289 114.969 35.3986C114.917 35.3845 114.863 35.3775 114.809 35.3779Z" fill="white"/>
<path d="M113.61 36.7029C113.593 36.7062 113.574 36.7062 113.558 36.6999C113.556 36.6991 113.554 36.6981 113.552 36.697C113.542 36.6917 113.533 36.684 113.528 36.6744C113.465 36.5929 113.318 36.6177 113.258 36.6319C113.24 36.6361 113.223 36.6436 113.205 36.6424C113.196 36.6419 113.187 36.6395 113.179 36.6355C113.171 36.6315 113.164 36.626 113.158 36.6192C113.152 36.6124 113.147 36.6045 113.144 36.596C113.141 36.5874 113.14 36.5784 113.141 36.5694C113.141 36.5604 113.144 36.5515 113.148 36.5434C113.152 36.5353 113.157 36.5281 113.164 36.5221C113.176 36.5114 113.197 36.5054 113.213 36.5014C113.291 36.4815 113.528 36.4373 113.643 36.5915C113.656 36.6047 113.663 36.6222 113.663 36.6404C113.663 36.6464 113.662 36.6523 113.66 36.658C113.654 36.6812 113.634 36.6984 113.61 36.7029Z" fill="white"/>
<path d="M113.255 38.2718C113.281 38.0275 113.703 37.9787 113.818 38.1961C113.875 38.3059 113.838 38.4472 113.717 38.4752C113.675 38.4851 113.631 38.4916 113.587 38.4944C113.524 38.4985 113.461 38.495 113.399 38.4842C113.301 38.4672 113.245 38.3704 113.255 38.2718Z" fill="#FF5652"/>
<path d="M112.441 39.1164C112.455 39.1164 112.469 39.1151 112.48 39.1066C112.484 39.1038 112.487 39.1007 112.49 39.0971C112.497 39.0883 112.502 39.0775 112.503 39.0661C112.504 39.0513 112.5 39.0368 112.49 39.0252C112.481 39.0137 112.468 39.0061 112.453 39.004C112.214 38.977 111.985 38.8948 111.784 38.7638C111.589 38.6373 111.426 38.4688 111.306 38.2707C111.297 38.2565 111.292 38.2398 111.281 38.2271C111.276 38.2207 111.269 38.2156 111.261 38.2122C111.253 38.2088 111.245 38.2072 111.237 38.2074C111.228 38.2077 111.22 38.2098 111.213 38.2136C111.205 38.2175 111.199 38.223 111.194 38.2297C111.188 38.2364 111.185 38.2441 111.183 38.2523C111.182 38.2606 111.182 38.2691 111.184 38.2772C111.188 38.2935 111.199 38.3068 111.208 38.3213C111.334 38.5378 111.509 38.7222 111.719 38.8598C111.935 39.002 112.183 39.09 112.441 39.1164Z" fill="#263238"/>
<path d="M111.554 35.7819C111.554 35.7841 111.556 35.7858 111.558 35.785C111.574 35.7795 111.589 35.7698 111.601 35.7568C111.694 35.6515 111.811 35.5698 111.941 35.5183C112.072 35.4668 112.213 35.4471 112.353 35.4608C112.367 35.4638 112.382 35.4638 112.396 35.4609C112.411 35.4581 112.425 35.4523 112.437 35.444C112.449 35.4357 112.459 35.4251 112.467 35.4127C112.475 35.4003 112.481 35.3865 112.483 35.372C112.488 35.3418 112.482 35.3108 112.465 35.2854C112.447 35.26 112.421 35.2422 112.391 35.2358C112.216 35.2119 112.037 35.2315 111.871 35.2929C111.704 35.3543 111.556 35.4557 111.438 35.588C111.421 35.6065 111.411 35.6299 111.408 35.6549C111.406 35.6798 111.412 35.7048 111.425 35.7262C111.438 35.7476 111.457 35.7641 111.481 35.7734C111.502 35.7821 111.526 35.7839 111.549 35.7786C111.551 35.7781 111.554 35.7797 111.554 35.7819Z" fill="#263238"/>
<path d="M79.8372 100.459C79.8506 100.466 79.8655 100.468 79.8804 100.468C79.889 100.468 79.8975 100.469 79.906 100.471C79.9549 100.48 80.0053 100.477 80.053 100.463C80.1049 100.447 80.1518 100.419 80.1893 100.38C80.2157 100.357 80.236 100.329 80.2484 100.297C80.2608 100.265 80.2649 100.23 80.2604 100.196C80.213 99.9 79.4375 99.5389 79.3487 99.4975C79.3383 99.493 79.3269 99.4917 79.3158 99.4938C79.3047 99.4959 79.2945 99.5013 79.2865 99.5093C79.2785 99.5173 79.2731 99.5275 79.271 99.5385C79.2689 99.5496 79.2702 99.5611 79.2747 99.5715C79.3756 99.8628 79.5777 100.334 79.8372 100.459ZM79.9229 100.368C79.6274 100.29 79.9872 99.9082 80.1352 100.176C80.1448 100.193 80.1512 100.21 80.1538 100.226C80.1556 100.241 80.1532 100.256 80.147 100.27C80.1346 100.298 80.1089 100.318 80.0839 100.336C80.0671 100.347 80.0486 100.357 80.029 100.363C79.9947 100.374 79.9581 100.375 79.9229 100.368Z" fill="#614378"/>
<path d="M79.3042 99.607C79.3416 99.6287 79.3803 99.6481 79.4215 99.6614C79.7066 99.7529 80.2168 99.7895 80.3846 99.6218C80.4155 99.5889 80.4348 99.5468 80.4396 99.5019C80.4444 99.4571 80.4345 99.4118 80.4112 99.3731C80.3928 99.3341 80.366 99.2995 80.3327 99.2719C80.2995 99.2443 80.2606 99.2243 80.2188 99.2133C79.9243 99.1284 79.4442 99.4336 79.3245 99.4977C79.3078 99.5066 79.2878 99.5142 79.2798 99.5313C79.2756 99.5401 79.2738 99.5499 79.2746 99.5596C79.2747 99.5695 79.2774 99.5791 79.2827 99.5875C79.2879 99.5958 79.2954 99.6026 79.3042 99.607ZM80.2129 99.3287C80.2566 99.3464 80.2916 99.3804 80.3106 99.4235C80.3431 99.4886 80.3254 99.5211 80.3106 99.5389C80.2834 99.5667 80.2363 99.5874 80.1767 99.6015C79.8778 99.6722 79.8298 99.3323 80.1368 99.3232C80.15 99.3228 80.1632 99.3226 80.1764 99.3226C80.1888 99.3227 80.2011 99.3248 80.2129 99.3287Z" fill="#614378"/>
<path d="M97.7301 104.532C97.9218 104.547 98.1132 104.502 98.2777 104.402C98.3197 104.37 98.3537 104.329 98.3773 104.282C98.4009 104.235 98.4134 104.183 98.4139 104.13C98.4164 104.1 98.4105 104.069 98.3969 104.042C98.3834 104.015 98.3626 103.992 98.3369 103.976C98.0764 103.804 97.1263 104.239 96.9398 104.328C96.9292 104.334 96.9207 104.342 96.9154 104.353C96.91 104.364 96.9082 104.376 96.9102 104.387C96.9118 104.399 96.9169 104.41 96.9249 104.418C96.9328 104.427 96.9432 104.432 96.9546 104.435C97.2089 104.495 97.4689 104.528 97.7301 104.532ZM98.1652 104.047C98.1842 104.045 98.2033 104.046 98.2218 104.05C98.2608 104.058 98.3014 104.084 98.3014 104.124C98.3016 104.16 98.2932 104.196 98.2767 104.229C98.2602 104.261 98.2362 104.289 98.2067 104.31C98.2031 104.313 98.1995 104.316 98.1957 104.319C97.9196 104.514 97.8302 104.095 98.1652 104.047Z" fill="#614378"/>
<path d="M96.9586 104.439C96.9639 104.439 96.9692 104.438 96.9745 104.438C96.9829 104.438 96.991 104.436 96.9987 104.433C97.2334 104.332 97.6252 104.033 97.7955 103.777C97.8948 103.627 97.8579 103.397 97.6799 103.375C97.1145 103.31 96.9073 104.331 96.8984 104.373C96.8959 104.383 96.8962 104.393 96.8993 104.403C96.9025 104.413 96.9083 104.422 96.9162 104.429C96.9235 104.434 96.9317 104.437 96.9404 104.439C96.9464 104.44 96.9526 104.44 96.9586 104.439ZM97.6414 103.482H97.6799C97.7391 103.482 97.7716 103.499 97.7775 103.535C97.7782 103.539 97.7785 103.543 97.7785 103.547C97.7796 103.938 97.2506 103.482 97.6414 103.482Z" fill="#614378"/>
<path d="M112.043 36.3301C111.959 36.3207 111.99 36.2172 112.073 36.2041C112.173 36.1883 112.223 36.296 112.126 36.3228C112.099 36.3302 112.071 36.3333 112.043 36.3301Z" fill="#263238"/>
<path d="M103.197 44.7967C102.629 45.3058 102.064 45.7498 101.481 46.2086C100.897 46.6674 100.297 47.0966 99.6808 47.511C99.057 47.9382 98.4119 48.3334 97.7479 48.695C97.023 49.1116 96.2482 49.4349 95.4421 49.657L95.3711 49.6748C95.1961 49.7177 95.0133 49.7177 94.8383 49.6748C94.2375 49.5219 93.6593 49.291 93.1185 48.9881C92.6305 48.7221 92.1599 48.4256 91.7095 48.1001C91.2715 47.7784 90.8521 47.44 90.4515 47.0848C90.0519 46.7207 89.6731 46.3655 89.3001 45.9541C89.1856 45.8252 89.1197 45.6605 89.1137 45.4882C89.1077 45.316 89.1621 45.1471 89.2673 45.0106C89.3725 44.8742 89.5221 44.7787 89.6902 44.7407C89.8541 44.7037 90.0256 44.7236 90.1765 44.7968C90.1842 44.8006 90.1925 44.8026 90.2011 44.8026C90.21 44.8026 90.2189 44.8048 90.2268 44.8091C90.6522 45.0382 91.0921 45.2902 91.529 45.513C91.97 45.738 92.417 45.9689 92.8491 46.1761C93.2813 46.3833 93.7371 46.5727 94.1486 46.7296C94.4113 46.8323 94.6814 46.9142 94.9566 46.9746C94.9987 46.9839 94.9937 47.0569 94.9506 47.0586C94.9106 47.0602 94.8983 47.0033 94.9352 46.9877C95.4216 46.7826 95.8885 46.5337 96.3301 46.2441C96.8866 45.8919 97.446 45.5012 97.9995 45.0986C98.5531 44.6961 99.1036 44.2698 99.6512 43.8406C100.197 43.413 100.742 42.956 101.262 42.5457C101.265 42.5428 101.27 42.5412 101.275 42.5412C101.28 42.5412 101.284 42.5395 101.288 42.5365C101.588 42.2997 101.967 42.1877 102.347 42.2242C102.73 42.2609 103.084 42.4451 103.333 42.7379C103.582 43.0307 103.708 43.409 103.683 43.7927C103.658 44.1764 103.485 44.5354 103.2 44.7937L103.197 44.7967Z" fill="#FF8B7B"/>
<path d="M90.4016 45.858C90.5319 45.618 90.5438 45.3311 90.4338 45.0811L90.3085 44.7964C90.0677 44.249 89.3687 44.0863 88.9109 44.4709C88.5585 44.7669 88.4877 45.2836 88.8076 45.6143C88.9962 45.8093 89.2258 46.0155 89.4782 46.1769C89.81 46.389 90.2137 46.204 90.4016 45.858Z" fill="#FF8B7B"/>
<path d="M89.5098 43.1484C89.3096 42.805 88.8427 42.7355 88.5512 43.0058C88.3894 43.1561 88.268 43.3447 88.1982 43.5541C88.1284 43.7636 88.1123 43.9873 88.1516 44.2046C88.2131 44.5557 88.6328 44.7072 88.9044 44.4764L89.3971 44.0577C89.6458 43.8464 89.7072 43.4872 89.5429 43.2052L89.5098 43.1484Z" fill="#FF8B7B"/>
<path d="M103.236 40.7563C102.613 40.6395 101.566 41.3308 100.724 42.0019C99.9011 42.6577 99.7083 43.7995 100.16 44.7497C100.788 46.0699 102.442 46.5757 103.518 45.5859C104.191 44.9667 104.757 44.2657 104.751 43.663C104.739 42.328 104.731 41.0375 103.236 40.7563Z" fill="#263238"/>
<path d="M88.0299 39.5753C88.026 39.5733 88.0217 39.5723 88.0174 39.5723C87.6896 39.5716 87.3652 39.5067 87.0624 39.381C86.7576 39.2545 86.4808 39.0691 86.248 38.8353C82.9997 35.5886 78.5951 33.7647 74.0024 33.7647C69.4098 33.7647 65.0052 35.5886 61.7569 38.8353C61.2773 39.2615 60.6529 39.4884 60.0115 39.4695C59.3702 39.4506 58.7602 39.1874 58.3065 38.7337C57.8528 38.28 57.5896 37.67 57.5707 37.0286C57.5518 36.3872 57.7787 35.7629 58.2049 35.2833C62.3968 31.093 68.0813 28.7391 74.0084 28.7391C79.9354 28.7391 85.6199 31.093 89.8118 35.2833C90.1635 35.6349 90.403 36.083 90.5001 36.5707C90.5973 37.0585 90.5477 37.5641 90.3577 38.0236C90.1676 38.4832 89.8456 38.8762 89.4324 39.1529C89.021 39.4283 88.5375 39.5763 88.0424 39.5782C88.0381 39.5782 88.0338 39.5772 88.0299 39.5753Z" fill="#614378"/>
<path opacity="0.4" d="M88.0299 39.5753C88.026 39.5733 88.0217 39.5723 88.0174 39.5723C87.6896 39.5716 87.3652 39.5067 87.0624 39.381C86.7576 39.2545 86.4808 39.0691 86.248 38.8353C82.9997 35.5886 78.5951 33.7647 74.0024 33.7647C69.4098 33.7647 65.0052 35.5886 61.7569 38.8353C61.2773 39.2615 60.6529 39.4884 60.0115 39.4695C59.3702 39.4506 58.7602 39.1874 58.3065 38.7337C57.8528 38.28 57.5896 37.67 57.5707 37.0286C57.5518 36.3872 57.7787 35.7629 58.2049 35.2833C62.3968 31.093 68.0813 28.7391 74.0084 28.7391C79.9354 28.7391 85.6199 31.093 89.8118 35.2833C90.1635 35.6349 90.403 36.083 90.5001 36.5707C90.5973 37.0585 90.5477 37.5641 90.3577 38.0236C90.1676 38.4832 89.8456 38.8762 89.4324 39.1529C89.021 39.4283 88.5375 39.5763 88.0424 39.5782C88.0381 39.5782 88.0338 39.5772 88.0299 39.5753Z" fill="white"/>
<path d="M89.8029 66.896C90.2291 66.4164 90.456 65.792 90.4372 65.1506C90.4183 64.5093 90.155 63.8993 89.7013 63.4456C89.2476 62.9919 88.6377 62.7286 87.9963 62.7098C87.3549 62.6909 86.7305 62.9178 86.2509 63.344C82.9903 66.5294 78.6054 68.3008 74.0472 68.2742C69.4891 68.2476 65.1251 66.4251 61.9019 63.2019C58.6788 59.9787 56.8562 55.6148 56.8296 51.0566C56.803 46.4984 58.5745 42.1135 61.7599 38.853C62.1861 38.3733 62.413 37.749 62.3941 37.1076C62.3752 36.4662 62.112 35.8563 61.6583 35.4025C61.2046 34.9488 60.5946 34.6856 59.9532 34.6667C59.3118 34.6478 58.6875 34.8747 58.2079 35.301C55.2335 38.2744 53.1587 42.0268 52.222 46.1269C51.2852 50.2269 51.5246 54.5081 52.9126 58.4782C54.3006 62.4482 56.7808 65.946 60.0681 68.5693C62.2889 70.3415 64.8172 71.6661 67.5125 72.4846C69.732 73.1587 71.4953 75.0602 71.4953 77.3799C71.4953 79.8977 69.4542 81.9387 66.9364 81.9387H66.4011C65.7339 81.9387 65.0939 82.2038 64.6221 82.6757C64.1502 83.1475 63.8851 83.7875 63.8851 84.4547C63.8851 85.122 64.1502 85.762 64.6221 86.2338C65.0939 86.7057 65.7339 86.9707 66.4011 86.9707C69.1933 86.9707 71.4835 89.2342 71.4835 92.0264C71.4835 92.6937 71.7485 93.3337 72.2204 93.8055C72.6922 94.2773 73.3322 94.5424 73.9995 94.5424C74.6667 94.5424 75.3067 94.2773 75.7785 93.8055C76.2504 93.3337 76.5155 92.6937 76.5155 92.0264C76.5155 89.2212 78.7925 86.9471 81.5978 86.9471C82.2651 86.9471 82.905 86.682 83.3769 86.2101C83.8487 85.7383 84.1138 85.0983 84.1138 84.4311C84.1138 83.7638 83.8487 83.1238 83.3769 82.652C82.905 82.1801 82.2651 81.9151 81.5978 81.9151H81.068C78.5537 81.9151 76.5155 79.8768 76.5155 77.3626C76.5155 75.0411 78.284 73.1398 80.5063 72.4685C83.998 71.4136 87.1972 69.5079 89.8029 66.896Z" fill="#614378"/>
<path d="M106.598 21.2055C106.6 21.1858 106.6 21.166 106.598 21.1463C106.598 21.0723 106.598 20.9953 106.598 20.9213C106.598 20.8473 106.598 20.8621 106.598 20.8325C106.598 20.8121 106.598 20.7524 106.591 20.695C106.586 20.6463 106.58 20.5972 106.577 20.5483C106.545 20.3591 106.49 20.1743 106.415 19.9978L106.388 19.9445C106.369 19.899 106.347 19.8544 106.324 19.8108C106.299 19.764 106.271 19.7171 106.243 19.6722C106.206 19.6095 106.166 19.5492 106.122 19.4916L106.074 19.4295C106.016 19.3517 105.951 19.2785 105.882 19.2104C105.814 19.1416 105.742 19.0773 105.666 19.018L105.601 18.9707C105.541 18.9263 105.482 18.8878 105.423 18.8493L105.349 18.8049C105.286 18.7688 105.22 18.7362 105.154 18.7072L105.091 18.6776C104.942 18.6127 104.787 18.5634 104.628 18.5303C104.574 18.5191 104.519 18.5148 104.464 18.5148C104.399 18.5148 104.331 18.4971 104.263 18.4941H104.168C104.097 18.4941 104.023 18.4941 103.952 18.4941H103.884C103.784 18.5016 103.685 18.5155 103.588 18.5355L88.7138 21.6643C88.0607 21.8017 87.4888 22.1929 87.1241 22.7519C86.7594 23.3109 86.6317 23.9918 86.7691 24.645C86.9065 25.2981 87.2977 25.87 87.8567 26.2347C88.4157 26.5994 89.0967 26.7271 89.7498 26.5897C91.6987 26.1793 92.9866 28.5566 91.5783 29.9649L86.257 35.2862C86.1363 35.4072 86.0282 35.54 85.9344 35.6828C85.8874 35.7511 85.8449 35.8223 85.8071 35.896C85.7305 36.0402 85.669 36.1919 85.6236 36.3488C85.5775 36.5045 85.5458 36.664 85.5289 36.8254C85.5289 36.9063 85.5289 36.9862 85.5289 37.0652C85.5289 37.148 85.5289 37.228 85.5289 37.3079C85.5855 37.8891 85.843 38.4323 86.257 38.8441C89.4986 42.095 91.319 46.4987 91.319 51.0896C91.319 55.6806 89.4986 60.0842 86.257 63.3352C86.0007 63.5629 85.7937 63.8407 85.6486 64.1513C85.5036 64.462 85.4235 64.7991 85.4134 65.1418C85.4034 65.4845 85.4634 65.8257 85.59 66.1443C85.7165 66.463 85.9068 66.7524 86.1493 66.9949C86.3917 67.2373 86.6812 67.4277 86.9998 67.5542C87.3185 67.6807 87.6597 67.7408 88.0024 67.7307C88.3451 67.7206 88.6822 67.6406 88.9928 67.4955C89.3035 67.3505 89.5812 67.1434 89.809 66.8872C93.6848 63.0002 95.997 57.8244 96.3059 52.344C96.5678 47.6969 95.3739 43.1057 92.923 39.1965C92.1687 37.9933 92.2425 36.4047 93.2467 35.4005L95.1303 33.5169C96.5386 32.1086 98.9159 33.3965 98.5055 35.3454C98.3696 35.9984 98.4979 36.6787 98.8624 37.2373C99.2268 37.796 99.7978 38.1874 100.45 38.3261C100.622 38.3612 100.796 38.3791 100.971 38.3794C101.548 38.3789 102.107 38.1801 102.555 37.8163C103.003 37.4526 103.312 36.946 103.431 36.3814L106.56 21.5044C106.579 21.4057 106.591 21.3058 106.598 21.2055Z" fill="#614378"/>
<path opacity="0.4" d="M106.598 21.2055C106.6 21.1858 106.6 21.166 106.598 21.1463C106.598 21.0723 106.598 20.9953 106.598 20.9213C106.598 20.8473 106.598 20.8621 106.598 20.8325C106.598 20.8121 106.598 20.7524 106.591 20.695C106.586 20.6463 106.58 20.5972 106.577 20.5483C106.545 20.3591 106.49 20.1743 106.415 19.9978L106.388 19.9445C106.369 19.899 106.347 19.8544 106.324 19.8108C106.299 19.764 106.271 19.7171 106.243 19.6722C106.206 19.6095 106.166 19.5492 106.122 19.4916L106.074 19.4295C106.016 19.3517 105.951 19.2785 105.882 19.2104C105.814 19.1416 105.742 19.0773 105.666 19.018L105.601 18.9707C105.541 18.9263 105.482 18.8878 105.423 18.8493L105.349 18.8049C105.286 18.7688 105.22 18.7362 105.154 18.7072L105.091 18.6776C104.942 18.6127 104.787 18.5634 104.628 18.5303C104.574 18.5191 104.519 18.5148 104.464 18.5148C104.399 18.5148 104.331 18.4971 104.263 18.4941H104.168C104.097 18.4941 104.023 18.4941 103.952 18.4941H103.884C103.784 18.5016 103.685 18.5155 103.588 18.5355L88.7138 21.6643C88.0607 21.8017 87.4888 22.1929 87.1241 22.7519C86.7594 23.3109 86.6317 23.9918 86.7691 24.645C86.9065 25.2981 87.2977 25.87 87.8567 26.2347C88.4157 26.5994 89.0967 26.7271 89.7498 26.5897C91.6987 26.1793 92.9866 28.5566 91.5783 29.9649L86.257 35.2862C86.1363 35.4072 86.0282 35.54 85.9344 35.6828C85.8874 35.7511 85.8449 35.8223 85.8071 35.896C85.7305 36.0402 85.669 36.1919 85.6236 36.3488C85.5775 36.5045 85.5458 36.664 85.5289 36.8254C85.5289 36.9063 85.5289 36.9862 85.5289 37.0652C85.5289 37.148 85.5289 37.228 85.5289 37.3079C85.5855 37.8891 85.843 38.4323 86.257 38.8441C89.4986 42.095 91.319 46.4987 91.319 51.0896C91.319 55.6806 89.4986 60.0842 86.257 63.3352C86.0007 63.5629 85.7937 63.8407 85.6486 64.1513C85.5036 64.462 85.4235 64.7991 85.4134 65.1418C85.4034 65.4845 85.4634 65.8257 85.59 66.1443C85.7165 66.463 85.9068 66.7524 86.1493 66.9949C86.3917 67.2373 86.6812 67.4277 86.9998 67.5542C87.3185 67.6807 87.6597 67.7408 88.0024 67.7307C88.3451 67.7206 88.6822 67.6406 88.9928 67.4955C89.3035 67.3505 89.5812 67.1434 89.809 66.8872C93.6848 63.0002 95.997 57.8244 96.3059 52.344C96.5678 47.6969 95.3739 43.1057 92.923 39.1965C92.1687 37.9933 92.2425 36.4047 93.2467 35.4005L95.1303 33.5169C96.5386 32.1086 98.9159 33.3965 98.5055 35.3454C98.3696 35.9984 98.4979 36.6787 98.8624 37.2373C99.2268 37.796 99.7978 38.1874 100.45 38.3261C100.622 38.3612 100.796 38.3791 100.971 38.3794C101.548 38.3789 102.107 38.1801 102.555 37.8163C103.003 37.4526 103.312 36.946 103.431 36.3814L106.56 21.5044C106.579 21.4057 106.591 21.3058 106.598 21.2055Z" fill="white"/>
</svg>
