<svg width="233" height="84" viewBox="0 0 233 84" fill="none" xmlns="http://www.w3.org/2000/svg">
<rect x="7.16944" y="4.99604" width="186.44" height="55" transform="rotate(4.88845 7.16944 4.99604)" fill="white" stroke="#E1B6FF" stroke-width="3"/>
<path d="M228.391 53.598L230.273 52.571L228.663 51.1549L192.924 19.7239L190.762 17.8221L190.443 20.6842L184.401 74.9082L184.082 77.7703L186.61 76.3911L228.391 53.598Z" fill="white" stroke="#E1B6FF" stroke-width="3"/>
<path d="M21.2166 27.8402C25.4141 27.9072 27.6331 26.799 27.8738 24.5157C27.952 23.7731 27.6228 23.1566 26.8862 22.666C26.1701 22.1588 25.218 21.8426 24.0299 21.7174L22.0074 21.6732C21.8441 22.3317 21.5806 24.3874 21.2166 27.8402ZM20.4826 37.4764C20.2569 37.6591 19.8318 37.7738 19.2075 37.8206C18.5997 37.888 18.0824 37.8991 17.6554 37.8541C17.2284 37.8091 16.8909 37.7172 16.6427 37.5785L18.5032 21.5291C18.2746 21.2047 18.0758 20.6863 17.9069 19.974C17.7565 19.2637 17.6892 18.8342 17.7048 18.6857C17.7224 18.5186 17.7518 18.4185 17.7928 18.3853C17.8544 18.3355 18.4543 18.3424 19.5925 18.406C20.7513 18.4531 21.9062 18.5373 23.0571 18.6586C24.2267 18.7818 25.2594 18.9564 26.1553 19.1822C27.0513 19.408 27.954 19.7472 28.8636 20.1997C29.7937 20.6356 30.4991 21.2448 30.9797 22.0275C31.4808 22.7936 31.6727 23.7336 31.5553 24.8474C31.4379 25.9612 30.9868 26.946 30.2022 27.8018C29.436 28.6596 28.5449 29.2789 27.5287 29.6599C25.4162 30.4696 23.5509 30.8924 21.9329 30.9283L20.8909 30.9311C20.566 34.726 20.4299 36.9077 20.4826 37.4764ZM40.8085 33.1711C40.564 35.4916 40.449 36.8497 40.4636 37.2454C40.5045 38.2821 40.7428 39.0486 41.1785 39.545C41.157 39.7492 40.7534 40.0164 39.9678 40.3465C39.2008 40.6786 38.5203 40.8134 37.9262 40.7508C37.7591 40.7332 37.6092 40.464 37.4764 39.9432C37.3416 39.4409 37.2684 39.0672 37.2567 38.822C37.2636 38.5787 37.2577 38.4561 37.2392 38.4541L37.1497 38.501C36.0837 39.177 34.8916 39.4455 33.5736 39.3066C32.2556 39.1677 31.2678 38.7445 30.6104 38.037C29.9734 37.3129 29.7097 36.4311 29.8193 35.3915C29.9289 34.3519 30.2436 33.5029 30.7635 32.8445C31.3039 32.1694 31.8999 31.6785 32.5517 31.3718C33.2034 31.0651 33.9123 30.8395 34.6783 30.695C35.8498 30.443 36.7605 30.3513 37.4102 30.4198L37.4688 30.3978C37.5647 29.4882 36.4617 28.9121 34.1598 28.6694C33.2501 28.5736 32.5686 28.5393 32.1153 28.5666L32.0874 28.5636C32.1266 28.1924 32.2869 27.74 32.5683 27.2066C32.8684 26.6751 33.1014 26.3336 33.2676 26.1822C33.4522 26.0328 34.1293 26.0197 35.2989 26.1429C37.4151 26.366 38.9315 26.9387 39.8478 27.8612C40.7661 28.7651 41.1363 30.0617 40.9582 31.751L40.8085 33.1711ZM37.5298 34.6275L37.6414 33.5694C37.6844 33.161 37.6966 32.9558 37.6781 32.9538C36.4343 32.8227 35.3234 33.0341 34.3453 33.588C33.7267 33.9357 33.3852 34.4159 33.3206 35.0285C33.2795 35.4184 33.3845 35.7579 33.6356 36.0471C33.8867 36.3364 34.2906 36.5104 34.8476 36.569C35.423 36.6297 35.9883 36.5203 36.5433 36.241C37.1169 35.9636 37.4457 35.4257 37.5298 34.6275ZM43.4458 35.9267L44.0563 29.5999C44.1718 28.5046 44.2705 27.9238 44.3526 27.8573C44.5783 27.6747 44.9496 27.5355 45.4665 27.4398C45.9853 27.3255 46.4582 27.2909 46.8852 27.3359C47.3307 27.3829 47.5486 27.4528 47.5388 27.5456C47.4303 28.0409 47.3418 28.6135 47.2733 29.2632C47.2068 29.8944 47.1921 30.2119 47.2292 30.2158C47.2664 30.2197 47.3054 30.2051 47.3465 30.1719C47.3895 30.1201 47.453 30.0517 47.537 29.9667C47.6416 29.8651 47.8375 29.6981 48.1248 29.4656C48.4307 29.235 48.7512 29.0436 49.0863 28.8912C49.9393 28.4555 50.8207 28.2856 51.7303 28.3815C51.8534 28.6385 51.8885 29.0176 51.8357 29.5188C51.7241 30.577 51.515 31.3151 51.2081 31.7332L51.0732 31.9443L50.7171 31.8504C49.3805 31.7096 48.2739 32.1466 47.3974 33.1617C47.0534 33.5759 46.8697 33.8944 46.8462 34.1172L46.5879 36.5676C46.3532 38.7953 46.205 39.934 46.1434 39.9838C45.5708 40.4303 44.5234 40.5733 43.0011 40.4128C42.8526 40.3972 42.7813 40.3615 42.7872 40.3058C42.9934 39.5955 43.213 38.1358 43.4458 35.9267ZM59.4421 32.4603C59.4988 31.9219 59.2394 31.6224 58.664 31.5618C57.9028 31.4816 57.1935 31.801 56.5358 32.52C55.8781 33.239 55.4916 34.1462 55.3762 35.2414C55.3488 35.5013 55.3722 35.6352 55.4465 35.643C56.1167 35.6949 56.9272 35.3955 57.878 34.7449C58.8307 34.0758 59.3521 33.3142 59.4421 32.4603ZM60.9314 41.5706C60.2552 41.931 58.9982 42.0144 57.1604 41.8207C55.3226 41.627 53.9694 40.9307 53.101 39.7317C52.2325 38.5327 51.8942 37.0236 52.0859 35.2044C52.2796 33.3665 53.0317 31.841 54.3421 30.6276C55.673 29.3977 57.4059 28.8952 59.5407 29.1202C60.4132 29.2122 61.187 29.5284 61.8621 30.0688C62.5557 30.6111 62.8409 31.4671 62.7176 32.6366C62.5963 33.7875 61.9655 34.8754 60.8251 35.9002C59.7033 36.9269 58.2386 37.6454 56.431 38.0555C56.4075 38.2783 56.6107 38.4874 57.0406 38.6829C57.491 38.8617 57.939 38.9746 58.3845 39.0216C59.7954 39.1703 60.9356 39.0371 61.8053 38.6219C61.8258 38.6053 61.8546 38.599 61.8917 38.6029C61.9289 38.6068 61.9288 38.7851 61.8917 39.1378C61.7782 40.2145 61.4581 41.0254 60.9314 41.5706ZM67.8807 35.9681L67.8 37.0013L67.5769 39.1176C67.3676 41.1039 67.2219 42.1303 67.1398 42.1968C66.873 42.4127 66.4358 42.5543 65.828 42.6216C65.2203 42.6889 64.7215 42.7021 64.3317 42.661C63.9604 42.6218 63.7777 42.5744 63.7835 42.5187C64.0015 41.6971 64.2113 40.3302 64.4128 38.4181L64.9896 32.144C65.1109 30.9931 65.2229 30.3761 65.3255 30.293C65.5512 30.1103 65.9225 29.9712 66.4394 29.8755C66.9582 29.7612 67.4311 29.7266 67.8581 29.7716C68.3036 29.8186 68.5215 29.8884 68.5117 29.9813C68.4091 30.4209 68.3343 30.8635 68.2873 31.3091C68.2403 31.7546 68.2447 31.9803 68.3004 31.9862L68.3898 31.9393C68.4963 31.8191 68.6522 31.676 68.8574 31.5099C69.0645 31.3253 69.4818 31.1065 70.1091 30.8535C70.7569 30.5839 71.35 30.4775 71.8883 30.5342C72.4453 30.5929 72.8986 30.7439 73.2484 30.9873C73.6186 31.214 73.9098 31.4793 74.1217 31.7832C74.3337 32.0871 74.4959 32.5077 74.6081 33.0451C74.739 33.5845 74.8274 34.0818 74.8732 34.5371C74.9191 34.9925 74.9307 35.5943 74.9082 36.3428C74.8562 37.3696 74.7471 38.672 74.5808 40.25L74.1539 43.4991C74.1402 43.6291 73.8212 43.7174 73.1969 43.7643C72.5705 43.8296 72.0718 43.8428 71.7005 43.8036L70.7962 43.5676C71.158 41.9164 71.421 40.3111 71.5854 38.7517C71.7517 37.1738 71.7738 35.9843 71.6518 35.183C71.5317 34.3633 71.1654 33.9211 70.5528 33.8565C69.9402 33.792 69.4213 33.9062 68.9963 34.1993C68.5898 34.4943 68.3132 34.803 68.1666 35.1254L67.9218 35.5783L67.8807 35.9681ZM82.2537 25.3763C82.1716 25.7993 82.0019 26.964 81.7447 28.8702C83.137 29.0169 83.8302 29.1181 83.8243 29.1738C83.7578 29.805 83.6053 30.3614 83.3668 30.8431C83.1303 31.3061 82.9285 31.5289 82.7615 31.5113L81.4527 31.3733C81.126 34.1169 80.8717 36.3519 80.6897 38.0783C80.5097 39.7862 80.4172 40.9308 80.4123 41.5121C80.4219 42.4892 80.7193 43.3183 81.3045 43.9994C81.283 44.2036 80.8897 44.4624 80.1246 44.776C79.3781 45.0915 78.6892 45.2159 78.0581 45.1494C78.0024 45.1436 77.9008 45.039 77.7533 44.8357C77.6243 44.6345 77.4895 44.3105 77.3489 43.864C77.2268 43.4194 77.1595 42.99 77.1468 42.5757C77.1527 42.1634 77.2877 40.7042 77.5519 38.1981C77.816 35.692 78.0933 33.328 78.3838 31.1062L76.8215 30.9697C76.7385 30.8671 76.7341 30.4631 76.8085 29.7577C76.8848 29.0337 77.0143 28.6062 77.197 28.4753C77.6074 28.4998 78.1013 28.5331 78.6787 28.5752C78.7922 27.4985 78.8377 26.7994 78.8153 26.4779C78.7929 26.1565 78.7846 25.9679 78.7904 25.9122C78.81 25.7266 79.1481 25.5464 79.8047 25.3716C80.4799 25.1987 81.0588 25.1377 81.5414 25.1886C82.0241 25.2395 82.2615 25.302 82.2537 25.3763ZM81.7543 44.9196L97.0253 25.5817C97.3097 25.5553 97.5911 25.5568 97.8695 25.5862C98.4264 25.6449 98.9736 25.7964 99.5109 26.0407L84.1564 45.3698C83.8906 45.3981 83.6278 45.3986 83.3679 45.3712C82.8295 45.3145 82.2917 45.1639 81.7543 44.9196ZM102.202 43.6679L103.618 32.1046C103.718 31.1579 103.742 30.663 103.69 30.62C103.659 30.5604 103.513 30.5169 103.253 30.4895C102.678 30.4288 101.647 30.4141 100.161 30.4451L99.3973 30.4773L99.39 29.7445C99.4839 28.8534 99.7146 28.0894 100.082 27.4524L100.284 27.1358C101.734 27.2699 103.374 27.3864 105.203 27.4853C107.052 27.5676 108.71 27.6861 110.177 27.8406C111.662 27.9971 112.401 28.1125 112.393 28.1868C112.336 28.7251 112.221 29.37 112.048 30.1213C111.877 30.8541 111.72 31.2786 111.576 31.3949C111.159 31.257 110.375 31.1275 109.224 31.0062C108.073 30.8849 107.467 30.8491 107.405 30.8989C107.262 31.0152 106.941 33.4309 106.444 38.1461C105.947 42.8614 105.923 45.7588 106.373 46.8385L106.37 46.8664C106.352 47.0335 105.974 47.1531 105.234 47.2253C104.494 47.2975 103.911 47.3111 103.484 47.2661C102.89 47.2035 102.416 47.0691 102.062 46.8629C101.948 46.7007 101.995 45.6357 102.202 43.6679ZM119.321 38.7713C119.378 38.2329 119.119 37.9334 118.543 37.8728C117.782 37.7926 117.073 38.112 116.415 38.831C115.757 39.55 115.371 40.4572 115.255 41.5525C115.228 41.8123 115.251 41.9462 115.326 41.954C115.996 42.0059 116.807 41.7065 117.757 41.0559C118.71 40.3868 119.231 39.6252 119.321 38.7713ZM120.811 47.8816C120.134 48.242 118.877 48.3254 117.04 48.1317C115.202 47.938 113.849 47.2417 112.98 46.0427C112.112 44.8437 111.773 43.3346 111.965 41.5154C112.159 39.6776 112.911 38.152 114.221 36.9386C115.552 35.7087 117.285 35.2062 119.42 35.4312C120.292 35.5232 121.066 35.8394 121.741 36.3798C122.435 36.9221 122.72 37.7781 122.597 38.9476C122.476 40.0986 121.845 41.1864 120.704 42.2112C119.583 43.238 118.118 43.9564 116.31 44.3665C116.287 44.5893 116.49 44.7984 116.92 44.9939C117.37 45.1727 117.818 45.2856 118.264 45.3326C119.675 45.4813 120.815 45.3481 121.685 44.9329C121.705 44.9163 121.734 44.91 121.771 44.9139C121.808 44.9178 121.808 45.0961 121.771 45.4488C121.657 46.5255 121.337 47.3365 120.811 47.8816ZM134.326 43.0274C134.081 45.3479 133.966 46.706 133.981 47.1017C134.022 48.1384 134.26 48.9049 134.696 49.4013C134.674 49.6055 134.271 49.8727 133.485 50.2028C132.718 50.5349 132.037 50.6697 131.443 50.6071C131.276 50.5895 131.126 50.3203 130.994 49.7995C130.859 49.2972 130.786 48.9235 130.774 48.6783C130.781 48.435 130.775 48.3124 130.756 48.3104L130.667 48.3573C129.601 49.0333 128.409 49.3018 127.091 49.1629C125.773 49.024 124.785 48.6008 124.128 47.8933C123.491 47.1692 123.227 46.2874 123.336 45.2478C123.446 44.2082 123.761 43.3592 124.281 42.7008C124.821 42.0257 125.417 41.5348 126.069 41.2281C126.721 40.9214 127.429 40.6958 128.196 40.5512C129.367 40.2993 130.278 40.2076 130.927 40.2761L130.986 40.2541C131.082 39.3445 129.979 38.7684 127.677 38.5257C126.767 38.4299 126.086 38.3956 125.632 38.4229L125.605 38.4199C125.644 38.0487 125.804 37.5963 126.086 37.0629C126.386 36.5314 126.619 36.1899 126.785 36.0385C126.969 35.8891 127.647 35.876 128.816 35.9992C130.932 36.2223 132.449 36.795 133.365 37.7175C134.283 38.6214 134.653 39.918 134.475 41.6073L134.326 43.0274ZM131.047 44.4838L131.159 43.4257C131.202 43.0172 131.214 42.8121 131.195 42.8101C129.951 42.679 128.841 42.8904 127.862 43.4443C127.244 43.792 126.902 44.2722 126.838 44.8848C126.797 45.2747 126.902 45.6142 127.153 45.9034C127.404 46.1927 127.808 46.3666 128.365 46.4253C128.94 46.486 129.505 46.3766 130.06 46.0973C130.634 45.8199 130.963 45.282 131.047 44.4838ZM141.78 50.9082C139.664 50.6851 138.152 49.9815 137.244 48.7971C136.337 47.6128 135.969 46.2039 136.141 44.5702C136.382 42.2869 137.335 40.5479 139 39.3531C140.684 38.1604 142.63 37.6804 144.839 37.9132C145.266 37.9582 145.516 37.9939 145.588 38.0203C145.69 38.1249 145.698 38.5763 145.614 39.3745C145.53 40.1728 145.368 40.6437 145.127 40.7873L144.933 40.7667C143.503 40.6161 142.308 40.8279 141.346 41.4023C140.946 41.6417 140.575 42.0437 140.234 42.6084C139.893 43.1731 139.678 43.8731 139.59 44.7085C139.502 45.5438 139.679 46.2664 140.122 46.8761C140.566 47.4673 141.345 47.8216 142.459 47.939C143.332 48.0309 144.12 47.9451 144.823 47.6814C144.901 47.6521 144.95 47.6384 144.968 47.6403C145.101 47.8045 145.123 48.3136 145.033 49.1675C144.943 50.0214 144.787 50.5212 144.565 50.6667C143.915 50.9549 142.987 51.0354 141.78 50.9082ZM147.44 45.2261L148.375 35.5548C148.564 33.7541 148.711 32.8122 148.813 32.7292C149.059 32.5299 149.444 32.3546 149.967 32.2032C150.489 32.0518 150.983 32.0006 151.447 32.0495C151.911 32.0984 152.139 32.16 152.131 32.2343C152.095 32.3994 151.93 33.6114 151.635 35.8703C151.341 38.1292 151.157 39.6114 151.082 40.3168L151.056 40.5675C151.046 40.6603 151.069 40.7096 151.125 40.7155L151.74 40.2173C151.964 40.0532 152.399 39.8456 153.045 39.5946C153.711 39.3269 154.314 39.2215 154.852 39.2782C155.409 39.3369 155.854 39.4777 156.187 39.7005C156.539 39.9253 156.822 40.1803 157.036 40.4656C157.249 40.751 157.414 41.1531 157.528 41.6719C157.644 42.1722 157.717 42.6397 157.746 43.0745C157.796 43.4927 157.81 44.0667 157.79 44.7966C157.742 45.7863 157.639 47.033 157.48 48.5367L156.978 52.2284C156.907 52.3711 156.578 52.4678 155.99 52.5185C155.403 52.5692 154.924 52.575 154.553 52.5359L153.649 52.2998C154.01 50.6486 154.272 49.0526 154.435 47.5118C154.597 45.971 154.609 44.7898 154.47 43.9681C154.332 43.1463 153.919 42.6993 153.232 42.6269C152.787 42.5799 152.35 42.7123 151.923 43.0239C151.496 43.3355 151.19 43.6599 151.004 43.9969L150.698 44.4996C150.6 45.7844 150.474 47.1601 150.319 48.6266C150.165 50.0932 150.037 50.8587 149.936 50.9231C149.327 51.3657 148.279 51.5087 146.794 51.3522C146.646 51.3365 146.574 51.3008 146.58 51.2451C146.815 50.444 147.101 48.4376 147.44 45.2261ZM167.018 43.7983C167.075 43.26 166.815 42.9605 166.24 42.8998C165.479 42.8196 164.769 43.139 164.112 43.858C163.454 44.5771 163.068 45.4842 162.952 46.5795C162.925 46.8394 162.948 46.9732 163.022 46.9811C163.693 47.0329 164.503 46.7336 165.454 46.083C166.407 45.4138 166.928 44.6523 167.018 43.7983ZM168.507 52.9086C167.831 53.2691 166.574 53.3524 164.736 53.1587C162.899 52.965 161.545 52.2687 160.677 51.0697C159.809 49.8708 159.47 48.3617 159.662 46.5424C159.856 44.7046 160.608 43.179 161.918 41.9657C163.249 40.7357 164.982 40.2333 167.117 40.4583C167.989 40.5502 168.763 40.8664 169.438 41.4068C170.132 41.9492 170.417 42.8051 170.294 43.9746C170.172 45.1256 169.542 46.2135 168.401 47.2382C167.279 48.265 165.815 48.9834 164.007 49.3935C163.984 49.6163 164.187 49.8254 164.617 50.0209C165.067 50.1998 165.515 50.3127 165.961 50.3596C167.371 50.5083 168.512 50.3751 169.381 49.96C169.402 49.9434 169.431 49.937 169.468 49.9409C169.505 49.9448 169.505 50.1231 169.468 50.4759C169.354 51.5526 169.034 52.3635 168.507 52.9086ZM171.879 49.463L172.489 43.1362C172.605 42.0409 172.704 41.46 172.786 41.3936C173.011 41.2109 173.383 41.0718 173.9 40.9761C174.419 40.8618 174.891 40.8272 175.318 40.8722C175.764 40.9192 175.982 40.989 175.972 41.0819C175.863 41.5772 175.775 42.1498 175.706 42.7995C175.64 43.4307 175.625 43.7482 175.662 43.7521C175.7 43.756 175.739 43.7414 175.78 43.7082C175.823 43.6564 175.886 43.588 175.97 43.503C176.075 43.4014 176.271 43.2344 176.558 43.0019C176.864 42.7713 177.184 42.5799 177.519 42.4275C178.373 41.9918 179.254 41.8219 180.163 41.9178C180.287 42.1748 180.322 42.5539 180.269 43.0551C180.157 44.1132 179.948 44.8514 179.641 45.2695L179.506 45.4806L179.15 45.3867C177.814 45.2458 176.707 45.6829 175.831 46.698C175.487 47.1122 175.303 47.4307 175.279 47.6535L175.021 50.1039C174.786 52.3316 174.638 53.4703 174.577 53.5201C174.004 53.9666 172.957 54.1096 171.434 53.9491C171.286 53.9335 171.214 53.8978 171.22 53.8421C171.427 53.1318 171.646 51.6721 171.879 49.463Z" fill="#3E2056"/>
</svg>
