<svg width="221" height="67" viewBox="0 0 221 67" fill="none" xmlns="http://www.w3.org/2000/svg">
<rect x="1.5" y="6.50012" width="176" height="55" fill="white" stroke="#E1B6FF" stroke-width="3"/>
<path d="M215.619 36.074L217.407 34.8904L215.682 33.6166L177.394 5.34552L175.078 3.63493L175.004 6.51374L173.604 61.0554L173.531 63.9342L175.932 62.3447L215.619 36.074Z" fill="white" stroke="#E1B6FF" stroke-width="3"/>
<path d="M48.592 22L48.4 35.184C48.4 36.8267 48.432 38.0427 48.496 38.832C48.8373 38.9173 49.3813 38.96 50.128 38.96C50.896 38.96 51.5467 38.896 52.08 38.768C52.6347 38.64 53.0933 38.416 53.456 38.096C53.84 37.7547 54.1493 37.4453 54.384 37.168C54.6187 36.8693 54.8213 36.432 54.992 35.856C55.248 35.088 55.504 34.0747 55.76 32.816C55.76 32.7947 55.9093 32.784 56.208 32.784C56.528 32.784 57.0187 32.9333 57.68 33.232C58.3627 33.5093 58.704 33.7227 58.704 33.872C58.704 35.5147 58.6187 37.3707 58.448 39.44C58.2773 41.744 58.064 42.896 57.808 42.896C57.5733 42.896 57.104 42.8 56.4 42.608C55.696 42.4373 55.1627 42.2773 54.8 42.128C52.88 42.448 50.3947 42.6187 47.344 42.64L45.744 42.672L44.464 42.512C44.3787 42.4267 44.336 41.488 44.336 39.696L44.464 27.44C44.464 24.944 44.4 23.6213 44.272 23.472C44.1653 23.3013 43.9733 22.896 43.696 22.256C43.4187 21.5947 43.28 21.168 43.28 20.976C43.28 20.8907 43.5147 20.7733 43.984 20.624C45.1573 20.1973 46.192 19.984 47.088 19.984C47.984 19.984 48.4533 20.016 48.496 20.08C48.56 20.144 48.592 20.784 48.592 22ZM68.492 31.824C68.492 31.2053 68.1613 30.896 67.5 30.896C66.6253 30.896 65.8573 31.344 65.196 32.24C64.5347 33.136 64.204 34.2133 64.204 35.472C64.204 35.7707 64.2467 35.92 64.332 35.92C65.1 35.8987 65.9853 35.4613 66.988 34.608C67.9907 33.7333 68.492 32.8053 68.492 31.824ZM71.276 42C70.5507 42.4907 69.132 42.736 67.02 42.736C64.908 42.736 63.2867 42.1067 62.156 40.848C61.0253 39.5893 60.46 37.9147 60.46 35.824C60.46 33.712 61.132 31.888 62.476 30.352C63.8413 28.7947 65.7507 28.016 68.204 28.016C69.2067 28.016 70.124 28.2827 70.956 28.816C71.8093 29.3493 72.236 30.288 72.236 31.632C72.236 32.9547 71.6493 34.2667 70.476 35.568C69.324 36.8693 67.7453 37.8613 65.74 38.544C65.74 38.8 65.996 39.0133 66.508 39.184C67.0413 39.3333 67.564 39.408 68.076 39.408C69.6973 39.408 70.9773 39.12 71.916 38.544C71.9373 38.5227 71.9693 38.512 72.012 38.512C72.0547 38.512 72.076 38.7147 72.076 39.12C72.076 40.3573 71.8093 41.3173 71.276 42ZM86.0553 34.864C86.0553 37.5307 86.0873 39.088 86.1513 39.536C86.3219 40.7093 86.6846 41.552 87.2393 42.064C87.2393 42.2987 86.8126 42.6507 85.9593 43.12C85.1273 43.5893 84.3699 43.824 83.6873 43.824C83.4953 43.824 83.2926 43.536 83.0793 42.96C82.8659 42.4053 82.7379 41.9893 82.6953 41.712C82.6739 41.4347 82.6526 41.296 82.6313 41.296L82.5353 41.36C81.4046 42.256 80.0819 42.704 78.5673 42.704C77.0526 42.704 75.8793 42.3413 75.0473 41.616C74.2366 40.8693 73.8313 39.8987 73.8313 38.704C73.8313 37.5093 74.0873 36.5067 74.5993 35.696C75.1326 34.864 75.7513 34.2347 76.4553 33.808C77.1593 33.3813 77.9379 33.04 78.7913 32.784C80.0926 32.3573 81.1166 32.144 81.8633 32.144L81.9273 32.112C81.9273 31.0667 80.6046 30.544 77.9593 30.544C76.9139 30.544 76.1353 30.5867 75.6233 30.672H75.5913C75.5913 30.2453 75.7193 29.712 75.9753 29.072C76.2526 28.432 76.4766 28.016 76.6473 27.824C76.8393 27.632 77.6073 27.536 78.9513 27.536C81.3833 27.536 83.1753 28.0053 84.3273 28.944C85.4793 29.8613 86.0553 31.2907 86.0553 33.232V34.864ZM82.5033 36.912V35.696C82.5033 35.2267 82.4926 34.992 82.4713 34.992C81.0419 34.992 79.8046 35.3653 78.7593 36.112C78.0979 36.5813 77.7673 37.168 77.7673 37.872C77.7673 38.32 77.9273 38.6933 78.2473 38.992C78.5673 39.2907 79.0473 39.44 79.6873 39.44C80.3486 39.44 80.9779 39.248 81.5753 38.864C82.1939 38.48 82.5033 37.8293 82.5033 36.912ZM89.3828 37.68L89.3188 30.416C89.3188 29.1573 89.3614 28.4853 89.4468 28.4C89.6814 28.1653 90.0868 27.9627 90.6628 27.792C91.2388 27.6 91.7721 27.504 92.2628 27.504C92.7748 27.504 93.0308 27.5573 93.0308 27.664C92.9668 28.24 92.9348 28.9013 92.9348 29.648C92.9348 30.3733 92.9561 30.736 92.9988 30.736C93.0414 30.736 93.0841 30.7147 93.1268 30.672C93.1694 30.608 93.2334 30.5227 93.3188 30.416C93.4254 30.288 93.6281 30.0747 93.9268 29.776C94.2468 29.4773 94.5881 29.2213 94.9508 29.008C95.8681 28.4107 96.8494 28.112 97.8948 28.112C98.0654 28.3893 98.1508 28.816 98.1508 29.392C98.1508 30.608 98.0014 31.472 97.7028 31.984L97.5748 32.24L97.1588 32.176C95.6228 32.176 94.4174 32.8053 93.5428 34.064C93.2014 34.576 93.0308 34.96 93.0308 35.216V38.032C93.0308 40.592 92.9988 41.904 92.9348 41.968C92.3374 42.544 91.1641 42.832 89.4148 42.832C89.2441 42.832 89.1588 42.8 89.1588 42.736C89.3081 41.904 89.3828 40.2187 89.3828 37.68ZM103.628 34.8L103.66 35.984V38.416C103.66 40.6987 103.618 41.8827 103.532 41.968C103.255 42.2453 102.775 42.4587 102.092 42.608C101.41 42.7573 100.844 42.832 100.396 42.832C99.9696 42.832 99.7563 42.8 99.7563 42.736C99.9056 41.776 99.9803 40.1973 99.9803 38L99.8843 30.8C99.8843 29.4773 99.9376 28.7627 100.044 28.656C100.279 28.4213 100.684 28.2187 101.26 28.048C101.836 27.856 102.37 27.76 102.86 27.76C103.372 27.76 103.628 27.8133 103.628 27.92C103.564 28.432 103.532 28.944 103.532 29.456C103.532 29.968 103.564 30.224 103.628 30.224L103.724 30.16C103.831 30.0107 103.991 29.8293 104.204 29.616C104.418 29.3813 104.866 29.0827 105.548 28.72C106.252 28.336 106.914 28.144 107.532 28.144C108.172 28.144 108.706 28.2613 109.132 28.496C109.58 28.7093 109.943 28.976 110.22 29.296C110.498 29.616 110.732 30.0747 110.924 30.672C111.138 31.2693 111.298 31.824 111.404 32.336C111.511 32.848 111.596 33.5307 111.66 34.384C111.724 35.5573 111.756 37.0507 111.756 38.864L111.66 42.608C111.66 42.7573 111.308 42.896 110.604 43.024C109.9 43.1733 109.335 43.248 108.908 43.248L107.852 43.088C108.066 41.168 108.172 39.312 108.172 37.52C108.172 35.7067 108.055 34.352 107.82 33.456C107.586 32.5387 107.116 32.08 106.412 32.08C105.708 32.08 105.132 32.272 104.684 32.656C104.258 33.04 103.98 33.424 103.852 33.808L103.628 34.352V34.8ZM122.023 31.824C122.023 31.2053 121.693 30.896 121.031 30.896C120.157 30.896 119.389 31.344 118.727 32.24C118.066 33.136 117.735 34.2133 117.735 35.472C117.735 35.7707 117.778 35.92 117.863 35.92C118.631 35.8987 119.517 35.4613 120.519 34.608C121.522 33.7333 122.023 32.8053 122.023 31.824ZM124.807 42C124.082 42.4907 122.663 42.736 120.551 42.736C118.439 42.736 116.818 42.1067 115.687 40.848C114.557 39.5893 113.991 37.9147 113.991 35.824C113.991 33.712 114.663 31.888 116.007 30.352C117.373 28.7947 119.282 28.016 121.735 28.016C122.738 28.016 123.655 28.2827 124.487 28.816C125.341 29.3493 125.767 30.288 125.767 31.632C125.767 32.9547 125.181 34.2667 124.007 35.568C122.855 36.8693 121.277 37.8613 119.271 38.544C119.271 38.8 119.527 39.0133 120.039 39.184C120.573 39.3333 121.095 39.408 121.607 39.408C123.229 39.408 124.509 39.12 125.447 38.544C125.469 38.5227 125.501 38.512 125.543 38.512C125.586 38.512 125.607 38.7147 125.607 39.12C125.607 40.3573 125.341 41.3173 124.807 42ZM128.227 37.68L128.163 30.416C128.163 29.1573 128.205 28.4853 128.291 28.4C128.525 28.1653 128.931 27.9627 129.507 27.792C130.083 27.6 130.616 27.504 131.107 27.504C131.619 27.504 131.875 27.5573 131.875 27.664C131.811 28.24 131.779 28.9013 131.779 29.648C131.779 30.3733 131.8 30.736 131.843 30.736C131.885 30.736 131.928 30.7147 131.971 30.672C132.013 30.608 132.077 30.5227 132.163 30.416C132.269 30.288 132.472 30.0747 132.771 29.776C133.091 29.4773 133.432 29.2213 133.795 29.008C134.712 28.4107 135.693 28.112 136.739 28.112C136.909 28.3893 136.995 28.816 136.995 29.392C136.995 30.608 136.845 31.472 136.547 31.984L136.419 32.24L136.003 32.176C134.467 32.176 133.261 32.8053 132.387 34.064C132.045 34.576 131.875 34.96 131.875 35.216V38.032C131.875 40.592 131.843 41.904 131.779 41.968C131.181 42.544 130.008 42.832 128.259 42.832C128.088 42.832 128.003 42.8 128.003 42.736C128.152 41.904 128.227 40.2187 128.227 37.68Z" fill="#3E2056"/>
</svg>
