<svg width="48" height="48" viewBox="0 0 48 48" fill="none" xmlns="http://www.w3.org/2000/svg">
<g clip-path="url(#clip0_805_3834)">
<path d="M35.9336 31.2936L35.6598 31.0519C34.8829 30.3598 34.203 29.5661 33.6383 28.6922C33.0216 27.4862 32.6519 26.1691 32.551 24.8183V20.8398C32.5564 18.7181 31.7868 16.6675 30.3868 15.0733C28.9869 13.479 27.0529 12.4509 24.9484 12.182V11.143C24.9484 10.8579 24.8351 10.5844 24.6334 10.3828C24.4318 10.1811 24.1583 10.0679 23.8732 10.0679C23.588 10.0679 23.3146 10.1811 23.1129 10.3828C22.9113 10.5844 22.798 10.8579 22.798 11.143V12.1981C20.7123 12.4864 18.8018 13.5207 17.4202 15.1096C16.0386 16.6985 15.2797 18.7342 15.2839 20.8398V24.8183C15.1831 26.1691 14.8134 27.4862 14.1967 28.6922C13.6417 29.5639 12.9727 30.3575 12.2074 31.0519L11.9336 31.2936V33.5647H35.9336V31.2936Z" fill="#614378"/>
<path d="M20.4268 42.6667C20.5437 43.5119 20.9625 44.2862 21.6058 44.8467C22.2491 45.4071 23.0735 45.7159 23.9268 45.7159C24.78 45.7159 25.6044 45.4071 26.2477 44.8467C26.891 44.2862 27.3098 43.5119 27.4268 42.6667H20.4268Z" fill="#614378"/>
</g>
<defs>
<clipPath id="clip0_805_3834">
<rect width="48" height="48" fill="white"/>
</clipPath>
</defs>
</svg>
