<svg width="217" height="45" viewBox="0 0 217 45" fill="none" xmlns="http://www.w3.org/2000/svg">
<path d="M16.3998 6.7043H0.630859V43.4984H9.56657V32.1448H16.3998C24.1791 32.1448 29.6457 27.4667 29.6457 19.3194C29.6457 11.1722 24.1791 6.7043 16.3998 6.7043ZM16.0318 23.6296H9.56657V15.2195H16.0318C19.0805 15.2195 20.6048 16.6387 20.6048 19.4245C20.6048 22.2104 19.0805 23.6296 16.0318 23.6296Z" fill="white"/>
<path d="M51.7279 13.9054C48.0485 13.9054 45.1049 15.5349 43.3178 19.0566V14.5888H34.3821V43.4984H43.3178V30.9884C43.3178 24.418 47.3651 23.1565 51.5702 23.1565C52.4112 23.1565 52.7791 23.2091 53.3573 23.2616V14.0631C52.9368 13.958 52.4112 13.9054 51.7279 13.9054Z" fill="white"/>
<path d="M106.995 10.1735C107.994 10.1735 109.097 10.3311 110.306 10.6465L111.463 10.9619L113.04 3.76077C111.2 2.8672 108.309 2.34157 105.944 2.34157C100.162 2.34157 93.6964 5.54791 93.6964 14.0631V14.5888H88.7554V22.9988H93.6964V43.4984H102.632V22.9988H111.358V14.5888H102.632V14.5362C102.632 11.3824 104.209 10.1735 106.995 10.1735Z" fill="white"/>
<path d="M120.158 0.922363C117.109 0.922363 114.744 3.07745 114.744 6.02098C114.744 9.01707 117.109 11.1722 120.158 11.1722C123.312 11.1722 125.572 9.01707 125.572 6.02098C125.572 3.07745 123.312 0.922363 120.158 0.922363ZM115.69 43.4984H124.626V14.5888H115.69V43.4984Z" fill="white"/>
<path d="M147.15 13.9054C143.576 13.9054 140.895 15.2721 138.793 17.8477V14.5888H129.857V43.4984H138.793V28.15C138.793 24.1552 140.58 22.4206 144.102 22.4206C147.729 22.4206 148.675 24.2603 148.675 27.4141V43.4984H157.611V25.4167C157.611 18.3733 153.668 13.9054 147.15 13.9054Z" fill="white"/>
<path d="M183.842 3.02489V17.8477C182.002 15.4823 179.269 13.9054 175.59 13.9054C168.388 13.9054 162.606 20.0553 162.606 29.0436C162.606 37.9793 168.283 44.1817 175.642 44.1817C179.322 44.1817 181.95 42.6574 183.842 40.3972V43.4984H192.778V3.02489H183.842ZM177.745 35.6665C174.328 35.6665 171.647 33.0909 171.647 29.0436C171.647 25.0488 174.275 22.4206 177.745 22.4206C181.214 22.4206 183.842 25.0488 183.842 29.0436C183.842 33.0909 181.214 35.6665 177.745 35.6665Z" fill="white"/>
<path d="M215.371 13.9054C211.691 13.9054 208.748 15.5349 206.961 19.0566V14.5888H198.025V43.4984H206.961V30.9884C206.961 24.418 211.008 23.1565 215.213 23.1565C216.054 23.1565 216.422 23.2091 217 23.2616V14.0631C216.58 13.958 216.054 13.9054 215.371 13.9054Z" fill="white"/>
<path d="M71.2317 17.5151C69.7925 17.5151 68.6221 18.6855 68.6221 20.1248C68.6221 21.5641 69.7925 22.7344 71.2317 22.7344C72.671 22.7344 73.8414 21.5641 73.8414 20.1248C73.8414 18.6855 72.671 17.5151 71.2317 17.5151Z" fill="white"/>
<path d="M74.2455 22.5923C73.5271 23.468 72.4504 24.0393 71.2318 24.0393C70.0132 24.0393 68.9365 23.468 68.218 22.5923C67.5926 23.1466 67.1364 23.8732 66.8848 24.6886C67.9603 25.8828 69.5018 26.6489 71.2318 26.6489C72.9618 26.6489 74.5033 25.8828 75.5788 24.6886C75.3271 23.8732 74.871 23.1466 74.2455 22.5923Z" fill="white"/>
<path fill-rule="evenodd" clip-rule="evenodd" d="M73.9484 31.0026C73.6726 30.7268 73.6726 30.2796 73.9484 30.0038L74.7308 29.2214C74.9749 28.9773 75.3596 28.9454 75.6406 29.1459L75.9045 29.3344C76.1047 29.4768 76.3794 29.4547 76.5549 29.2806L77.9828 27.8527C78.1574 27.6781 78.18 27.403 78.0366 27.2023L77.6616 26.6771C77.4961 26.4451 77.489 26.1379 77.6232 25.8864C77.8375 25.4848 78.0114 25.0672 78.1448 24.6397C78.2294 24.3686 78.4521 24.1584 78.7325 24.1129L79.3946 24.0053C79.6381 23.9649 79.8166 23.7543 79.8166 23.5073V21.4877C79.8166 21.2407 79.6381 21.0301 79.3946 20.9897L78.7492 20.8848C78.4669 20.839 78.2432 20.6263 78.1599 20.3527C78.0275 19.9175 77.8533 19.4924 77.6374 19.0835C77.5048 18.8326 77.5125 18.5267 77.6774 18.2957L78.0365 17.7926C78.18 17.592 78.1573 17.3168 77.9828 17.1423L76.5549 15.7144C76.3793 15.5393 76.1047 15.5161 75.9045 15.6606L75.4023 16.0191C75.1713 16.184 74.8655 16.1917 74.6145 16.0592C74.2057 15.8435 73.7804 15.6694 73.3447 15.537C73.0709 15.4539 72.8582 15.2301 72.8123 14.9477L72.7074 14.3026C72.6671 14.059 72.4565 13.8805 72.2095 13.8805H70.1899C69.9428 13.8805 69.7323 14.059 69.6919 14.3026L69.5847 14.9623C69.5391 15.2431 69.3284 15.466 69.0567 15.5503C68.6276 15.6834 68.2082 15.8571 67.8047 16.0715C67.5535 16.2049 67.247 16.1976 67.0155 16.0323L66.4948 15.6607C66.2941 15.5162 66.0185 15.5393 65.8445 15.7144L64.4165 17.1423C64.242 17.3169 64.2193 17.592 64.3628 17.7926L64.7367 18.3165C64.9018 18.5477 64.9094 18.8539 64.7763 19.1049C64.5626 19.5078 64.3892 19.9264 64.256 20.3547C64.1716 20.6261 63.9488 20.8363 63.6683 20.8819L63.0047 20.9897C62.7612 21.0301 62.5827 21.2407 62.5827 21.4877V23.5073C62.5827 23.7543 62.7612 23.9649 63.0048 24.0053L63.6421 24.1089C63.9256 24.1549 64.1499 24.3691 64.2322 24.6442C64.3639 25.0844 64.5379 25.5143 64.754 25.9276C64.8851 26.1781 64.8767 26.4825 64.7125 26.7125L64.3628 27.2024C64.2193 27.4031 64.242 27.6782 64.4166 27.8527L65.8445 29.2806C66.0186 29.4547 66.2942 29.4769 66.4948 29.3344L66.7072 29.1828C66.9882 28.9822 67.3729 29.0141 67.617 29.2582L70.8646 32.5058C70.8734 32.5146 70.8729 32.5289 70.8637 32.5371C70.8544 32.5452 70.8539 32.5595 70.8627 32.5683L75.9678 37.6734C76.2436 37.9492 76.2436 38.3964 75.9678 38.6723L71.6549 42.9852C71.3791 43.261 70.9319 43.261 70.656 42.9852L65.8115 38.1406L60.7113 33.0404C54.9087 27.2379 54.9244 17.8144 60.7269 12.0118C66.5123 6.22649 75.9078 6.21093 81.6931 11.9963C87.4785 17.7816 87.4785 27.1616 81.6931 32.9469L79.2924 35.3477C79.0165 35.6236 78.5693 35.6236 78.2935 35.3477L73.9484 31.0026Z" fill="white"/>
</svg>
