<svg width="38" height="40" viewBox="0 0 38 40" fill="none" xmlns="http://www.w3.org/2000/svg">
<path d="M33.2799 21.88C33.3599 21.28 33.3999 20.66 33.3999 20C33.3999 19.36 33.3599 18.72 33.2599 18.12L37.3199 14.96C37.4949 14.8158 37.6144 14.6154 37.6582 14.3929C37.7019 14.1705 37.6672 13.9397 37.5599 13.74L33.7199 7.1C33.6069 6.89913 33.4264 6.74475 33.2104 6.66422C32.9944 6.58368 32.7569 6.58219 32.5399 6.66L27.7599 8.58C26.7599 7.82 25.6999 7.18 24.5199 6.7L23.7999 1.62C23.7645 1.39106 23.6482 1.18242 23.472 1.03195C23.2959 0.881492 23.0716 0.799192 22.8399 0.800001H15.1599C14.6799 0.800001 14.2999 1.14 14.2199 1.62L13.4999 6.7C12.3199 7.18 11.2399 7.84 10.2599 8.58L5.47993 6.66C5.03993 6.5 4.53993 6.66 4.29993 7.1L0.479928 13.74C0.239928 14.16 0.319928 14.68 0.719928 14.96L4.77993 18.12C4.67993 18.72 4.59993 19.38 4.59993 20C4.59993 20.62 4.63993 21.28 4.73993 21.88L0.679928 25.04C0.504976 25.1842 0.385435 25.3846 0.341673 25.6071C0.297911 25.8295 0.332635 26.0603 0.439928 26.26L4.27993 32.9C4.51993 33.34 5.01993 33.48 5.45993 33.34L10.2399 31.42C11.2399 32.18 12.2999 32.82 13.4799 33.3L14.1999 38.38C14.2999 38.86 14.6799 39.2 15.1599 39.2H22.8399C23.3199 39.2 23.7199 38.86 23.7799 38.38L24.4999 33.3C25.6799 32.82 26.7599 32.18 27.7399 31.42L32.5199 33.34C32.9599 33.5 33.4599 33.34 33.6999 32.9L37.5399 26.26C37.7799 25.82 37.6799 25.32 37.2999 25.04L33.2799 21.88ZM18.9999 27.2C15.0399 27.2 11.7999 23.96 11.7999 20C11.7999 16.04 15.0399 12.8 18.9999 12.8C22.9599 12.8 26.1999 16.04 26.1999 20C26.1999 23.96 22.9599 27.2 18.9999 27.2Z" fill="#3E2056"/>
</svg>
