<svg width="250" height="249" viewBox="0 0 250 249" fill="none" xmlns="http://www.w3.org/2000/svg">
<path d="M213.071 124.629C164.1 96.3801 84.9637 96.3801 36.3086 124.629C-12.3465 152.878 -12.064 198.747 36.929 227.019C85.9219 255.29 165.036 255.296 213.691 227.019C262.346 198.742 262.064 152.906 213.071 124.629Z" fill="#FAFAFA"/>
<path d="M230.131 200.548C231.704 201.456 231.71 202.929 230.131 203.838L223.706 207.544C222.828 207.991 221.856 208.225 220.87 208.225C219.884 208.225 218.912 207.991 218.034 207.544L147.605 166.87C146.032 165.967 146.021 164.494 147.605 163.586L154.025 159.88C154.904 159.432 155.877 159.198 156.863 159.198C157.85 159.198 158.823 159.432 159.702 159.88L230.131 200.548Z" fill="#F0F0F0"/>
<path d="M210.368 206.386C211.947 207.3 211.952 208.768 210.368 209.676L203.943 213.382C203.064 213.83 202.091 214.063 201.104 214.063C200.117 214.063 199.144 213.83 198.265 213.382L138.111 178.635C136.538 177.727 136.527 176.253 138.111 175.345L144.536 171.639C145.416 171.192 146.388 170.958 147.375 170.958C148.362 170.958 149.335 171.192 150.214 171.639L210.368 206.386Z" fill="#F0F0F0"/>
<path d="M36.4971 203.655C32.1822 201.163 25.2029 201.163 20.9102 203.655C16.6174 206.148 16.6451 210.191 20.96 212.684C25.275 215.176 32.2597 215.176 36.5469 212.684C40.8342 210.191 40.8065 206.148 36.4971 203.655Z" fill="#F0F0F0"/>
<path d="M58.1382 197.806C71.4707 190.107 93.0343 190.107 106.273 197.806C119.511 205.505 119.45 217.99 106.112 225.69C92.7739 233.389 71.2159 233.389 57.9776 225.69C44.7392 217.99 44.8001 205.505 58.1382 197.806Z" fill="#F0F0F0"/>
<path d="M42.2797 173.102L70.9277 156.562C71.125 156.452 71.2893 156.291 71.4037 156.097C71.518 155.902 71.5783 155.68 71.5783 155.454C71.5783 155.228 71.518 155.007 71.4037 154.812C71.2893 154.617 71.125 154.456 70.9277 154.346L45.6807 139.696C45.4879 139.584 45.2691 139.526 45.0465 139.526C44.8238 139.526 44.6051 139.584 44.4123 139.696L15.1328 156.601C14.9355 156.711 14.7712 156.871 14.6569 157.066C14.5425 157.261 14.4822 157.483 14.4822 157.709C14.4822 157.934 14.5425 158.156 14.6569 158.351C14.7712 158.546 14.9355 158.706 15.1328 158.816L39.7428 173.118C40.1301 173.338 40.5683 173.452 41.0135 173.449C41.4587 173.446 41.8953 173.326 42.2797 173.102Z" fill="#F0F0F0"/>
<path d="M131.453 117.899C124.695 114.022 113.772 114.022 107.081 117.899C100.39 121.777 100.401 128.13 107.159 132.03C113.916 135.929 124.839 135.935 131.531 132.03C138.222 128.125 138.211 121.81 131.453 117.899Z" fill="#F0F0F0"/>
<path d="M75.2204 31.4624L73.0491 30.1995L50.1118 43.3935V45.9027L75.2204 31.4624Z" fill="#F5F5F5"/>
<path d="M75.2204 31.4623L50.1118 45.9026V48.7718L75.2259 34.3426L75.2204 31.4623Z" fill="#E0E0E0"/>
<path d="M36.9953 53.4524L34.824 52.1895L11.8812 65.3835V67.8982L36.9953 53.4524Z" fill="#F5F5F5"/>
<path d="M36.9953 53.4524L11.8812 67.8983V70.7619L37.0008 56.3327L36.9953 53.4524Z" fill="#E0E0E0"/>
<path d="M75.0987 7.35104L72.9274 6.08813L73.0548 71.0447L75.2261 72.3076L75.0987 7.35104Z" fill="#F0F0F0"/>
<path d="M75.226 72.3073L73.0547 71.0444L48.068 85.3906L50.2393 86.6535L75.226 72.3073Z" fill="#F5F5F5"/>
<path d="M77.7297 73.7365L47.7468 90.963L47.6028 20.268L77.5857 3.03601L77.7297 73.7365ZM50.2228 86.6536L75.2094 72.3075L75.0821 7.35094L50.112 21.6916L50.2228 86.6536Z" fill="#E0E0E0"/>
<path d="M77.5856 3.03605L75.4199 1.77869L45.4314 19.0052L47.6027 20.2681L77.5856 3.03605Z" fill="#F5F5F5"/>
<path d="M47.6027 20.268L45.4314 19.0051L45.5754 89.7001L47.7467 90.963L47.6027 20.268Z" fill="#F0F0F0"/>
<path d="M36.8736 29.341L34.7023 28.0781L34.8297 93.0402L37.001 94.3031L36.8736 29.341Z" fill="#F0F0F0"/>
<path d="M37.0009 94.3029L34.8296 93.04L9.8429 107.381L12.0087 108.644L37.0009 94.3029Z" fill="#F5F5F5"/>
<path d="M39.5046 95.7267L9.5217 112.948L9.37769 42.2526L39.3606 25.0261L39.5046 95.7267ZM12.0032 108.644L36.9954 94.3031L36.8736 29.341L11.8813 43.7094L12.0032 108.644Z" fill="#E0E0E0"/>
<path d="M39.3605 25.0317L37.1892 23.7688L7.2063 40.9953L9.37761 42.2582L39.3605 25.0317Z" fill="#F5F5F5"/>
<path d="M9.37761 42.258L7.2063 40.9951L7.35031 111.696L9.52162 112.953L9.37761 42.258Z" fill="#F0F0F0"/>
<path d="M64.5522 154.474L66.995 155.897L66.9894 153.067L64.5522 154.474Z" fill="#E6E6E6"/>
<path d="M66.8896 125.599L43.0828 139.347L66.8896 125.599Z" fill="#CFCFCF"/>
<path d="M66.9895 153.067V155.897L69.5374 154.424L69.4433 121.189L40.5017 137.873L40.5959 171.135L43.1438 169.662V166.831L64.5523 154.49L66.9895 153.067ZM43.0829 139.346L66.9009 125.599L66.9341 136.389L43.1161 150.137L43.0829 139.346ZM43.1217 153.089L66.9396 139.341V139.374L66.9729 150.125L43.1549 163.873L43.1217 153.089Z" fill="#E6E6E6"/>
<path d="M66.9618 150.126L66.9286 139.369V139.341L43.1217 153.089L43.1494 163.874L66.9618 150.126Z" fill="#E0E0E0"/>
<path d="M66.9229 136.389L66.8896 125.599L43.0828 139.347L43.1105 150.137L66.9229 136.389Z" fill="#E0E0E0"/>
<path d="M40.5018 137.879L15.2271 123.189L15.3212 156.451L40.5959 171.141L40.5018 137.879Z" fill="#E0E0E0"/>
<path d="M40.5018 137.879L69.4489 121.162L44.1797 106.478L15.2271 123.189L40.5018 137.879Z" fill="#E0E0E0"/>
<path d="M64.5522 154.474L66.995 155.897L66.9894 153.067L64.5522 154.474Z" fill="#E6E6E6"/>
<path d="M66.8896 125.599L43.0828 139.347L66.8896 125.599Z" fill="#CFCFCF"/>
<path opacity="0.8" d="M66.9618 150.126L66.9286 139.369V139.341L43.1217 153.089L43.1494 163.874L66.9618 150.126Z" fill="white"/>
<path opacity="0.8" d="M66.9229 136.389L66.8896 125.599L43.0828 139.347L43.1105 150.137L66.9229 136.389Z" fill="white"/>
<path d="M59.1296 134.095L59.1185 132.605L50.8708 137.364L50.8819 138.854L59.1296 134.095Z" fill="#E0E0E0"/>
<path d="M59.1296 147.644L59.1185 146.154L50.8708 150.912L50.8819 152.402L59.1296 147.644Z" fill="#E0E0E0"/>
<path d="M40.5018 137.879L15.2271 123.189L15.3212 156.451L40.5959 171.141L40.5018 137.879Z" fill="#EBEBEB"/>
<path d="M40.5018 137.879L69.4489 121.162L44.1797 106.478L15.2271 123.189L40.5018 137.879Z" fill="#F0F0F0"/>
<path opacity="0.1" d="M125.914 32.2103C125.502 31.488 124.893 30.898 124.158 30.5098C121.455 28.9533 117.085 28.9533 114.398 30.5098C113.669 30.8982 113.067 31.4886 112.665 32.2103C111.989 33.5673 112.576 35.0961 114.431 36.1651C117.135 37.7272 121.505 37.7272 124.191 36.1651C126.036 35.0961 126.606 33.5673 125.914 32.2103Z" fill="black"/>
<path d="M126.191 124.291C126.147 125.272 125.482 126.247 124.191 126.994C121.505 128.556 117.135 128.556 114.432 126.994C113.13 126.247 112.46 125.272 112.399 124.291V126.468C112.399 127.493 113.08 128.518 114.432 129.299C117.135 130.855 121.505 130.855 124.191 129.299C125.537 128.518 126.202 127.493 126.191 126.468V124.291Z" fill="#E0E0E0"/>
<path d="M114.432 126.994C117.135 128.556 121.505 128.556 124.191 126.994C125.482 126.247 126.147 125.272 126.191 124.291C126.21 123.857 126.114 123.425 125.914 123.039C125.502 122.317 124.893 121.727 124.158 121.339C121.455 119.783 117.085 119.783 114.398 121.339C113.668 121.724 113.066 122.313 112.665 123.034C112.47 123.422 112.379 123.853 112.399 124.286C112.46 125.272 113.13 126.241 114.432 126.994Z" fill="#F0F0F0"/>
<path d="M114.088 52.3224H113.883V70.5182H114.088V52.3224Z" fill="#E0E0E0"/>
<path d="M114.476 70.7178C114.476 70.8175 114.446 70.9149 114.391 70.9978C114.336 71.0807 114.257 71.1453 114.165 71.1835C114.073 71.2216 113.971 71.2316 113.873 71.2122C113.776 71.1927 113.686 71.1447 113.615 71.0742C113.545 71.0037 113.497 70.9139 113.477 70.8161C113.458 70.7184 113.468 70.617 113.506 70.5249C113.544 70.4328 113.609 70.3541 113.692 70.2987C113.775 70.2433 113.872 70.2137 113.972 70.2137C114.106 70.2137 114.234 70.2668 114.328 70.3614C114.423 70.4559 114.476 70.5841 114.476 70.7178Z" fill="#F0F0F0"/>
<path d="M120.535 45.7643H118.054V123.571C118.063 123.681 118.101 123.786 118.165 123.875C118.228 123.965 118.314 124.036 118.414 124.081C118.686 124.22 118.987 124.293 119.292 124.293C119.597 124.293 119.898 124.22 120.17 124.081C120.27 124.037 120.356 123.966 120.418 123.876C120.481 123.786 120.518 123.681 120.524 123.571L120.535 45.7643Z" fill="#E0E0E0"/>
<path d="M133.547 49.1154C131.957 43.5763 125.903 32.2157 125.903 32.2157C126.595 33.5728 126.025 35.1015 124.18 36.1706C121.494 37.7326 117.123 37.7326 114.42 36.1706C112.565 35.1015 111.978 33.5728 112.653 32.2157C112.653 32.2157 106.599 43.604 105.015 49.1154C103.94 51.8849 105.259 54.876 108.97 57.0196C114.703 60.343 123.97 60.343 129.669 57.0196C133.364 54.8704 134.649 51.8627 133.547 49.1154Z" fill="#F0F0F0"/>
<path d="M125.914 32.2103C125.502 31.488 124.893 30.898 124.158 30.5098C121.455 28.9533 117.085 28.9533 114.398 30.5098C113.669 30.8982 113.067 31.4886 112.665 32.2103C111.989 33.5673 112.576 35.0961 114.431 36.1651C117.135 37.7272 121.505 37.7272 124.191 36.1651C126.036 35.0961 126.606 33.5673 125.914 32.2103Z" fill="#E0E0E0"/>
<path opacity="0.05" d="M37.1396 116.947C40.3578 115.091 45.5479 115.091 48.7716 116.947C51.9953 118.802 51.9455 121.81 48.7328 123.665C45.5202 125.521 40.3245 125.521 37.1008 123.665C33.8771 121.81 33.9269 118.802 37.1396 116.947Z" fill="black"/>
<path d="M34.3533 105.265L43.1715 105.525L51.9897 105.265C52.3719 111.225 51.2087 117.29 49.6023 120.254C49.2239 121.016 48.6129 121.639 47.8575 122.032C45.2542 123.533 41.05 123.533 38.4411 122.032C37.677 121.632 37.0658 120.991 36.7019 120.209C35.1232 117.229 33.9767 111.192 34.3533 105.265Z" fill="white"/>
<path d="M36.9567 101.653C33.5003 103.653 33.4837 106.882 36.9179 108.854C40.3521 110.826 45.9299 110.854 49.3863 108.854C52.8427 106.854 52.8593 103.625 49.4251 101.653C45.9909 99.6814 40.413 99.6537 36.9567 101.653Z" fill="#EBEBEB"/>
<path d="M38.325 102.451C35.6274 104.007 35.6108 106.528 38.2917 108.084C40.9726 109.64 45.3263 109.64 48.0183 108.084C50.7103 106.528 50.7324 104.007 48.0515 102.451C45.3706 100.894 41.0169 100.894 38.325 102.451Z" fill="#E0E0E0"/>
<g opacity="0.15">
<path d="M38.325 102.451C35.6274 104.007 35.6108 106.528 38.2917 108.084C40.9726 109.64 45.3263 109.64 48.0183 108.084C50.7103 106.528 50.7324 104.007 48.0515 102.451C45.3706 100.894 41.0169 100.894 38.325 102.451Z" fill="black"/>
</g>
<path d="M43.9081 105.514C43.2014 106.107 42.3636 106.524 41.4639 106.729C40.5643 106.934 39.6287 106.922 38.7346 106.694C37.8737 106.432 37.0917 105.959 36.4593 105.319C35.8268 104.679 35.3638 103.891 35.1121 103.027C36.1564 102.53 37.1125 101.866 37.9425 101.061C36.6187 100.732 35.2291 100.782 33.9323 101.205C33.5738 100.641 33.359 99.9972 33.3069 99.3309C33.2547 98.6646 33.3668 97.9956 33.6332 97.3827C35.1379 96.7131 36.8305 96.5954 38.4134 97.0503C37.7586 96.4814 36.9941 96.0527 36.1672 95.7907C35.3403 95.5287 34.4684 95.439 33.6055 95.5271C33.4805 92.9994 33.8764 90.473 34.7687 88.1047C38.0533 88.2709 41.2438 89.6889 42.3184 90.7081C42.3688 91.8848 42.2456 93.0625 41.9528 94.2032C42.3771 93.9855 42.7396 93.6642 43.0068 93.2692C43.2741 92.8742 43.4374 92.4182 43.4816 91.9433C45.5366 92.4584 46.4173 93.4832 46.7386 94.2697C46.442 95.7313 45.77 97.0904 44.7888 98.2135C46.7219 97.6319 47.5085 95.4772 47.5085 95.4772C49.3807 99.9805 49.0151 105.076 43.9081 105.514Z" fill="#BA68C8"/>
<path opacity="0.2" d="M43.9081 105.514C43.2014 106.107 42.3636 106.524 41.4639 106.729C40.5643 106.934 39.6287 106.922 38.7346 106.694C37.8737 106.432 37.0917 105.959 36.4593 105.319C35.8268 104.679 35.3638 103.891 35.1121 103.027C36.1564 102.53 37.1125 101.866 37.9425 101.061C36.6187 100.732 35.2291 100.782 33.9323 101.205C33.5738 100.641 33.359 99.9972 33.3069 99.3309C33.2547 98.6646 33.3668 97.9956 33.6332 97.3827C35.1379 96.7131 36.8305 96.5954 38.4134 97.0503C37.7586 96.4814 36.9941 96.0527 36.1672 95.7907C35.3403 95.5287 34.4684 95.439 33.6055 95.5271C33.4805 92.9994 33.8764 90.473 34.7687 88.1047C38.0533 88.2709 41.2438 89.6889 42.3184 90.7081C42.3688 91.8848 42.2456 93.0625 41.9528 94.2032C42.3771 93.9855 42.7396 93.6642 43.0068 93.2692C43.2741 92.8742 43.4374 92.4182 43.4816 91.9433C45.5366 92.4584 46.4173 93.4832 46.7386 94.2697C46.442 95.7313 45.77 97.0904 44.7888 98.2135C46.7219 97.6319 47.5085 95.4772 47.5085 95.4772C49.3807 99.9805 49.0151 105.076 43.9081 105.514Z" fill="black"/>
<path opacity="0.3" d="M43.9081 105.514C43.2014 106.107 42.3636 106.524 41.4639 106.729C40.5643 106.934 39.6287 106.922 38.7346 106.694C37.8737 106.432 37.0917 105.959 36.4593 105.319C35.8268 104.679 35.3638 103.891 35.1121 103.027C36.1564 102.53 37.1125 101.866 37.9425 101.061C36.6187 100.732 35.2291 100.782 33.9323 101.205C33.5738 100.641 33.359 99.9972 33.3069 99.3309C33.2547 98.6646 33.3668 97.9956 33.6332 97.3827C35.1379 96.7131 36.8305 96.5954 38.4134 97.0503C37.7586 96.4814 36.9941 96.0527 36.1672 95.7907C35.3403 95.5287 34.4684 95.439 33.6055 95.5271C33.4805 92.9994 33.8764 90.473 34.7687 88.1047C38.0533 88.2709 41.2438 89.6889 42.3184 90.7081C42.3688 91.8848 42.2456 93.0625 41.9528 94.2032C42.3771 93.9855 42.7396 93.6642 43.0068 93.2692C43.2741 92.8742 43.4374 92.4182 43.4816 91.9433C45.5366 92.4584 46.4173 93.4832 46.7386 94.2697C46.442 95.7313 45.77 97.0904 44.7888 98.2135C46.7219 97.6319 47.5085 95.4772 47.5085 95.4772C49.3807 99.9805 49.0151 105.076 43.9081 105.514Z" fill="white"/>
<path d="M44.0246 106.001C44.0494 106 44.0736 105.994 44.0959 105.983C44.1182 105.972 44.1382 105.957 44.1546 105.938C44.1711 105.92 44.1837 105.898 44.1919 105.875C44.2 105.851 44.2034 105.827 44.2019 105.802C43.8861 101.648 41.5099 94.7958 35.849 89.1404C35.8323 89.1182 35.811 89.0998 35.7867 89.0865C35.7623 89.0732 35.7353 89.0653 35.7076 89.0634C35.6799 89.0614 35.6521 89.0654 35.6261 89.0751C35.6001 89.0848 35.5764 89.1 35.5568 89.1197C35.5371 89.1393 35.5219 89.1629 35.5122 89.1889C35.5025 89.215 35.4985 89.2428 35.5005 89.2705C35.5025 89.2982 35.5104 89.3251 35.5237 89.3495C35.5369 89.3739 35.5553 89.3952 35.5775 89.4118C41.172 94.9897 43.515 101.742 43.8197 105.83C43.8253 105.879 43.8496 105.924 43.8878 105.956C43.926 105.988 43.9749 106.004 44.0246 106.001Z" fill="#F5F5F5"/>
<path d="M42.4681 107.741C43.1274 108.278 43.9044 108.653 44.7357 108.833C45.5671 109.013 46.4293 108.995 47.2521 108.779C48.075 108.563 48.8351 108.156 49.4707 107.59C50.1063 107.025 50.5993 106.317 50.9096 105.525C49.9653 105.096 49.1016 104.507 48.3561 103.786C49.6066 103.487 50.914 103.525 52.1448 103.897C52.5202 103.423 52.7682 102.862 52.8651 102.265C52.9621 101.669 52.9048 101.058 52.6987 100.49C51.2658 99.901 49.6776 99.8056 48.1844 100.219C49.5125 99.1802 51.1856 98.6852 52.8649 98.8339C53.1523 96.5989 52.9366 94.3279 52.2335 92.187C49.0984 92.3753 45.9965 93.6715 44.9219 94.591C44.7999 95.6251 44.8429 96.6721 45.0493 97.6928C44.6694 97.513 44.3467 97.2315 44.117 96.8796C43.8872 96.5276 43.7594 96.1189 43.7476 95.6988C41.7868 96.1751 40.9005 97.0946 40.5516 97.787C40.74 99.0746 41.2893 100.283 42.1358 101.271C40.3633 100.767 39.7595 98.8671 39.7595 98.8671C37.699 102.866 37.7267 107.358 42.4681 107.741Z" fill="#BA68C8"/>
<path opacity="0.3" d="M42.4681 107.741C43.1274 108.278 43.9044 108.653 44.7357 108.833C45.5671 109.013 46.4293 108.995 47.2521 108.779C48.075 108.563 48.8351 108.156 49.4707 107.59C50.1063 107.025 50.5993 106.317 50.9096 105.525C49.9653 105.096 49.1016 104.507 48.3561 103.786C49.6066 103.487 50.914 103.525 52.1448 103.897C52.5202 103.423 52.7682 102.862 52.8651 102.265C52.9621 101.669 52.9048 101.058 52.6987 100.49C51.2658 99.901 49.6776 99.8056 48.1844 100.219C49.5125 99.1802 51.1856 98.6852 52.8649 98.8339C53.1523 96.5989 52.9366 94.3279 52.2335 92.187C49.0984 92.3753 45.9965 93.6715 44.9219 94.591C44.7999 95.6251 44.8429 96.6721 45.0493 97.6928C44.6694 97.513 44.3467 97.2315 44.117 96.8796C43.8872 96.5276 43.7594 96.1189 43.7476 95.6988C41.7868 96.1751 40.9005 97.0946 40.5516 97.787C40.74 99.0746 41.2893 100.283 42.1358 101.271C40.3633 100.767 39.7595 98.8671 39.7595 98.8671C37.699 102.866 37.7267 107.358 42.4681 107.741Z" fill="white"/>
<path d="M42.3408 108.189C42.3863 108.19 42.4304 108.174 42.465 108.144C42.4996 108.115 42.5224 108.074 42.5291 108.029C43.083 104.412 45.6974 98.413 51.3251 93.4002C51.3594 93.3633 51.3784 93.3148 51.3784 93.2645C51.3784 93.2141 51.3594 93.1657 51.3251 93.1288C51.2889 93.0933 51.2402 93.0734 51.1894 93.0734C51.1387 93.0734 51.0899 93.0933 51.0537 93.1288C45.354 98.2081 42.6897 104.307 42.1414 107.985C42.1334 108.034 42.1452 108.084 42.1743 108.125C42.2033 108.165 42.2473 108.192 42.2965 108.201L42.3408 108.189Z" fill="white"/>
<path d="M39.1835 189.309L28.7313 189.613L18.2735 189.309C17.8249 196.371 19.2041 203.561 21.104 207.078C21.5551 207.981 22.2802 208.718 23.1756 209.183C26.2609 210.967 31.246 210.967 34.3091 209.183C35.218 208.71 35.9459 207.951 36.3807 207.023C38.2695 203.489 39.6321 196.332 39.1835 189.309Z" fill="white"/>
<path d="M36.0982 185.027C40.1916 187.392 40.2138 191.225 36.1481 193.59C32.0824 195.956 25.4577 195.956 21.3588 193.59C17.2599 191.225 17.2433 187.392 21.3145 185.027C25.3857 182.662 32.0049 182.662 36.0982 185.027Z" fill="#EBEBEB"/>
<path d="M34.4806 185.969C37.6766 187.813 37.6932 190.804 34.5138 192.649C31.3344 194.493 26.2052 194.493 22.9815 192.649C19.7578 190.804 19.7688 187.813 22.9427 185.969C26.1166 184.124 31.2845 184.124 34.4806 185.969Z" fill="#E0E0E0"/>
<g opacity="0.15">
<path d="M34.4806 185.969C37.6766 187.813 37.6932 190.804 34.5138 192.649C31.3344 194.493 26.2052 194.493 22.9815 192.649C19.7578 190.804 19.7688 187.813 22.9427 185.969C26.1166 184.124 31.2845 184.124 34.4806 185.969Z" fill="black"/>
</g>
<path d="M45.9189 144.698C22.3613 152.413 22.1453 168.172 27.4573 179.416C28.7977 181.693 32.8523 182.911 36.3807 168.953L30.188 169.723L37.3888 166.067L39.2665 160.467L33.2511 160.916L40.8839 157.703C42.2942 153.269 43.9757 148.925 45.9189 144.698Z" fill="#BA68C8"/>
<path opacity="0.2" d="M45.9189 144.698C22.3613 152.413 22.1453 168.172 27.4573 179.416C28.7977 181.693 32.8523 182.911 36.3807 168.953L30.188 169.723L37.3888 166.067L39.2665 160.467L33.2511 160.916L40.8839 157.703C42.2942 153.269 43.9757 148.925 45.9189 144.698Z" fill="black"/>
<path opacity="0.2" d="M45.9189 144.698C22.3613 152.413 22.1453 168.172 27.4573 179.416C28.7977 181.693 32.8523 182.911 36.3807 168.953L30.188 169.723L37.3888 166.067L39.2665 160.467L33.2511 160.916L40.8839 157.703C42.2942 153.269 43.9757 148.925 45.9189 144.698Z" fill="white"/>
<path d="M39.2554 148.641C26.8313 158.058 25.7068 168.881 29.2186 180.164C27.9779 170.227 26.6374 160.179 39.2554 148.641Z" fill="white"/>
<path d="M6.0155 160.705C29.2352 163.979 32.0491 178.619 28.9749 189.957C28.1053 192.295 24.5436 194.106 18.927 181.693L24.8206 181.399L17.498 179.184L14.8226 174.282L20.4946 173.7L12.8562 171.977C10.8098 168.083 8.5252 164.319 6.0155 160.705Z" fill="#BA68C8"/>
<path opacity="0.2" d="M6.0155 160.705C29.2352 163.979 32.0491 178.619 28.9749 189.957C28.1053 192.295 24.5436 194.106 18.927 181.693L24.8206 181.399L17.498 179.184L14.8226 174.282L20.4946 173.7L12.8562 171.977C10.8098 168.083 8.5252 164.319 6.0155 160.705Z" fill="white"/>
<path d="M12.8728 163.27C26.0114 169.989 28.853 179.887 27.4571 190.965C26.9586 181.504 26.5432 171.922 12.8728 163.27Z" fill="white"/>
<path opacity="0.1" d="M6.0155 160.705C29.2352 163.979 32.0491 178.619 28.9749 189.957C28.1053 192.295 24.5436 194.106 18.927 181.693L24.8206 181.399L17.498 179.184L14.8226 174.282L20.4946 173.7L12.8562 171.977C10.8098 168.083 8.5252 164.319 6.0155 160.705Z" fill="black"/>
<path d="M52.7153 166.195C31.4176 166.544 27.2356 179.427 28.7478 190.013C29.2685 192.228 32.2873 194.244 38.7181 183.687L33.4505 182.74L40.2967 181.571L43.2546 177.455L38.2085 176.292L45.2874 175.594C47.5687 172.312 50.0493 169.173 52.7153 166.195Z" fill="#BA68C8"/>
<path d="M46.2457 167.74C33.6499 172.321 29.9886 180.912 29.9997 191.048C31.5063 182.596 32.9575 174.005 46.2457 167.74Z" fill="white"/>
<path opacity="0.2" d="M52.7153 166.195C31.4176 166.544 27.2356 179.427 28.7478 190.013C29.2685 192.228 32.2873 194.244 38.7181 183.687L33.4505 182.74L40.2967 181.571L43.2546 177.455L38.2085 176.292L45.2874 175.594C47.5687 172.312 50.0493 169.173 52.7153 166.195Z" fill="white"/>
<path d="M231.206 41.4938C230.636 40.3298 229.729 39.3646 228.602 38.7243L160.887 0.200159C160.57 0.0792618 160.235 0.0136866 159.896 0.00629164C156.406 -0.0657161 152.906 3.21894 152.413 4.94159C152.301 5.15924 152.242 5.4003 152.241 5.64505V152.064C152.241 153.208 152.543 154.33 153.117 155.319C153.691 156.307 154.516 157.126 155.509 157.692L223.23 196.283C223.314 196.324 223.401 196.359 223.49 196.388C227.528 198.1 231.832 194.538 231.832 190.81V44.352C231.844 43.364 231.63 42.3864 231.206 41.4938Z" fill="#37474F"/>
<path d="M152.435 4.93586C152.928 3.21322 156.429 -0.0492867 159.918 0.00056479C160.252 0.00983985 160.581 0.0753842 160.893 0.194432L228.58 38.7241C229.577 39.291 230.408 40.1086 230.991 41.0958C231.574 42.0829 231.889 43.2054 231.904 44.3518V190.827C231.904 194.554 227.6 198.116 223.562 196.404C223.473 196.375 223.386 196.34 223.302 196.299L155.531 157.692C154.538 157.126 153.713 156.307 153.139 155.319C152.565 154.33 152.263 153.207 152.263 152.064V5.6504C152.262 5.40191 152.321 5.15685 152.435 4.93586Z" fill="#455A64"/>
<path d="M222.432 59.8336C222.437 59.2622 222.291 58.6995 222.009 58.2025C221.727 57.7055 221.319 57.2918 220.826 57.0032L157.924 21.2486C157.678 21.1075 157.398 21.0338 157.114 21.035C156.83 21.0363 156.551 21.1123 156.306 21.2555C156.061 21.3987 155.857 21.604 155.716 21.8507C155.576 22.0974 155.502 22.3769 155.504 22.661V140.765C155.502 141.335 155.651 141.896 155.936 142.39C156.221 142.884 156.632 143.294 157.127 143.579L220.012 179.416C220.258 179.557 220.537 179.631 220.82 179.63C221.104 179.629 221.382 179.553 221.627 179.411C221.873 179.268 222.076 179.064 222.217 178.818C222.359 178.572 222.433 178.293 222.432 178.009V59.8336Z" fill="#BA68C8"/>
<path opacity="0.2" d="M222.432 59.8336C222.437 59.2622 222.291 58.6995 222.009 58.2025C221.727 57.7055 221.319 57.2918 220.826 57.0032L157.924 21.2486C157.678 21.1075 157.398 21.0338 157.114 21.035C156.83 21.0363 156.551 21.1123 156.306 21.2555C156.061 21.3987 155.857 21.604 155.716 21.8507C155.576 22.0974 155.502 22.3769 155.504 22.661V140.765C155.502 141.335 155.651 141.896 155.936 142.39C156.221 142.884 156.632 143.294 157.127 143.579L220.012 179.416C220.258 179.557 220.537 179.631 220.82 179.63C221.104 179.629 221.382 179.553 221.627 179.411C221.873 179.268 222.076 179.064 222.217 178.818C222.359 178.572 222.433 178.293 222.432 178.009V59.8336Z" fill="black"/>
<path opacity="0.3" d="M231.904 44.3519V190.827C231.904 194.554 227.6 198.116 223.562 196.405C223.805 196.493 224.066 196.521 224.322 196.487C224.579 196.453 224.823 196.358 225.035 196.209C225.247 196.061 225.42 195.864 225.539 195.635C225.659 195.406 225.722 195.151 225.722 194.892V48.4009C225.715 47.1248 225.33 45.8795 224.614 44.8227L231.261 41.4993C231.69 42.3888 231.91 43.3645 231.904 44.3519Z" fill="black"/>
<path opacity="0.1" d="M159.896 0.00618839C160.23 0.0154635 160.559 0.0810078 160.871 0.200056L228.58 38.7242C229.707 39.3645 230.614 40.3297 231.184 41.4937L224.537 44.8172C223.984 43.9714 223.238 43.269 222.36 42.7677L154.684 4.24357C154.492 4.13488 154.28 4.06649 154.061 4.04261C153.842 4.01873 153.621 4.03986 153.41 4.10469C153.199 4.16953 153.004 4.2767 152.837 4.41964C152.669 4.56259 152.532 4.73828 152.435 4.93595C152.922 3.21884 156.423 -0.0492022 159.896 0.00618839Z" fill="white"/>
<path d="M180.623 28.4325C180.147 28.1556 179.753 28.3716 179.748 28.92C179.766 29.2199 179.854 29.5114 180.005 29.7711C180.156 30.0308 180.366 30.2515 180.618 30.4155L193.911 38.0871C194.388 38.3641 194.77 38.1314 194.775 37.5831C194.759 37.2863 194.673 36.9976 194.524 36.7405C194.374 36.4835 194.166 36.2654 193.917 36.1041L180.623 28.4325Z" fill="#263238"/>
<path d="M197.318 38.0706C196.842 37.7991 196.459 38.0152 196.459 38.5635C196.473 38.8626 196.557 39.1541 196.706 39.4141C196.854 39.6742 197.062 39.8952 197.312 40.0591C197.789 40.3305 198.182 40.1089 198.182 39.5606C198.166 39.2616 198.079 38.9707 197.929 38.7117C197.779 38.4527 197.57 38.233 197.318 38.0706Z" fill="#263238"/>
<path d="M188.816 27.3192C187.863 26.7653 187.098 27.2029 187.093 28.2996C187.124 28.896 187.295 29.4767 187.592 29.9945C187.889 30.5124 188.305 30.9527 188.804 31.2797C189.752 31.8336 190.544 31.3794 190.544 30.2882C190.509 29.6922 190.335 29.1128 190.035 28.5969C189.735 28.081 189.317 27.6433 188.816 27.3192Z" fill="#263238"/>
<path d="M188.81 165.208C186.877 164.101 185.315 164.981 185.309 167.202C185.366 168.421 185.711 169.608 186.316 170.667C186.921 171.726 187.768 172.627 188.788 173.295C190.721 174.403 192.327 173.495 192.333 171.274C192.263 170.057 191.908 168.874 191.296 167.82C190.684 166.766 189.832 165.871 188.81 165.208Z" fill="#263238"/>
<path d="M211.802 63.8713C211.725 63.6664 211.636 63.4615 211.542 63.2621C211.156 62.4741 210.602 61.7802 209.919 61.2292C209.684 61.0454 209.436 60.8788 209.177 60.7307L147.71 25.7626C147.609 25.7172 147.503 25.6837 147.394 25.6629C147.212 25.6247 147.027 25.6007 146.84 25.5909C144.863 25.5521 142.88 26.6987 141.562 27.945C140.895 28.5235 140.377 29.2527 140.05 30.072C140.004 30.1704 139.967 30.2723 139.939 30.3767C139.91 30.487 139.895 30.6005 139.894 30.7146V163.613C139.894 164.651 140.169 165.669 140.692 166.565C140.821 166.787 140.963 166.999 141.119 167.202C141.595 167.818 142.188 168.334 142.863 168.72L204.347 203.744C204.422 203.782 204.5 203.815 204.58 203.843C204.58 203.843 204.58 203.843 204.607 203.843C208.274 205.394 212.179 202.182 212.179 198.775V65.8654C212.17 65.1839 212.043 64.5092 211.802 63.8713Z" fill="#BA68C8"/>
<path d="M140.038 30.072C140.487 28.5045 143.667 25.5245 146.829 25.5909C147.134 25.5968 147.436 25.6549 147.721 25.7626L209.205 60.7307C210.103 61.2499 210.85 61.9948 211.372 62.8915C211.893 63.7883 212.172 64.8058 212.179 65.8433V198.803C212.179 202.193 208.302 205.422 204.607 203.871C204.607 203.871 204.607 203.871 204.58 203.871C204.5 203.842 204.422 203.809 204.347 203.771L142.863 168.748C141.963 168.234 141.213 167.49 140.692 166.594C140.171 165.697 139.896 164.678 139.894 163.641V30.7146C139.892 30.4922 139.942 30.2723 140.038 30.072Z" fill="#BA68C8"/>
<path opacity="0.2" d="M212.151 65.8653V198.803C212.151 202.193 208.274 205.422 204.58 203.871C204.58 203.871 204.58 203.871 204.552 203.871C204.773 203.951 205.01 203.976 205.243 203.945C205.476 203.915 205.698 203.828 205.891 203.694C206.084 203.559 206.241 203.38 206.35 203.172C206.46 202.964 206.517 202.732 206.518 202.497V69.5599C206.514 68.4032 206.167 67.2738 205.521 66.314L211.542 63.3063C211.937 64.1021 212.145 64.9772 212.151 65.8653Z" fill="white"/>
<path opacity="0.4" d="M146.824 25.5909C147.129 25.5968 147.43 25.6549 147.716 25.7626L209.199 60.7307C210.224 61.318 211.048 62.2 211.564 63.2621L205.543 66.2698C205.041 65.5015 204.363 64.8636 203.566 64.4086L142.082 29.435C141.908 29.337 141.715 29.2757 141.515 29.2548C141.316 29.2339 141.115 29.2538 140.923 29.3135C140.732 29.3731 140.555 29.4711 140.403 29.6015C140.251 29.732 140.127 29.8921 140.039 30.072C140.509 28.5045 143.661 25.5245 146.824 25.5909Z" fill="white"/>
<path opacity="0.3" d="M140.038 30.072C140.487 28.5045 143.667 25.5245 146.829 25.5909C147.134 25.5968 147.436 25.6549 147.721 25.7626L209.205 60.7307C210.103 61.2499 210.85 61.9948 211.372 62.8915C211.893 63.7883 212.172 64.8058 212.179 65.8433V198.803C212.179 202.193 208.302 205.422 204.607 203.871C204.607 203.871 204.607 203.871 204.58 203.871C204.5 203.842 204.422 203.809 204.347 203.771L142.863 168.748C141.963 168.234 141.213 167.49 140.692 166.594C140.171 165.697 139.896 164.678 139.894 163.641V30.7146C139.892 30.4922 139.942 30.2723 140.038 30.072Z" fill="white"/>
<path d="M200.209 93.6216L145.428 61.9881C144.902 61.6834 144.475 61.9271 144.475 62.542L144.387 124.286C144.403 124.618 144.498 124.942 144.663 125.231C144.829 125.52 145.061 125.766 145.34 125.948L200.115 157.576C200.641 157.875 201.068 157.637 201.074 157.022L201.151 95.2723C201.136 94.9423 201.043 94.6206 200.879 94.3336C200.715 94.0467 200.486 93.8027 200.209 93.6216Z" fill="#BA68C8"/>
<path d="M147.937 41.4715L148.591 41.8482L148.596 39.051L147.948 38.6743L147.937 41.4715Z" fill="white"/>
<path d="M146.818 40.8233L147.466 41.1999L147.477 38.9345L146.824 38.5634L146.818 40.8233Z" fill="white"/>
<path d="M145.7 40.1754L146.348 40.5521L146.353 38.8737L145.705 38.4971L145.7 40.1754Z" fill="white"/>
<path d="M144.581 39.5328L145.229 39.904L145.234 38.774L144.581 38.3973V39.5328Z" fill="white"/>
<path d="M150.363 42.8671L154.346 45.1714L154.351 42.8228L150.369 40.5186L150.363 42.8671Z" fill="white"/>
<path d="M156.329 46.3126L158.323 47.4647L158.328 45.1162L156.334 43.9696L156.329 46.3126Z" fill="white"/>
<path d="M197.462 69.7706L197.467 67.8762L199.606 69.1114L197.467 67.8762L197.462 69.7706Z" fill="white"/>
<path d="M197.462 69.7706L199.606 71.0058V69.1114L197.467 67.8762L197.462 69.7706Z" fill="#BA68C8"/>
<path d="M201.112 70.2966V69.5544L197.074 67.2224V69.9919L201.112 72.3239V71.5872L201.627 71.8863V70.568L201.112 70.2966ZM199.606 71.0333L197.462 69.7981V67.9037L199.606 69.1389V71.0333Z" fill="white"/>
<path d="M191.286 66.4527L195.268 68.7514L195.279 66.4028L191.291 64.1041L191.286 66.4527Z" fill="white"/>
<path d="M172.265 55.3301L176.247 57.6344L176.258 55.2858L172.27 52.9816L172.265 55.3301Z" fill="white"/>
<path d="M162.943 155.177L162.937 157.52L173.151 163.419L173.162 161.076L162.943 155.177Z" fill="#BA68C8"/>
<path d="M177.843 156.124L167.329 150.048L167.318 152.391L177.837 158.462L177.843 156.124Z" fill="#BA68C8"/>
<path d="M145.35 143.357L158.262 150.862L158.268 148.525L145.356 141.019L145.35 143.357Z" fill="#BA68C8"/>
<path d="M164.499 148.42L145.367 137.319L145.362 139.657L164.494 150.757L164.499 148.42Z" fill="#BA68C8"/>
<path d="M161.081 152.491L184.379 165.94L184.384 163.602L161.092 150.153L161.081 152.491Z" fill="#BA68C8"/>
<path d="M160.461 153.748L145.367 145.035L145.362 147.373L160.456 156.086L160.461 153.748Z" fill="#BA68C8"/>
<path d="M180.551 160.03L199.168 170.781L199.179 168.438L180.557 157.687L180.551 160.03Z" fill="#BA68C8"/>
<path d="M187.093 167.507L199.163 174.475L199.168 172.138L187.104 165.169L187.093 167.507Z" fill="#BA68C8"/>
<path d="M145.362 155.415L168.659 168.864L168.664 166.527L145.367 153.072L145.362 155.415Z" fill="#BA68C8"/>
<path d="M145.367 158.6L145.362 160.943L160.461 169.656V167.313L145.367 158.6Z" fill="#BA68C8"/>
<path d="M172.115 174.038L162.909 168.726V171.069L172.11 176.381L172.115 174.038Z" fill="#BA68C8"/>
<path d="M146.757 129.941C146.616 129.838 146.45 129.774 146.275 129.756C146.101 129.739 145.925 129.768 145.766 129.842C145.212 130.152 145.212 131.165 145.766 132.107L146.082 132.661L148.054 136.073L150.037 134.965L150.358 134.783C150.912 134.472 150.912 133.453 150.358 132.511C150.125 132.079 149.785 131.713 149.372 131.448C149.229 131.347 149.063 131.285 148.889 131.267C148.715 131.25 148.54 131.278 148.38 131.348L148.059 131.531L147.743 130.977C147.509 130.553 147.169 130.197 146.757 129.941Z" fill="white"/>
<path d="M154.977 134.799C155.686 135.259 156.275 135.881 156.698 136.612C157.12 137.344 157.364 138.165 157.409 139.009C157.425 139.436 157.309 139.857 157.077 140.216L157.398 141.806L156.179 140.731C155.75 140.746 155.325 140.633 154.961 140.404C154.253 139.943 153.665 139.322 153.244 138.59C152.822 137.859 152.579 137.038 152.535 136.195C152.54 134.644 153.631 134.023 154.977 134.799Z" fill="white"/>
<path d="M175.843 85.1135L178.673 90.287L182.789 91.7216L184.528 97.1056L188.688 100.075L189.17 105.137L192.97 109.352L192.133 113.601L195.202 118.641L193.141 121.66L195.18 127.044L192.095 128.534L192.898 133.73L189.087 133.547L188.583 138.045L184.417 136.206L182.656 139.568L178.546 136.25L175.693 138.15L172.043 133.686L168.382 133.929L165.546 128.75L161.436 127.321L159.697 121.932L155.537 118.968L155.06 113.9L151.261 109.69L152.091 105.436L149.023 100.396L151.083 97.377L149.045 91.993L152.136 90.503L151.327 85.3074L155.138 85.4957L155.642 80.998L159.807 82.8314L161.574 79.4692L165.679 82.7871L168.531 80.8928L172.182 85.3573L175.843 85.1135Z" fill="#BA68C8"/>
<g opacity="0.4">
<path d="M175.843 85.1135L178.673 90.287L182.789 91.7216L184.528 97.1056L188.688 100.075L189.17 105.137L192.97 109.352L192.133 113.601L195.202 118.641L193.141 121.66L195.18 127.044L192.095 128.534L192.898 133.73L189.087 133.547L188.583 138.045L184.417 136.206L182.656 139.568L178.546 136.25L175.693 138.15L172.043 133.686L168.382 133.929L165.546 128.75L161.436 127.321L159.697 121.932L155.537 118.968L155.06 113.9L151.261 109.69L152.091 105.436L149.023 100.396L151.083 97.377L149.045 91.993L152.136 90.503L151.327 85.3074L155.138 85.4957L155.642 80.998L159.807 82.8314L161.574 79.4692L165.679 82.7871L168.531 80.8928L172.182 85.3573L175.843 85.1135Z" fill="white"/>
</g>
<path d="M172.171 89.3013C181.886 94.9123 189.735 108.511 189.702 119.677C189.668 130.844 181.77 135.342 172.082 129.736C162.394 124.131 154.518 110.527 154.545 99.3602C154.573 88.1935 162.449 83.6957 172.171 89.3013Z" fill="#BA68C8"/>
<g opacity="0.2">
<path d="M172.171 89.3013C181.886 94.9123 189.735 108.511 189.702 119.677C189.668 130.844 181.77 135.342 172.082 129.736C162.394 124.131 154.518 110.527 154.545 99.3602C154.573 88.1935 162.449 83.6957 172.171 89.3013Z" fill="white"/>
</g>
<path d="M184.135 106.854C184.562 107.098 184.816 107.901 184.434 108.04C180.939 109.314 173.533 112.366 169.013 116.753C168.855 116.875 168.66 116.941 168.46 116.941C168.259 116.941 168.064 116.875 167.906 116.753C167.424 116.46 167.039 116.032 166.798 115.523C164.722 111.345 162.397 107.296 159.835 103.398C159.37 102.689 159.669 102.019 160.223 102.34C160.268 102.365 160.311 102.395 160.35 102.429C163.143 104.776 165.588 107.509 167.612 110.543C174.458 106.145 180.673 106.262 183.952 106.788C184.017 106.799 184.079 106.822 184.135 106.854Z" fill="white"/>
<path d="M149.073 53.2252C150.103 53.8957 150.96 54.8001 151.574 55.8647C152.188 56.9293 152.542 58.124 152.607 59.3514C152.607 61.6003 151.006 62.5087 149.051 61.3787C148.016 60.7107 147.155 59.8074 146.537 58.7426C145.919 57.6778 145.562 56.4818 145.495 55.2525C145.522 53.0036 147.112 52.0952 149.073 53.2252Z" fill="white"/>
<path d="M174.973 70.8062L155.841 59.7059L155.836 62.049L174.968 73.1492L174.973 70.8062Z" fill="white"/>
<path d="M89.6111 74.7557H90.165C93.7654 74.8 98.3129 77.2483 100.54 83.5296L109.186 100.269L99.2989 104.639L93.8983 88.836L89.6111 74.7557Z" fill="#FFA8A7"/>
<path d="M96.5402 85.8726C97.2271 87.85 97.2714 89.9826 97.3821 92.0708C97.4929 94.159 97.7311 96.6904 98.6894 98.5515C99.7442 97.8216 101.007 97.4525 102.289 97.4994C103.571 97.5464 104.803 98.0068 105.802 98.8118C106.519 99.4123 107.07 100.187 107.402 101.061L99.2987 104.639L93.8981 88.836L91.2449 80.123C92.4658 80.6806 93.5632 81.4764 94.4725 82.4637C95.3818 83.451 96.0848 84.61 96.5402 85.8726Z" fill="#F28F8F"/>
<path d="M99.2101 101.631C99.585 100.699 100.192 99.8776 100.973 99.2456C101.755 98.6135 102.684 98.1916 103.675 98.0197C105.646 97.704 107.89 98.7343 109.169 100.274C110.244 101.576 110.078 103.337 109.396 104.883C108.829 106.084 107.862 107.051 106.661 107.62C105.46 108.189 104.099 108.323 102.81 108.001C100.262 107.292 98.2463 104.085 99.2101 101.631Z" fill="#FFA8A7"/>
<path d="M67.787 209.571C67.567 210.014 67.2246 210.384 66.8005 210.638C66.3764 210.893 65.8884 211.02 65.3941 211.005C64.9553 210.922 64.5463 210.724 64.208 210.432C63.8697 210.141 63.614 209.765 63.4665 209.344C63.1746 208.506 63.0412 207.621 63.0732 206.735C63.0142 203.781 63.0843 200.838 63.2837 197.906C65.3109 198.333 67.377 198.548 69.4487 198.548L68.5015 206.718C68.4513 207.706 68.2086 208.675 67.787 209.571Z" fill="#FFA8A7"/>
<path d="M61.3506 205.333C62.115 202.88 62.9514 200.348 62.7741 197.806L63.2837 197.928C63.0843 200.863 63.0142 203.807 63.0732 206.757C63.0413 207.644 63.1746 208.528 63.4665 209.366C63.614 209.788 63.8697 210.163 64.208 210.455C64.5463 210.746 64.9554 210.944 65.3941 211.028C65.8884 211.042 66.3764 210.915 66.8005 210.661C67.2246 210.406 67.567 210.036 67.787 209.593C68.2086 208.698 68.4513 207.729 68.5015 206.74L69.4487 198.592H70.1023C69.5484 201.639 69.9417 204.768 70.1355 207.865C70.3294 210.961 70.2962 214.185 68.9668 216.982C68.6596 217.738 68.1353 218.385 67.4602 218.843C67.0885 219.044 66.6798 219.168 66.2588 219.206C65.8379 219.244 65.4137 219.196 65.0119 219.065C64.2106 218.796 63.4826 218.344 62.8849 217.747C61.5298 216.448 60.627 214.749 60.3093 212.9C59.8772 210.357 60.5862 207.782 61.3506 205.333Z" fill="#455A64"/>
<path d="M93.4716 202.985L92.9676 206.02C90.5581 204.868 89.7826 203.578 89.7826 203.578C89.7217 201.251 89.7494 198.853 89.7826 197.684C90.4252 199.102 91.8265 200.06 92.7017 201.368C93.0239 201.873 93.2825 202.416 93.4716 202.985Z" fill="#455A64"/>
<path d="M94.2471 205.688L92.9675 206.02L93.4716 202.985C93.7873 203.854 93.9812 204.785 94.2471 205.688Z" fill="#455A64"/>
<path opacity="0.2" d="M93.4716 202.985L92.9676 206.02C90.5581 204.868 89.7826 203.578 89.7826 203.578C89.7217 201.251 89.7494 198.853 89.7826 197.684C90.4252 199.102 91.8265 200.06 92.7017 201.368C93.0239 201.873 93.2825 202.416 93.4716 202.985Z" fill="black"/>
<path opacity="0.3" d="M94.2471 205.688L92.9675 206.02L93.4716 202.985C93.7873 203.854 93.9812 204.785 94.2471 205.688Z" fill="black"/>
<path d="M89.6497 194.316C89.9047 193.513 90.2387 192.738 90.6468 192.001C90.6818 193.248 91.0656 194.461 91.7546 195.501C92.6187 196.897 93.7763 198.099 94.6127 199.523C95.6264 201.251 96.1526 203.284 97.482 204.779C98.1378 205.504 98.9532 206.065 99.8636 206.42C100.774 206.775 101.754 206.913 102.727 206.823C103.458 206.796 104.149 206.487 104.655 205.959C104.857 205.697 104.968 205.376 104.971 205.045C105.626 205.749 106.352 206.383 107.137 206.94C108.012 207.549 109.064 208.191 109.208 209.249C109.231 209.692 109.124 210.132 108.901 210.514C108.678 210.897 108.347 211.206 107.951 211.404C107.148 211.777 106.272 211.966 105.386 211.958C103.491 212.123 101.582 211.96 99.7419 211.476C97.8939 210.972 96.2941 209.81 95.2442 208.208C94.7936 207.411 94.4544 206.555 94.2361 205.666C93.9868 204.763 93.7763 203.832 93.4606 202.963C93.2663 202.393 93.0021 201.85 92.6741 201.345C91.7989 200.038 90.3975 199.08 89.755 197.662C89.7218 197.584 89.683 197.512 89.6497 197.435C89.322 196.421 89.322 195.33 89.6497 194.316Z" fill="#455A64"/>
<path d="M102.739 206.823C101.766 206.913 100.785 206.775 99.8748 206.42C98.9644 206.065 98.149 205.504 97.4932 204.78C96.1638 203.284 95.6376 201.251 94.6239 199.523C93.7875 198.099 92.6299 196.897 91.7658 195.502C91.0768 194.461 90.693 193.248 90.658 192.001L90.9737 191.414C93.5937 191.879 96.4629 192.045 98.9832 192.898C99.7601 195.547 100.749 198.13 101.941 200.62C102.749 202.231 103.776 203.722 104.993 205.051C104.991 205.382 104.88 205.703 104.677 205.965C104.168 206.493 103.472 206.801 102.739 206.823Z" fill="#FFA8A7"/>
<path d="M95.6431 97.4936C95.7871 99.7092 95.9293 101.925 96.0696 104.14C101.082 124.807 99.5869 155.681 99.5869 155.681L99.4318 193.347C98.7216 193.813 97.9256 194.133 97.0905 194.288C96.2554 194.443 95.3977 194.43 94.5676 194.25C93.7375 194.07 92.9515 193.726 92.2555 193.24C91.5596 192.753 90.9675 192.132 90.5139 191.414C89.6609 182.158 85.3571 167.596 86.6366 156.246C84.9029 147.29 83.6123 134.55 83.6123 134.55L79.397 156.584L70.6176 199.108C66.7403 200.769 63.3005 199.628 62.1816 198.122C63.079 174.664 62.6968 163.386 66.3138 152.541C65.206 123.444 64.8515 110.294 71.9415 100.296L71.8528 96.5187L95.6431 97.4936Z" fill="#BA68C8"/>
<path opacity="0.3" d="M95.6431 97.4936C95.7871 99.7092 95.9293 101.925 96.0696 104.14C101.082 124.807 99.5869 155.681 99.5869 155.681L99.4318 193.347C98.7216 193.813 97.9256 194.133 97.0905 194.288C96.2554 194.443 95.3977 194.43 94.5676 194.25C93.7375 194.07 92.9515 193.726 92.2555 193.24C91.5596 192.753 90.9675 192.132 90.5139 191.414C89.6609 182.158 85.3571 167.596 86.6366 156.246C84.9029 147.29 83.6123 134.55 83.6123 134.55L79.397 156.584L70.6176 199.108C66.7403 200.769 63.3005 199.628 62.1816 198.122C63.079 174.664 62.6968 163.386 66.3138 152.541C65.206 123.444 64.8515 110.294 71.9415 100.296L71.8528 96.5187L95.6431 97.4936Z" fill="black"/>
<path opacity="0.2" d="M84.5648 129.637C87.1897 129.161 89.6604 128.057 91.7655 126.418C91.3623 127.584 90.6677 128.627 89.7476 129.448C88.8275 130.269 87.7126 130.841 86.509 131.11L84.2933 140.294L83.6287 134.611L84.5648 129.637Z" fill="black"/>
<path d="M86.8913 74.368L89.4337 74.5564C89.9224 74.5926 90.3965 74.739 90.8205 74.9846C91.2445 75.2302 91.6074 75.5685 91.882 75.9744L97.7534 84.6707C98.6172 85.9425 99.041 87.4621 98.96 88.9974C98.879 90.5327 98.2976 91.9993 97.3047 93.1731C96.9333 93.6106 96.6577 94.121 96.4955 94.6715C96.3333 95.2219 96.2882 95.8002 96.3631 96.3692L98.3682 116.216C86.8248 124.785 71.0828 119.644 65.8318 116.847C66.0312 112.543 67.8535 106.932 70.0359 103.099C70.7351 101.881 71.1847 100.535 71.3587 99.1409C71.5328 97.7468 71.4277 96.332 71.0496 94.9789L69.3879 89.0133L71.7918 74.8112L86.8913 74.368Z" fill="#455A64"/>
<path d="M96.5015 54.2334C96.7009 55.3024 97.5429 58.5206 96.7009 60.3264C96.2966 61.1849 95.8424 61.7056 96.147 62.6084C96.4517 63.5113 97.7201 64.032 97.8918 65.029C98.0359 65.8322 97.4044 66.5301 97.0167 67.2446C96.7442 67.7536 96.5876 68.3165 96.5581 68.893C96.5287 69.4695 96.627 70.0454 96.8461 70.5795C97.0653 71.1136 97.3998 71.5926 97.8257 71.9823C98.2516 72.372 98.7584 72.6627 99.3098 72.8336C98.5703 72.7866 97.85 72.5778 97.2001 72.2217C96.5502 71.8656 95.9865 71.3711 95.5488 70.773C95.1567 70.173 94.9069 69.4912 94.8186 68.7798C94.7303 68.0685 94.8057 67.3463 95.0392 66.6686C95.2111 66.2844 95.3357 65.8808 95.4103 65.4666C95.4768 64.6468 94.9284 63.9212 94.4964 63.2177C93.5237 61.6935 93.1142 59.8772 93.3387 58.083C93.588 56.2828 94.9118 55.0421 96.5015 54.2334Z" fill="#263238"/>
<path d="M96.7011 56.2553C96.6938 54.5294 96.26 52.8321 95.4382 51.3144C93.2225 47.0217 88.6916 43.8976 83.8671 43.8256C81.589 43.7589 79.3524 44.4441 77.5027 45.7754C75.4865 47.282 74.1793 49.5918 73.4536 52.0013C72.6771 54.2861 72.5809 56.7473 73.1767 59.0857C73.8469 61.3844 75.5308 63.4616 77.8018 64.226C79.295 64.6461 80.8614 64.7387 82.3937 64.4974C85.6862 64.147 88.9211 63.3801 92.0206 62.2153C93.1838 61.7777 94.3636 61.4398 95.1557 60.4483C96.1204 59.2601 96.664 57.7854 96.7011 56.2553Z" fill="#263238"/>
<path d="M86.8912 69.189V74.8277C86.8912 74.8277 91.4941 77.769 89.5555 79.3254C85.8997 82.2667 78.0564 74.7945 78.0564 74.7945V65.3892L86.8912 69.189Z" fill="#FFA8A7"/>
<path d="M78.0564 65.3892C79.1365 70.33 84.3543 73.3709 86.8912 73.9858V69.189L78.0564 65.3892Z" fill="#F28F8F"/>
<path d="M72.1408 59.9109C72.4714 59.289 73.0265 58.8165 73.6932 58.5894C74.3599 58.3623 75.088 58.3977 75.7295 58.6885C76.371 58.9792 76.8776 59.5034 77.1463 60.1545C77.415 60.8055 77.4255 61.5344 77.1758 62.193C77.4166 62.2914 77.6778 62.3292 77.9367 62.3032C78.1955 62.2771 78.4439 62.1879 78.6603 62.0434C79.1049 61.7353 79.4388 61.2927 79.613 60.7805C79.7781 60.0916 79.8947 59.392 79.9619 58.6868C81.3689 58.4652 82.1776 56.1499 82.1776 55.9172C82.521 55.9837 89.046 56.2828 91.1508 52.4996C93.9924 52.9815 94.9562 56.3105 95.0282 56.2939C95.2429 57.4665 95.3339 58.6584 95.2996 59.85C95.1949 62.2973 94.7608 64.7194 94.009 67.0507C93.4551 68.8952 92.9676 70.7785 91.0954 71.7368C90.0042 72.2544 88.7869 72.4467 87.5892 72.2907C83.1967 71.842 79.0535 68.4577 77.065 64.608C76.716 65.0302 76.2302 65.3169 75.6918 65.4181C75.1535 65.5192 74.5967 65.4286 74.1182 65.1619C73.3057 64.5499 72.649 63.7547 72.2017 62.841C71.9782 62.3867 71.857 61.8889 71.8465 61.3827C71.8359 60.8765 71.9364 60.3741 72.1408 59.9109Z" fill="#FFA8A7"/>
<path d="M89.2342 60.2378L91.5052 64.4419L88.5751 64.8684L89.2342 60.2378Z" fill="#F28F8F"/>
<path d="M85.7171 66.17L87.8829 67.3332C87.6835 67.5767 87.4101 67.7485 87.1042 67.8225C86.7983 67.8965 86.4766 67.8686 86.1879 67.7431C85.9407 67.5749 85.7589 67.3267 85.6732 67.0402C85.5874 66.7537 85.603 66.4464 85.7171 66.17Z" fill="#F28F8F"/>
<path opacity="0.3" d="M85.7171 66.17L87.8829 67.3332C87.6835 67.5767 87.4101 67.7485 87.1042 67.8225C86.7983 67.8965 86.4766 67.8686 86.1879 67.7431C85.9407 67.5749 85.7589 67.3267 85.6732 67.0402C85.5874 66.7537 85.603 66.4464 85.7171 66.17Z" fill="black"/>
<path d="M86.9524 67.8486C86.6928 67.8879 86.4274 67.8513 86.188 67.7433C85.988 67.6236 85.8284 67.4467 85.7297 67.2354C85.6309 67.0242 85.5977 66.7883 85.6341 66.558C85.9762 66.5635 86.303 66.7008 86.5465 66.9412C86.79 67.1816 86.9314 67.5066 86.9413 67.8486H86.9524Z" fill="#F28F8F"/>
<path d="M85.0136 60.2267C84.9901 60.3904 85.0157 60.5575 85.0871 60.7067C85.1585 60.8558 85.2725 60.9805 85.4148 61.0649C85.5571 61.1493 85.7212 61.1896 85.8863 61.1808C86.0515 61.1719 86.2103 61.1143 86.3427 61.0151C86.4752 60.916 86.5752 60.7799 86.6303 60.6239C86.6853 60.4679 86.6929 60.2991 86.652 60.1388C86.6111 59.9786 86.5236 59.834 86.4006 59.7234C86.2776 59.6129 86.1245 59.5413 85.9608 59.5177C85.852 59.502 85.7413 59.5079 85.6348 59.5351C85.5283 59.5623 85.4283 59.6101 85.3403 59.676C85.2524 59.7418 85.1782 59.8243 85.1222 59.9188C85.0661 60.0133 85.0292 60.118 85.0136 60.2267Z" fill="#263238"/>
<path d="M91.9982 60.947C91.9758 61.1107 92.0024 61.2773 92.0746 61.4259C92.1468 61.5745 92.2613 61.6984 92.4039 61.7819C92.5464 61.8655 92.7105 61.905 92.8754 61.8954C93.0403 61.8858 93.1987 61.8276 93.3306 61.7281C93.4625 61.6286 93.5619 61.4923 93.6164 61.3363C93.6709 61.1804 93.678 61.0118 93.6368 60.8518C93.5956 60.6918 93.508 60.5476 93.3849 60.4374C93.2619 60.3272 93.1089 60.2558 92.9454 60.2324C92.8362 60.2168 92.7251 60.2229 92.6183 60.2504C92.5115 60.2779 92.4112 60.3263 92.3232 60.3927C92.2351 60.4591 92.1611 60.5423 92.1053 60.6374C92.0496 60.7325 92.0132 60.8377 91.9982 60.947Z" fill="#263238"/>
<path d="M93.2722 57.7618L94.9339 59.2906C95.0466 59.0753 95.09 58.8305 95.0583 58.5896C95.0266 58.3487 94.9212 58.1234 94.7567 57.9446C94.5509 57.7789 94.3028 57.6739 94.0405 57.6416C93.7782 57.6093 93.5121 57.651 93.2722 57.7618Z" fill="#263238"/>
<path d="M86.2266 56.6595L84.2104 57.6731C84.1652 57.4329 84.1939 57.1847 84.2928 56.9611C84.3917 56.7376 84.5562 56.5494 84.7643 56.4213C85.0066 56.3236 85.271 56.2941 85.5288 56.3361C85.7866 56.3781 86.0279 56.4899 86.2266 56.6595Z" fill="#263238"/>
<path d="M79.8734 58.2327C80.1947 59.407 80.5104 60.7087 79.9621 61.7999C79.6297 62.459 79.0094 62.9465 78.677 63.6056C78.3494 64.3723 78.2643 65.2209 78.4333 66.0373C78.6014 66.8478 78.7069 67.67 78.749 68.4966C78.7375 69.1123 78.6014 69.7193 78.3489 70.281C78.0964 70.8427 77.7326 71.3473 77.2797 71.7645C76.8268 72.1818 76.294 72.5029 75.7135 72.7086C75.133 72.9142 74.5169 73.0001 73.9023 72.9611C74.844 73.094 75.985 72.2355 76.4725 71.4157C76.9246 70.5676 77.0972 69.5982 76.9654 68.6462C76.8768 67.699 76.6165 66.774 76.4503 65.8379C76.2314 64.9071 76.2314 63.9382 76.4503 63.0074C76.7217 62.0602 77.3587 61.1518 77.1648 60.188C77.0596 59.6618 76.7162 59.2021 76.6608 58.6703C76.6349 58.3224 76.7315 57.9764 76.9338 57.6922C77.1361 57.4079 77.4314 57.2033 77.7686 57.1139C78.4721 56.9588 79.6851 57.557 79.8734 58.2327Z" fill="#263238"/>
<path opacity="0.3" d="M87.423 46.9219C86.9161 47.5117 86.3037 48.002 85.6173 48.3676C83.1645 49.7653 80.3674 50.443 77.5469 50.3229C76.9775 50.3294 76.4125 50.222 75.8852 50.0072C75.5254 49.8268 75.2148 49.5616 74.9803 49.2345C74.7458 48.9074 74.5944 48.5281 74.5392 48.1294C75.263 46.7981 76.2941 45.6587 77.5469 44.806C79.3683 43.6606 81.4891 43.0822 83.6399 43.1443C84.9157 43.1672 86.1811 43.3781 87.3953 43.7702C87.6871 44.0799 87.89 44.4627 87.9825 44.878C88.0406 45.2389 88.0208 45.608 87.9243 45.9606C87.8278 46.3132 87.6569 46.641 87.423 46.9219Z" fill="black"/>
<path d="M89.107 41.4161C88.8355 39.1617 86.9633 37.3338 84.8197 36.5639C82.669 35.8357 80.3284 35.9025 78.2227 36.7522C76.1311 37.6138 74.3165 39.0336 72.9772 40.8567C72.0023 42.1473 71.2213 43.7203 71.4097 45.3322C71.6202 47.2044 73.1655 48.7498 74.9657 49.3259C76.8108 49.8457 78.7667 49.8226 80.599 49.2594C81.8065 48.9049 85.6672 47.354 86.6365 46.3237C87.8884 44.9833 89.323 43.2108 89.107 41.4161Z" fill="#263238"/>
<path opacity="0.2" d="M76.5442 90.5532C77.7539 92.2881 79.5191 93.5586 81.5484 94.1548C83.5776 94.7509 85.7495 94.6372 87.7054 93.8323C86.8765 94.6369 85.8591 95.2206 84.7463 95.5303C83.6335 95.8399 82.4608 95.8656 81.3355 95.6048C79.1143 95.0343 77.2089 92.7467 76.5442 90.5532Z" fill="black"/>
<path d="M91.81 115.639C91.8067 115.652 91.8067 115.665 91.81 115.678C91.8041 115.694 91.8041 115.712 91.81 115.728L92.6962 116.742C92.6931 116.72 92.6931 116.697 92.6962 116.675C92.7295 116.83 92.9621 116.825 93.3443 116.609L100.772 112.432C101.347 112.101 101.835 111.638 102.196 111.081L108.654 99.0554C108.76 98.856 108.754 98.7397 108.654 98.6843H108.682L107.829 97.6707C107.797 97.6427 107.755 97.6271 107.713 97.6263H107.663H107.618H107.574H107.535H107.497H107.458H107.419H107.38H107.336H107.297H107.258H107.214L99.7862 101.803H99.7475H99.7031L99.6644 101.83H99.6311H99.5979H99.5702L99.476 101.914V101.941V101.969L99.4483 102.002L99.4207 102.035V102.074L99.393 102.113V102.152L99.3653 102.191L99.3376 102.229V102.268V102.301V102.335L92.879 114.36V114.393C92.8766 114.404 92.8766 114.415 92.879 114.426V114.46C92.8766 114.47 92.8766 114.482 92.879 114.493C92.8772 114.504 92.8772 114.515 92.879 114.526C92.7314 114.384 92.5335 114.307 92.3288 114.311C92.1242 114.315 91.9296 114.401 91.7878 114.548C91.6461 114.696 91.5688 114.894 91.5729 115.098C91.5771 115.303 91.6624 115.498 91.81 115.639ZM108.483 98.6622C108.483 98.6622 108.51 98.6622 108.532 98.6622C108.516 98.661 108.499 98.661 108.483 98.6622ZM99.8416 103.647C99.9026 103.586 99.9746 103.531 100.047 103.47C99.9746 103.531 99.9026 103.57 99.8416 103.631V103.647ZM92.7018 116.625C92.6996 116.612 92.6996 116.599 92.7018 116.587C92.6992 116.607 92.6992 116.627 92.7018 116.647C92.7018 116.647 92.7018 116.614 92.7018 116.609V116.625Z" fill="#E0E0E0"/>
<path opacity="0.2" d="M91.81 115.639C91.8067 115.652 91.8067 115.665 91.81 115.678C91.8041 115.694 91.8041 115.712 91.81 115.728L92.6962 116.742C92.6931 116.72 92.6931 116.697 92.6962 116.675C92.7295 116.83 92.9621 116.825 93.3443 116.609L100.772 112.432C101.347 112.101 101.835 111.638 102.196 111.081L108.654 99.0554C108.76 98.856 108.754 98.7397 108.654 98.6843H108.682L107.829 97.6707C107.797 97.6427 107.755 97.6271 107.713 97.6263H107.663H107.618H107.574H107.535H107.497H107.458H107.419H107.38H107.336H107.297H107.258H107.214L99.7862 101.803H99.7475H99.7031L99.6644 101.83H99.6311H99.5979H99.5702L99.476 101.914V101.941V101.969L99.4483 102.002L99.4207 102.035V102.074L99.393 102.113V102.152L99.3653 102.191L99.3376 102.229V102.268V102.301V102.335L92.879 114.36V114.393C92.8766 114.404 92.8766 114.415 92.879 114.426V114.46C92.8766 114.47 92.8766 114.482 92.879 114.493C92.8772 114.504 92.8772 114.515 92.879 114.526C92.7314 114.384 92.5335 114.307 92.3288 114.311C92.1242 114.315 91.9296 114.401 91.7878 114.548C91.6461 114.696 91.5688 114.894 91.5729 115.098C91.5771 115.303 91.6624 115.498 91.81 115.639ZM108.483 98.6622C108.483 98.6622 108.51 98.6622 108.532 98.6622C108.516 98.661 108.499 98.661 108.483 98.6622ZM99.8416 103.647C99.9026 103.586 99.9746 103.531 100.047 103.47C99.9746 103.531 99.9026 103.57 99.8416 103.631V103.647ZM92.7018 116.625C92.6996 116.612 92.6996 116.599 92.7018 116.587C92.6992 116.607 92.6992 116.627 92.7018 116.647C92.7018 116.647 92.7018 116.614 92.7018 116.609V116.625Z" fill="black"/>
<path opacity="0.15" d="M91.8155 115.606C91.8137 115.595 91.8137 115.584 91.8155 115.573C91.8131 115.562 91.8131 115.551 91.8155 115.54V115.507C91.8131 115.496 91.8131 115.484 91.8155 115.473V115.44L98.2741 103.415L99.1603 104.428L92.7849 116.382C92.7448 116.45 92.7167 116.525 92.7018 116.603C92.6956 116.626 92.6948 116.65 92.6997 116.673C92.7045 116.696 92.7147 116.718 92.7295 116.736L91.8432 115.723C91.8373 115.706 91.8373 115.689 91.8432 115.673C91.8399 115.66 91.8399 115.647 91.8432 115.634C91.8316 115.627 91.822 115.618 91.8155 115.606Z" fill="white"/>
<path opacity="0.2" d="M98.3739 103.309V103.276V103.237L98.4016 103.199L98.4293 103.16V103.121L98.457 103.082V103.043L98.4847 103.01L98.5123 102.977V102.949V102.922L98.6065 102.839H98.6342H98.6674H98.7007L98.7394 102.811H98.7838H98.8225L106.25 98.6344H106.295H106.333H106.372H106.417H106.455H106.494H106.533H106.572H106.61H106.655H106.699H106.749C106.792 98.6351 106.833 98.6508 106.865 98.6787L107.746 99.6924C107.709 99.648 107.637 99.637 107.53 99.6591C107.387 99.6951 107.251 99.753 107.126 99.8308L100.673 102.977C100.525 103.06 100.384 103.154 100.252 103.26C100.11 103.368 99.9755 103.485 99.8473 103.608C99.7219 103.725 99.6036 103.849 99.4928 103.98C99.4023 104.091 99.3208 104.21 99.249 104.334L98.3628 103.32L98.3739 103.309Z" fill="white"/>
<path d="M65.9926 80.3169C66.6074 75.8856 69.676 74.9717 71.7643 74.811C71.7643 74.811 74.3842 76.6112 74.3842 84.6318L74.1627 104.7L75.6361 105.315C79.7797 107.085 84.1087 108.386 88.5421 109.192C90.8556 107.357 93.7322 106.379 96.6845 106.422L95.5767 108.466C97.6538 109.796 102.345 107.397 102.345 107.397C102.689 110.322 100.794 113.357 98.2797 114.897C95.765 116.437 71.7753 114.177 66.7071 110.881C63.3504 108.743 64.6964 89.7333 65.9926 80.3169Z" fill="#FFA8A7"/>
<path d="M107.419 101.371C107.58 102.161 107.671 102.963 107.69 103.769C107.506 105.687 106.694 107.49 105.381 108.898C105.107 109.207 104.766 109.448 104.384 109.602C104.192 109.675 103.983 109.697 103.78 109.665C103.577 109.633 103.386 109.548 103.226 109.419C102.945 109.082 102.802 108.65 102.827 108.212C102.765 107.562 102.8 106.907 102.932 106.267C103.063 105.619 103.425 105.04 103.952 104.639C104.361 104.406 104.796 104.22 105.248 104.085C105.693 103.896 106.09 103.611 106.411 103.249L107.419 101.371Z" fill="#FFA8A7"/>
<path d="M109.036 54.8372L124.147 46.163C125.471 45.4041 128.578 46.4344 128.578 48.5614C128.578 48.3892 128.532 48.2202 128.445 48.0712C128.359 47.9222 128.235 47.7984 128.086 47.7122C127.937 47.6259 127.768 47.5801 127.596 47.5795C127.424 47.5788 127.255 47.6233 127.105 47.7084L111.989 56.3826C111.493 56.6718 111.094 57.1017 110.842 57.6178L107.906 55.956C108.172 55.4855 108.563 55.0981 109.036 54.8372Z" fill="#BA68C8"/>
<path d="M110.87 57.6178C110.656 58.0268 110.543 58.4804 110.537 58.9416V70.1638C110.537 70.3358 110.582 70.5049 110.668 70.6541C110.753 70.8033 110.877 70.9274 111.025 71.0138C111.174 71.1002 111.343 71.146 111.515 71.1465C111.687 71.1471 111.856 71.1023 112.005 71.0168C111.57 71.2828 111.073 71.4298 110.563 71.4431C110.053 71.4565 109.548 71.3357 109.099 71.0929C108.651 70.8501 108.274 70.4937 108.006 70.0594C107.738 69.6252 107.589 69.1283 107.574 68.6184V57.3963C107.575 56.8894 107.706 56.3914 107.956 55.9506L110.87 57.6178Z" fill="#BA68C8"/>
<path opacity="0.4" d="M109.036 54.8372L124.147 46.163C125.471 45.4041 128.578 46.4344 128.578 48.5614C128.578 48.3892 128.532 48.2202 128.445 48.0712C128.359 47.9222 128.235 47.7984 128.086 47.7122C127.937 47.6259 127.768 47.5801 127.596 47.5795C127.424 47.5788 127.255 47.6233 127.105 47.7084L111.989 56.3826C111.493 56.6718 111.094 57.1017 110.842 57.6178L107.906 55.956C108.172 55.4855 108.563 55.0981 109.036 54.8372Z" fill="white"/>
<path opacity="0.2" d="M110.87 57.6178C110.656 58.0268 110.543 58.4804 110.537 58.9416V70.1638C110.537 70.3358 110.582 70.5049 110.668 70.6541C110.753 70.8033 110.877 70.9274 111.025 71.0138C111.174 71.1002 111.343 71.146 111.515 71.1465C111.687 71.1471 111.856 71.1023 112.005 71.0168C111.57 71.2828 111.073 71.4298 110.563 71.4431C110.053 71.4565 109.548 71.3357 109.099 71.0929C108.651 70.8501 108.274 70.4937 108.006 70.0594C107.738 69.6252 107.589 69.1283 107.574 68.6184V57.3963C107.575 56.8894 107.706 56.3914 107.956 55.9506L110.87 57.6178Z" fill="white"/>
<path d="M127.132 47.7084L112.016 56.3826C111.567 56.6415 111.193 57.0144 110.934 57.4637C110.674 57.9129 110.537 58.4227 110.537 58.9416V70.1637C110.537 70.3358 110.582 70.5049 110.667 70.6541C110.753 70.8033 110.876 70.9273 111.025 71.0138C111.174 71.1002 111.343 71.146 111.515 71.1465C111.687 71.147 111.856 71.1023 112.005 71.0167L127.121 62.3814C127.572 62.1227 127.946 61.75 128.206 61.3008C128.467 60.8515 128.605 60.3416 128.606 59.8223V48.5614C128.605 48.3892 128.559 48.2202 128.473 48.0712C128.387 47.9222 128.263 47.7984 128.114 47.7122C127.965 47.6259 127.796 47.5801 127.624 47.5795C127.451 47.5788 127.282 47.6233 127.132 47.7084Z" fill="#BA68C8"/>
<path d="M106.898 64.6633L110.532 65.3446V60.6863L106.771 64.2368C106.737 64.2685 106.713 64.3089 106.701 64.3535C106.69 64.3981 106.69 64.4451 106.703 64.4893C106.717 64.5335 106.742 64.5732 106.776 64.6039C106.811 64.6346 106.853 64.6552 106.898 64.6633Z" fill="#BA68C8"/>
<path d="M110.532 60.6865L107.552 58.9805L103.797 62.5698C103.768 62.5967 103.746 62.6299 103.733 62.6667C103.72 62.7035 103.716 62.743 103.72 62.7818C103.725 62.8206 103.739 62.8578 103.761 62.8902C103.783 62.9227 103.812 62.9495 103.846 62.9686L106.815 64.6303L110.532 60.6865Z" fill="#BA68C8"/>
<path opacity="0.2" d="M110.532 60.6865L107.552 58.9805L103.797 62.5698C103.768 62.5967 103.746 62.6299 103.733 62.6667C103.72 62.7035 103.716 62.743 103.72 62.7818C103.725 62.8206 103.739 62.8578 103.761 62.8902C103.783 62.9227 103.812 62.9495 103.846 62.9686L106.815 64.6303L110.532 60.6865Z" fill="white"/>
<path d="M124.834 51.3365C125.205 51.1205 125.465 51.547 125.127 52.0843C122.696 55.9219 120.57 59.9446 118.769 64.1151C118.584 64.5857 118.254 64.9854 117.827 65.2561C117.696 65.3595 117.534 65.4157 117.367 65.4157C117.2 65.4157 117.038 65.3595 116.907 65.2561C116.011 64.4035 115.031 63.6427 113.983 62.9851C113.695 62.8023 113.933 62.1321 114.304 61.9161C114.349 61.8895 114.397 61.8708 114.448 61.8607C115.543 61.6435 116.666 61.6117 117.772 61.7665C119.614 58.0841 121.908 54.6456 124.601 51.5303C124.667 51.4524 124.745 51.3867 124.834 51.3365Z" fill="white"/>
</svg>
